<svg width="650" height="250" viewBox="0 0 650 250" fill="none" xmlns="http://www.w3.org/2000/svg">
<rect x="285" y="125" width="80" height="80" rx="40" fill="url(#paint0_linear_1739_1121)"/>
<g clip-path="url(#clip0_1739_1121)">
<path d="M324.997 173V155.667M324.997 173C324.998 173.729 325.148 174.45 325.439 175.119C325.729 175.787 326.153 176.389 326.685 176.888C327.218 177.386 327.846 177.77 328.533 178.015C329.219 178.261 329.948 178.364 330.676 178.316C331.403 178.269 332.113 178.073 332.762 177.741C333.411 177.409 333.985 176.947 334.448 176.384C334.911 175.821 335.254 175.169 335.456 174.469C335.658 173.768 335.713 173.034 335.62 172.311M324.997 173C324.996 173.729 324.846 174.45 324.556 175.119C324.265 175.787 323.841 176.389 323.309 176.888C322.777 177.386 322.148 177.77 321.462 178.015C320.775 178.261 320.046 178.364 319.318 178.316C318.591 178.269 317.881 178.073 317.232 177.741C316.583 177.409 316.01 176.947 315.546 176.384C315.083 175.821 314.74 175.169 314.538 174.469C314.337 173.768 314.281 173.034 314.374 172.311M324.997 155.667C324.997 155.053 325.138 154.448 325.41 153.897C325.681 153.347 326.075 152.867 326.562 152.493C327.049 152.12 327.615 151.863 328.217 151.743C328.819 151.624 329.44 151.644 330.032 151.803C330.625 151.962 331.173 152.255 331.635 152.659C332.096 153.064 332.458 153.569 332.693 154.136C332.928 154.703 333.029 155.316 332.989 155.928C332.948 156.541 332.768 157.135 332.461 157.667M324.997 155.667C324.997 155.053 324.856 154.448 324.585 153.897C324.313 153.347 323.919 152.867 323.432 152.493C322.946 152.12 322.379 151.863 321.778 151.743C321.176 151.624 320.555 151.644 319.962 151.803C319.369 151.962 318.821 152.255 318.36 152.659C317.898 153.064 317.536 153.569 317.302 154.136C317.067 154.703 316.966 155.316 317.006 155.928C317.046 156.541 317.226 157.135 317.533 157.667M328.997 166.333C327.844 165.996 326.83 165.294 326.109 164.333C325.388 163.371 324.998 162.202 324.997 161C324.996 162.202 324.606 163.371 323.885 164.333C323.164 165.294 322.151 165.996 320.997 166.333M332.993 155.833C333.777 156.035 334.504 156.412 335.121 156.936C335.737 157.461 336.226 158.119 336.551 158.86C336.875 159.601 337.027 160.407 336.994 161.215C336.961 162.024 336.745 162.814 336.361 163.527M332.997 173C334.171 173 335.312 172.613 336.244 171.898C337.175 171.183 337.845 170.181 338.149 169.047C338.452 167.913 338.374 166.71 337.924 165.626C337.475 164.541 336.681 163.635 335.664 163.048M316.997 173C315.823 173 314.682 172.613 313.751 171.898C312.819 171.183 312.15 170.181 311.846 169.047C311.542 167.913 311.621 166.71 312.07 165.626C312.519 164.541 313.314 163.635 314.33 163.048M317.001 155.833C316.217 156.035 315.49 156.412 314.873 156.936C314.257 157.461 313.768 158.119 313.444 158.86C313.119 159.601 312.968 160.407 313 161.215C313.033 162.024 313.25 162.814 313.633 163.527" stroke="white" stroke-width="4" stroke-linecap="round" stroke-linejoin="round"/>
</g>
<rect x="1.5" y="1.5" width="161" height="161" rx="80.5" stroke="url(#paint1_linear_1739_1121)" stroke-width="3"/>
<path d="M81.9972 71V53.6667M81.9972 71C81.9979 71.729 82.1482 72.4501 82.4385 73.1188C82.7289 73.7874 83.1533 74.3895 83.6855 74.8877C84.2177 75.3859 84.8463 75.7698 85.5326 76.0155C86.219 76.2612 86.9484 76.3637 87.6759 76.3165C88.4033 76.2693 89.1134 76.0734 89.7622 75.741C90.411 75.4086 90.9848 74.9468 91.4481 74.384C91.9114 73.8211 92.2544 73.1693 92.456 72.4687C92.6575 71.7681 92.7133 71.0337 92.6198 70.3107M81.9972 71C81.9964 71.729 81.8462 72.4501 81.5558 73.1188C81.2654 73.7874 80.841 74.3895 80.3088 74.8877C79.7767 75.3859 79.148 75.7698 78.4617 76.0155C77.7754 76.2612 77.0459 76.3637 76.3185 76.3165C75.591 76.2693 74.8809 76.0734 74.2321 75.741C73.5833 75.4086 73.0095 74.9468 72.5462 74.384C72.0829 73.8211 71.7399 73.1693 71.5383 72.4687C71.3368 71.7681 71.2811 71.0337 71.3745 70.3107M81.9972 53.6667C81.9971 53.0531 82.1383 52.4478 82.4096 51.8975C82.681 51.3472 83.0753 50.8667 83.5621 50.4931C84.0488 50.1196 84.615 49.8631 85.2168 49.7434C85.8185 49.6237 86.4398 49.644 87.0325 49.8028C87.6251 49.9616 88.1733 50.2546 88.6346 50.6592C89.0959 51.0637 89.4579 51.569 89.6927 52.1359C89.9275 52.7027 90.0287 53.316 89.9886 53.9283C89.9484 54.5405 89.768 55.1353 89.4612 55.6667M81.9972 53.6667C81.9972 53.0531 81.8561 52.4478 81.5847 51.8975C81.3134 51.3472 80.919 50.8667 80.4323 50.4931C79.9455 50.1196 79.3793 49.8631 78.7776 49.7434C78.1758 49.6237 77.5545 49.644 76.9619 49.8028C76.3692 49.9616 75.821 50.2546 75.3597 50.6592C74.8984 51.0637 74.5364 51.569 74.3016 52.1359C74.0668 52.7027 73.9656 53.316 74.0057 53.9283C74.0459 54.5405 74.2264 55.1353 74.5332 55.6667M85.9972 64.3333C84.8436 63.9961 83.8303 63.2942 83.1092 62.3327C82.388 61.3712 81.9979 60.2019 81.9972 59C81.9964 60.2019 81.6063 61.3712 80.8852 62.3327C80.164 63.2942 79.1508 63.9961 77.9972 64.3333M89.9932 53.8333C90.7769 54.0349 91.5045 54.4121 92.1209 54.9364C92.7372 55.4608 93.2262 56.1185 93.5507 56.8598C93.8752 57.6011 94.0268 58.4065 93.994 59.2151C93.9611 60.0237 93.7447 60.8141 93.3612 61.5267M89.9972 71C91.1712 71 92.3124 70.6125 93.2437 69.8978C94.1751 69.1831 94.8447 68.1811 95.1485 67.0471C95.4524 65.9131 95.3736 64.7105 94.9243 63.6258C94.4751 62.5412 93.6805 61.6351 92.6638 61.048M73.9972 71C72.8232 71 71.682 70.6125 70.7506 69.8978C69.8192 69.1831 69.1497 68.1811 68.8458 67.0471C68.5419 65.9131 68.6207 64.7105 69.07 63.6258C69.5192 62.5412 70.3138 61.6351 71.3305 61.048M74.0012 53.8333C73.2174 54.0349 72.4898 54.4121 71.8735 54.9364C71.2571 55.4608 70.7681 56.1185 70.4436 56.8598C70.1191 57.6011 69.9675 58.4065 70.0003 59.2151C70.0332 60.0237 70.2496 60.8141 70.6332 61.5267" stroke="url(#paint2_linear_1739_1121)" stroke-width="2" stroke-linecap="round" stroke-linejoin="round"/>
<path d="M39.1172 101H37.8246L41.5632 90.8182H42.8359L46.5746 101H45.2819L42.2393 92.429H42.1598L39.1172 101ZM39.5944 97.0227H44.8047V98.1165H39.5944V97.0227ZM53.3739 97.8778V93.3636H54.5472V101H53.3739V99.7074H53.2944C53.1154 100.095 52.837 100.425 52.4591 100.697C52.0813 100.965 51.604 101.099 51.0273 101.099C50.55 101.099 50.1258 100.995 49.7546 100.786C49.3834 100.574 49.0917 100.256 48.8796 99.8317C48.6675 99.4041 48.5614 98.8655 48.5614 98.2159V93.3636H49.7347V98.1364C49.7347 98.6932 49.8905 99.1373 50.202 99.4688C50.5169 99.8002 50.9179 99.9659 51.4052 99.9659C51.6968 99.9659 51.9935 99.8913 52.2951 99.7422C52.6 99.593 52.8552 99.3643 53.0607 99.0561C53.2695 98.7479 53.3739 98.3551 53.3739 97.8778ZM60.5772 93.3636V94.358H56.6198V93.3636H60.5772ZM57.7732 91.5341H58.9465V98.8125C58.9465 99.1439 58.9946 99.3925 59.0907 99.5582C59.1901 99.7206 59.3161 99.83 59.4685 99.8864C59.6243 99.9394 59.7884 99.9659 59.9607 99.9659C60.09 99.9659 60.196 99.9593 60.2789 99.946C60.3618 99.9295 60.428 99.9162 60.4778 99.9062L60.7164 100.96C60.6369 100.99 60.5258 101.02 60.3833 101.05C60.2408 101.083 60.0601 101.099 59.8414 101.099C59.51 101.099 59.1851 101.028 58.867 100.886C58.5521 100.743 58.2903 100.526 58.0815 100.234C57.876 99.9427 57.7732 99.5748 57.7732 99.1307V91.5341ZM65.9223 101.159C65.233 101.159 64.6281 100.995 64.1077 100.667C63.5907 100.339 63.1863 99.8797 62.8946 99.2898C62.6063 98.6998 62.4621 98.0104 62.4621 97.2216C62.4621 96.4261 62.6063 95.7318 62.8946 95.1385C63.1863 94.5452 63.5907 94.0845 64.1077 93.7564C64.6281 93.4283 65.233 93.2642 65.9223 93.2642C66.6117 93.2642 67.215 93.4283 67.732 93.7564C68.2524 94.0845 68.6567 94.5452 68.9451 95.1385C69.2367 95.7318 69.3826 96.4261 69.3826 97.2216C69.3826 98.0104 69.2367 98.6998 68.9451 99.2898C68.6567 99.8797 68.2524 100.339 67.732 100.667C67.215 100.995 66.6117 101.159 65.9223 101.159ZM65.9223 100.105C66.446 100.105 66.8769 99.9709 67.215 99.7024C67.553 99.4339 67.8033 99.081 67.9657 98.6435C68.1281 98.206 68.2093 97.732 68.2093 97.2216C68.2093 96.7112 68.1281 96.2356 67.9657 95.7947C67.8033 95.3539 67.553 94.9976 67.215 94.7259C66.8769 94.4541 66.446 94.3182 65.9223 94.3182C65.3987 94.3182 64.9678 94.4541 64.6297 94.7259C64.2917 94.9976 64.0414 95.3539 63.879 95.7947C63.7166 96.2356 63.6354 96.7112 63.6354 97.2216C63.6354 97.732 63.7166 98.206 63.879 98.6435C64.0414 99.081 64.2917 99.4339 64.6297 99.7024C64.9678 99.9709 65.3987 100.105 65.9223 100.105ZM72.9069 96.4062V101H71.7336V93.3636H72.8671V94.5568H72.9665C73.1455 94.169 73.4173 93.8575 73.7819 93.6222C74.1465 93.3835 74.6171 93.2642 75.1938 93.2642C75.7109 93.2642 76.1633 93.3703 76.5511 93.5824C76.9388 93.7912 77.2405 94.1094 77.4559 94.5369C77.6713 94.9612 77.779 95.4981 77.779 96.1477V101H76.6058V96.2273C76.6058 95.6274 76.45 95.16 76.1384 94.8253C75.8269 94.4872 75.3993 94.3182 74.8558 94.3182C74.4812 94.3182 74.1465 94.3994 73.8515 94.5618C73.5598 94.7242 73.3295 94.9612 73.1604 95.2727C72.9914 95.5843 72.9069 95.9621 72.9069 96.4062ZM83.5853 101.159C82.8959 101.159 82.291 100.995 81.7707 100.667C81.2536 100.339 80.8493 99.8797 80.5576 99.2898C80.2693 98.6998 80.1251 98.0104 80.1251 97.2216C80.1251 96.4261 80.2693 95.7318 80.5576 95.1385C80.8493 94.5452 81.2536 94.0845 81.7707 93.7564C82.291 93.4283 82.8959 93.2642 83.5853 93.2642C84.2747 93.2642 84.8779 93.4283 85.395 93.7564C85.9153 94.0845 86.3197 94.5452 86.608 95.1385C86.8997 95.7318 87.0455 96.4261 87.0455 97.2216C87.0455 98.0104 86.8997 98.6998 86.608 99.2898C86.3197 99.8797 85.9153 100.339 85.395 100.667C84.8779 100.995 84.2747 101.159 83.5853 101.159ZM83.5853 100.105C84.109 100.105 84.5399 99.9709 84.8779 99.7024C85.216 99.4339 85.4662 99.081 85.6286 98.6435C85.791 98.206 85.8722 97.732 85.8722 97.2216C85.8722 96.7112 85.791 96.2356 85.6286 95.7947C85.4662 95.3539 85.216 94.9976 84.8779 94.7259C84.5399 94.4541 84.109 94.3182 83.5853 94.3182C83.0616 94.3182 82.6308 94.4541 82.2927 94.7259C81.9546 94.9976 81.7044 95.3539 81.542 95.7947C81.3796 96.2356 81.2984 96.7112 81.2984 97.2216C81.2984 97.732 81.3796 98.206 81.542 98.6435C81.7044 99.081 81.9546 99.4339 82.2927 99.7024C82.6308 99.9709 83.0616 100.105 83.5853 100.105ZM89.3966 101V93.3636H90.5301V94.5568H90.6295C90.7886 94.1491 91.0455 93.8326 91.4001 93.6072C91.7548 93.3786 92.1807 93.2642 92.6778 93.2642C93.1816 93.2642 93.6009 93.3786 93.9356 93.6072C94.2737 93.8326 94.5372 94.1491 94.7261 94.5568H94.8057C95.0012 94.1624 95.2945 93.8492 95.6856 93.6172C96.0767 93.3819 96.5457 93.2642 97.0926 93.2642C97.7753 93.2642 98.3338 93.478 98.768 93.9055C99.2022 94.3298 99.4193 94.991 99.4193 95.8892V101H98.246V95.8892C98.246 95.3258 98.0919 94.9231 97.7836 94.6811C97.4754 94.4392 97.1125 94.3182 96.6949 94.3182C96.1579 94.3182 95.742 94.4806 95.447 94.8054C95.152 95.1269 95.0045 95.5346 95.0045 96.0284V101H93.8113V95.7699C93.8113 95.3357 93.6705 94.986 93.3887 94.7209C93.107 94.4524 92.7441 94.3182 92.3 94.3182C91.995 94.3182 91.71 94.3994 91.4449 94.5618C91.183 94.7242 90.9709 94.9496 90.8085 95.2379C90.6494 95.523 90.5699 95.8527 90.5699 96.2273V101H89.3966ZM105.227 101.159C104.537 101.159 103.933 100.995 103.412 100.667C102.895 100.339 102.491 99.8797 102.199 99.2898C101.911 98.6998 101.767 98.0104 101.767 97.2216C101.767 96.4261 101.911 95.7318 102.199 95.1385C102.491 94.5452 102.895 94.0845 103.412 93.7564C103.933 93.4283 104.537 93.2642 105.227 93.2642C105.916 93.2642 106.519 93.4283 107.036 93.7564C107.557 94.0845 107.961 94.5452 108.25 95.1385C108.541 95.7318 108.687 96.4261 108.687 97.2216C108.687 98.0104 108.541 98.6998 108.25 99.2898C107.961 99.8797 107.557 100.339 107.036 100.667C106.519 100.995 105.916 101.159 105.227 101.159ZM105.227 100.105C105.75 100.105 106.181 99.9709 106.519 99.7024C106.857 99.4339 107.108 99.081 107.27 98.6435C107.433 98.206 107.514 97.732 107.514 97.2216C107.514 96.7112 107.433 96.2356 107.27 95.7947C107.108 95.3539 106.857 94.9976 106.519 94.7259C106.181 94.4541 105.75 94.3182 105.227 94.3182C104.703 94.3182 104.272 94.4541 103.934 94.7259C103.596 94.9976 103.346 95.3539 103.183 95.7947C103.021 96.2356 102.94 96.7112 102.94 97.2216C102.94 97.732 103.021 98.206 103.183 98.6435C103.346 99.081 103.596 99.4339 103.934 99.7024C104.272 99.9709 104.703 100.105 105.227 100.105ZM115.851 97.8778V93.3636H117.024V101H115.851V99.7074H115.771C115.592 100.095 115.314 100.425 114.936 100.697C114.558 100.965 114.081 101.099 113.504 101.099C113.027 101.099 112.602 100.995 112.231 100.786C111.86 100.574 111.568 100.256 111.356 99.8317C111.144 99.4041 111.038 98.8655 111.038 98.2159V93.3636H112.211V98.1364C112.211 98.6932 112.367 99.1373 112.679 99.4688C112.994 99.8002 113.395 99.9659 113.882 99.9659C114.173 99.9659 114.47 99.8913 114.772 99.7422C115.077 99.593 115.332 99.3643 115.537 99.0561C115.746 98.7479 115.851 98.3551 115.851 97.8778ZM125.142 95.0739L124.088 95.3722C124.022 95.1965 123.924 95.0258 123.795 94.8601C123.669 94.6911 123.496 94.5518 123.278 94.4425C123.059 94.3331 122.779 94.2784 122.437 94.2784C121.97 94.2784 121.581 94.3861 121.269 94.6016C120.961 94.8137 120.807 95.0838 120.807 95.4119C120.807 95.7036 120.913 95.9339 121.125 96.103C121.337 96.272 121.668 96.4129 122.119 96.5256L123.253 96.804C123.935 96.9697 124.444 97.2232 124.779 97.5646C125.114 97.9027 125.281 98.3385 125.281 98.8722C125.281 99.3097 125.155 99.7008 124.903 100.045C124.655 100.39 124.307 100.662 123.859 100.861C123.412 101.06 122.891 101.159 122.298 101.159C121.519 101.159 120.875 100.99 120.364 100.652C119.854 100.314 119.531 99.8201 119.395 99.1705L120.508 98.892C120.614 99.303 120.815 99.6113 121.11 99.8168C121.408 100.022 121.798 100.125 122.278 100.125C122.825 100.125 123.259 100.009 123.581 99.777C123.906 99.5417 124.068 99.2599 124.068 98.9318C124.068 98.6667 123.975 98.4446 123.79 98.2656C123.604 98.0833 123.319 97.9474 122.935 97.858L121.662 97.5597C120.962 97.3939 120.449 97.1371 120.121 96.7891C119.796 96.4377 119.633 95.9986 119.633 95.4716C119.633 95.0407 119.754 94.6596 119.996 94.3281C120.242 93.9967 120.575 93.7365 120.996 93.5476C121.42 93.3587 121.9 93.2642 122.437 93.2642C123.193 93.2642 123.786 93.4299 124.217 93.7614C124.651 94.0928 124.96 94.5303 125.142 95.0739ZM56.7627 105.912V104.818H64.3991V105.912H61.1974V115H59.9644V105.912H56.7627ZM68.7972 115.159C68.0614 115.159 67.4267 114.997 66.8931 114.672C66.3627 114.344 65.9534 113.886 65.6651 113.3C65.38 112.71 65.2375 112.024 65.2375 111.241C65.2375 110.459 65.38 109.77 65.6651 109.173C65.9534 108.573 66.3545 108.106 66.8682 107.771C67.3852 107.433 67.9885 107.264 68.6779 107.264C69.0756 107.264 69.4683 107.33 69.8561 107.463C70.2439 107.596 70.5969 107.811 70.9151 108.109C71.2333 108.404 71.4868 108.795 71.6757 109.283C71.8646 109.77 71.9591 110.37 71.9591 111.082V111.58H66.0727V110.565H70.7659C70.7659 110.134 70.6797 109.75 70.5074 109.412C70.3384 109.074 70.0964 108.807 69.7815 108.612C69.47 108.416 69.1021 108.318 68.6779 108.318C68.2105 108.318 67.8062 108.434 67.4648 108.666C67.1267 108.895 66.8665 109.193 66.6842 109.561C66.502 109.929 66.4108 110.323 66.4108 110.744V111.42C66.4108 111.997 66.5102 112.486 66.7091 112.887C66.9113 113.285 67.1913 113.588 67.5493 113.797C67.9073 114.002 68.3232 114.105 68.7972 114.105C69.1054 114.105 69.3838 114.062 69.6324 113.976C69.8843 113.886 70.1014 113.754 70.2837 113.578C70.466 113.399 70.6068 113.177 70.7063 112.912L71.8398 113.23C71.7205 113.615 71.5199 113.953 71.2382 114.244C70.9565 114.533 70.6085 114.758 70.1942 114.92C69.7799 115.08 69.3142 115.159 68.7972 115.159ZM79.713 109.074L78.659 109.372C78.5927 109.196 78.495 109.026 78.3657 108.86C78.2397 108.691 78.0674 108.552 77.8486 108.442C77.6299 108.333 77.3498 108.278 77.0085 108.278C76.5411 108.278 76.1517 108.386 75.8401 108.602C75.5319 108.814 75.3778 109.084 75.3778 109.412C75.3778 109.704 75.4838 109.934 75.696 110.103C75.9081 110.272 76.2395 110.413 76.6903 110.526L77.8238 110.804C78.5066 110.97 79.0153 111.223 79.3501 111.565C79.6848 111.903 79.8522 112.339 79.8522 112.872C79.8522 113.31 79.7263 113.701 79.4744 114.045C79.2258 114.39 78.8778 114.662 78.4303 114.861C77.9829 115.06 77.4625 115.159 76.8692 115.159C76.0904 115.159 75.4457 114.99 74.9353 114.652C74.4249 114.314 74.1017 113.82 73.9658 113.17L75.0795 112.892C75.1855 113.303 75.3861 113.611 75.681 113.817C75.9793 114.022 76.3688 114.125 76.8494 114.125C77.3962 114.125 77.8304 114.009 78.1519 113.777C78.4767 113.542 78.6391 113.26 78.6391 112.932C78.6391 112.667 78.5463 112.445 78.3607 112.266C78.1751 112.083 77.8901 111.947 77.5056 111.858L76.2329 111.56C75.5335 111.394 75.0198 111.137 74.6917 110.789C74.3669 110.438 74.2045 109.999 74.2045 109.472C74.2045 109.041 74.3254 108.66 74.5674 108.328C74.8127 107.997 75.1458 107.737 75.5667 107.548C75.9909 107.359 76.4715 107.264 77.0085 107.264C77.7641 107.264 78.3574 107.43 78.7883 107.761C79.2225 108.093 79.5307 108.53 79.713 109.074ZM85.4994 107.364V108.358H81.542V107.364H85.4994ZM82.6954 105.534H83.8687V112.812C83.8687 113.144 83.9168 113.393 84.0129 113.558C84.1123 113.721 84.2383 113.83 84.3907 113.886C84.5465 113.939 84.7106 113.966 84.8829 113.966C85.0122 113.966 85.1182 113.959 85.2011 113.946C85.2839 113.929 85.3502 113.916 85.3999 113.906L85.6386 114.96C85.559 114.99 85.448 115.02 85.3055 115.05C85.163 115.083 84.9823 115.099 84.7636 115.099C84.4321 115.099 84.1073 115.028 83.7892 114.886C83.4743 114.743 83.2124 114.526 83.0036 114.234C82.7981 113.943 82.6954 113.575 82.6954 113.131V105.534ZM87.8243 115V107.364H88.9976V115H87.8243ZM88.4209 106.091C88.1922 106.091 87.995 106.013 87.8293 105.857C87.6669 105.701 87.5857 105.514 87.5857 105.295C87.5857 105.077 87.6669 104.889 87.8293 104.734C87.995 104.578 88.1922 104.5 88.4209 104.5C88.6496 104.5 88.8451 104.578 89.0075 104.734C89.1732 104.889 89.2561 105.077 89.2561 105.295C89.2561 105.514 89.1732 105.701 89.0075 105.857C88.8451 106.013 88.6496 106.091 88.4209 106.091ZM92.8799 110.406V115H91.7066V107.364H92.8401V108.557H92.9395C93.1185 108.169 93.3903 107.857 93.7549 107.622C94.1194 107.384 94.5901 107.264 95.1668 107.264C95.6838 107.264 96.1362 107.37 96.524 107.582C96.9118 107.791 97.2134 108.109 97.4289 108.537C97.6443 108.961 97.752 109.498 97.752 110.148V115H96.5787V110.227C96.5787 109.627 96.4229 109.16 96.1114 108.825C95.7998 108.487 95.3723 108.318 94.8287 108.318C94.4542 108.318 94.1194 108.399 93.8245 108.562C93.5328 108.724 93.3024 108.961 93.1334 109.273C92.9644 109.584 92.8799 109.962 92.8799 110.406ZM103.538 118.023C102.972 118.023 102.484 117.95 102.077 117.804C101.669 117.661 101.329 117.473 101.058 117.237C100.789 117.005 100.575 116.757 100.416 116.491L101.351 115.835C101.457 115.974 101.591 116.134 101.754 116.312C101.916 116.495 102.138 116.652 102.42 116.785C102.705 116.921 103.078 116.989 103.538 116.989C104.155 116.989 104.664 116.839 105.065 116.541C105.466 116.243 105.666 115.776 105.666 115.139V113.588H105.567C105.481 113.727 105.358 113.9 105.199 114.105C105.043 114.307 104.818 114.488 104.523 114.647C104.231 114.803 103.837 114.881 103.34 114.881C102.723 114.881 102.17 114.735 101.679 114.443C101.192 114.152 100.806 113.727 100.521 113.17C100.239 112.614 100.098 111.937 100.098 111.142C100.098 110.36 100.236 109.679 100.511 109.099C100.786 108.515 101.169 108.065 101.659 107.746C102.15 107.425 102.716 107.264 103.359 107.264C103.857 107.264 104.251 107.347 104.543 107.513C104.838 107.675 105.063 107.861 105.219 108.07C105.378 108.275 105.501 108.444 105.587 108.577H105.706V107.364H106.84V115.219C106.84 115.875 106.69 116.409 106.392 116.82C106.097 117.234 105.699 117.537 105.199 117.729C104.702 117.925 104.148 118.023 103.538 118.023ZM103.499 113.827C103.969 113.827 104.367 113.719 104.692 113.504C105.017 113.288 105.264 112.978 105.433 112.574C105.602 112.17 105.686 111.686 105.686 111.122C105.686 110.572 105.603 110.086 105.438 109.665C105.272 109.245 105.027 108.915 104.702 108.676C104.377 108.437 103.976 108.318 103.499 108.318C103.001 108.318 102.587 108.444 102.256 108.696C101.928 108.948 101.681 109.286 101.515 109.71C101.353 110.134 101.271 110.605 101.271 111.122C101.271 111.652 101.354 112.121 101.52 112.529C101.689 112.933 101.938 113.252 102.266 113.484C102.597 113.712 103.008 113.827 103.499 113.827Z" fill="white"/>
<rect x="487.5" y="1.5" width="161" height="161" rx="80.5" stroke="url(#paint3_linear_1739_1121)" stroke-width="3"/>
<path d="M565.597 55.4L560.397 60.6M561.331 63C561.331 64.8409 559.838 66.3333 557.997 66.3333C556.156 66.3333 554.664 64.8409 554.664 63C554.664 61.159 556.156 59.6666 557.997 59.6666C559.838 59.6666 561.331 61.159 561.331 63ZM561.331 63H574.664M574.664 63C574.664 64.8409 576.156 66.3333 577.997 66.3333C579.838 66.3333 581.331 64.8409 581.331 63C581.331 61.159 579.838 59.6666 577.997 59.6666C576.156 59.6666 574.664 61.159 574.664 63ZM570.397 70.6L575.597 65.4M571.331 53C571.331 54.8409 569.838 56.3333 567.997 56.3333C566.156 56.3333 564.664 54.8409 564.664 53C564.664 51.159 566.156 49.6666 567.997 49.6666C569.838 49.6666 571.331 51.159 571.331 53ZM571.331 73C571.331 74.8409 569.838 76.3333 567.997 76.3333C566.156 76.3333 564.664 74.8409 564.664 73C564.664 71.159 566.156 69.6666 567.997 69.6666C569.838 69.6666 571.331 71.159 571.331 73Z" stroke="url(#paint4_linear_1739_1121)" stroke-width="2" stroke-linecap="round" stroke-linejoin="round"/>
<path d="M549.305 94H548.072C547.999 93.6454 547.872 93.3338 547.689 93.0653C547.51 92.7969 547.292 92.5715 547.033 92.3892C546.778 92.2036 546.494 92.0644 546.183 91.9716C545.871 91.8788 545.546 91.8324 545.208 91.8324C544.592 91.8324 544.033 91.9882 543.533 92.2997C543.036 92.6113 542.64 93.0703 542.345 93.6768C542.053 94.2834 541.907 95.0275 541.907 95.9091C541.907 96.7907 542.053 97.5348 542.345 98.1413C542.64 98.7479 543.036 99.2069 543.533 99.5185C544.033 99.83 544.592 99.9858 545.208 99.9858C545.546 99.9858 545.871 99.9394 546.183 99.8466C546.494 99.7538 546.778 99.6162 547.033 99.4339C547.292 99.2483 547.51 99.0213 547.689 98.7528C547.872 98.4811 547.999 98.1695 548.072 97.8182H549.305C549.212 98.3385 549.043 98.8042 548.798 99.2152C548.553 99.6262 548.248 99.9759 547.883 100.264C547.519 100.549 547.109 100.766 546.655 100.915C546.204 101.065 545.722 101.139 545.208 101.139C544.34 101.139 543.568 100.927 542.892 100.503C542.216 100.079 541.684 99.4754 541.296 98.6932C540.908 97.911 540.714 96.983 540.714 95.9091C540.714 94.8352 540.908 93.9072 541.296 93.125C541.684 92.3428 542.216 91.7396 542.892 91.3153C543.568 90.8911 544.34 90.679 545.208 90.679C545.722 90.679 546.204 90.7536 546.655 90.9027C547.109 91.0518 547.519 91.2706 547.883 91.5589C548.248 91.844 548.553 92.192 548.798 92.603C549.043 93.0107 549.212 93.4763 549.305 94ZM554.801 101.159C554.111 101.159 553.506 100.995 552.986 100.667C552.469 100.339 552.065 99.8797 551.773 99.2898C551.485 98.6998 551.34 98.0104 551.34 97.2216C551.34 96.4261 551.485 95.7318 551.773 95.1385C552.065 94.5452 552.469 94.0845 552.986 93.7564C553.506 93.4283 554.111 93.2642 554.801 93.2642C555.49 93.2642 556.093 93.4283 556.61 93.7564C557.131 94.0845 557.535 94.5452 557.823 95.1385C558.115 95.7318 558.261 96.4261 558.261 97.2216C558.261 98.0104 558.115 98.6998 557.823 99.2898C557.535 99.8797 557.131 100.339 556.61 100.667C556.093 100.995 555.49 101.159 554.801 101.159ZM554.801 100.105C555.324 100.105 555.755 99.9709 556.093 99.7024C556.431 99.4339 556.681 99.081 556.844 98.6435C557.006 98.206 557.087 97.732 557.087 97.2216C557.087 96.7112 557.006 96.2356 556.844 95.7947C556.681 95.3539 556.431 94.9976 556.093 94.7259C555.755 94.4541 555.324 94.3182 554.801 94.3182C554.277 94.3182 553.846 94.4541 553.508 94.7259C553.17 94.9976 552.92 95.3539 552.757 95.7947C552.595 96.2356 552.514 96.7112 552.514 97.2216C552.514 97.732 552.595 98.206 552.757 98.6435C552.92 99.081 553.17 99.4339 553.508 99.7024C553.846 99.9709 554.277 100.105 554.801 100.105ZM561.785 96.4062V101H560.612V93.3636H561.745V94.5568H561.845C562.024 94.169 562.296 93.8575 562.66 93.6222C563.025 93.3835 563.495 93.2642 564.072 93.2642C564.589 93.2642 565.041 93.3703 565.429 93.5824C565.817 93.7912 566.119 94.1094 566.334 94.5369C566.55 94.9612 566.657 95.4981 566.657 96.1477V101H565.484V96.2273C565.484 95.6274 565.328 95.16 565.017 94.8253C564.705 94.4872 564.278 94.3182 563.734 94.3182C563.359 94.3182 563.025 94.3994 562.73 94.5618C562.438 94.7242 562.208 94.9612 562.039 95.2727C561.87 95.5843 561.785 95.9621 561.785 96.4062ZM572.682 93.3636V94.358H568.725V93.3636H572.682ZM569.878 91.5341H571.052V98.8125C571.052 99.1439 571.1 99.3925 571.196 99.5582C571.295 99.7206 571.421 99.83 571.574 99.8864C571.729 99.9394 571.893 99.9659 572.066 99.9659C572.195 99.9659 572.301 99.9593 572.384 99.946C572.467 99.9295 572.533 99.9162 572.583 99.9062L572.821 100.96C572.742 100.99 572.631 101.02 572.488 101.05C572.346 101.083 572.165 101.099 571.946 101.099C571.615 101.099 571.29 101.028 570.972 100.886C570.657 100.743 570.395 100.526 570.187 100.234C569.981 99.9427 569.878 99.5748 569.878 99.1307V91.5341ZM578.127 101.159C577.391 101.159 576.756 100.997 576.223 100.672C575.692 100.344 575.283 99.8864 574.995 99.2997C574.71 98.7098 574.567 98.0237 574.567 97.2415C574.567 96.4593 574.71 95.7699 574.995 95.1733C575.283 94.5734 575.684 94.1061 576.198 93.7713C576.715 93.4332 577.318 93.2642 578.008 93.2642C578.405 93.2642 578.798 93.3305 579.186 93.4631C579.574 93.5956 579.927 93.8111 580.245 94.1094C580.563 94.4044 580.816 94.7955 581.005 95.2827C581.194 95.7699 581.289 96.3698 581.289 97.0824V97.5795H575.402V96.5653H580.096C580.096 96.1345 580.009 95.75 579.837 95.4119C579.668 95.0739 579.426 94.8071 579.111 94.6115C578.8 94.416 578.432 94.3182 578.008 94.3182C577.54 94.3182 577.136 94.4342 576.794 94.6662C576.456 94.8949 576.196 95.1932 576.014 95.5611C575.832 95.929 575.74 96.3234 575.74 96.7443V97.4205C575.74 97.9972 575.84 98.486 576.039 98.8871C576.241 99.2848 576.521 99.5881 576.879 99.7969C577.237 100.002 577.653 100.105 578.127 100.105C578.435 100.105 578.714 100.062 578.962 99.9759C579.214 99.8864 579.431 99.7538 579.613 99.5781C579.796 99.3991 579.937 99.1771 580.036 98.9119L581.169 99.2301C581.05 99.6146 580.85 99.9527 580.568 100.244C580.286 100.533 579.938 100.758 579.524 100.92C579.11 101.08 578.644 101.159 578.127 101.159ZM584.304 93.3636L586.133 96.4858L587.963 93.3636H589.315L586.849 97.1818L589.315 101H587.963L586.133 98.0369L584.304 101H582.951L585.377 97.1818L582.951 93.3636H584.304ZM594.87 93.3636V94.358H590.913V93.3636H594.87ZM592.066 91.5341H593.239V98.8125C593.239 99.1439 593.287 99.3925 593.384 99.5582C593.483 99.7206 593.609 99.83 593.761 99.8864C593.917 99.9394 594.081 99.9659 594.254 99.9659C594.383 99.9659 594.489 99.9593 594.572 99.946C594.655 99.9295 594.721 99.9162 594.771 99.9062L595.009 100.96C594.93 100.99 594.819 101.02 594.676 101.05C594.534 101.083 594.353 101.099 594.134 101.099C593.803 101.099 593.478 101.028 593.16 100.886C592.845 100.743 592.583 100.526 592.374 100.234C592.169 99.9427 592.066 99.5748 592.066 99.1307V91.5341ZM529.46 104.818V115H528.227V104.818H529.46ZM533.506 110.406V115H532.333V107.364H533.467V108.557H533.566C533.745 108.169 534.017 107.857 534.381 107.622C534.746 107.384 535.217 107.264 535.793 107.264C536.31 107.264 536.763 107.37 537.151 107.582C537.538 107.791 537.84 108.109 538.055 108.537C538.271 108.961 538.379 109.498 538.379 110.148V115H537.205V110.227C537.205 109.627 537.05 109.16 536.738 108.825C536.426 108.487 535.999 108.318 535.455 108.318C535.081 108.318 534.746 108.399 534.451 108.562C534.159 108.724 533.929 108.961 533.76 109.273C533.591 109.584 533.506 109.962 533.506 110.406ZM544.404 107.364V108.358H540.446V107.364H544.404ZM541.6 105.534H542.773V112.812C542.773 113.144 542.821 113.393 542.917 113.558C543.017 113.721 543.143 113.83 543.295 113.886C543.451 113.939 543.615 113.966 543.787 113.966C543.916 113.966 544.022 113.959 544.105 113.946C544.188 113.929 544.254 113.916 544.304 113.906L544.543 114.96C544.463 114.99 544.352 115.02 544.21 115.05C544.067 115.083 543.887 115.099 543.668 115.099C543.336 115.099 543.012 115.028 542.693 114.886C542.379 114.743 542.117 114.526 541.908 114.234C541.702 113.943 541.6 113.575 541.6 113.131V105.534ZM549.848 115.159C549.112 115.159 548.478 114.997 547.944 114.672C547.414 114.344 547.004 113.886 546.716 113.3C546.431 112.71 546.289 112.024 546.289 111.241C546.289 110.459 546.431 109.77 546.716 109.173C547.004 108.573 547.406 108.106 547.919 107.771C548.436 107.433 549.04 107.264 549.729 107.264C550.127 107.264 550.519 107.33 550.907 107.463C551.295 107.596 551.648 107.811 551.966 108.109C552.284 108.404 552.538 108.795 552.727 109.283C552.916 109.77 553.01 110.37 553.01 111.082V111.58H547.124V110.565H551.817C551.817 110.134 551.731 109.75 551.558 109.412C551.389 109.074 551.147 108.807 550.833 108.612C550.521 108.416 550.153 108.318 549.729 108.318C549.262 108.318 548.857 108.434 548.516 108.666C548.178 108.895 547.918 109.193 547.735 109.561C547.553 109.929 547.462 110.323 547.462 110.744V111.42C547.462 111.997 547.561 112.486 547.76 112.887C547.962 113.285 548.242 113.588 548.6 113.797C548.958 114.002 549.374 114.105 549.848 114.105C550.156 114.105 550.435 114.062 550.683 113.976C550.935 113.886 551.152 113.754 551.335 113.578C551.517 113.399 551.658 113.177 551.757 112.912L552.891 113.23C552.772 113.615 552.571 113.953 552.289 114.244C552.008 114.533 551.66 114.758 551.245 114.92C550.831 115.08 550.365 115.159 549.848 115.159ZM556.528 104.818V115H555.355V104.818H556.528ZM560.411 104.818V115H559.237V104.818H560.411ZM563.119 115V107.364H564.293V115H563.119ZM563.716 106.091C563.487 106.091 563.29 106.013 563.124 105.857C562.962 105.701 562.881 105.514 562.881 105.295C562.881 105.077 562.962 104.889 563.124 104.734C563.29 104.578 563.487 104.5 563.716 104.5C563.945 104.5 564.14 104.578 564.303 104.734C564.468 104.889 564.551 105.077 564.551 105.295C564.551 105.514 564.468 105.701 564.303 105.857C564.14 106.013 563.945 106.091 563.716 106.091ZM570.084 118.023C569.517 118.023 569.03 117.95 568.622 117.804C568.215 117.661 567.875 117.473 567.603 117.237C567.335 117.005 567.121 116.757 566.962 116.491L567.897 115.835C568.003 115.974 568.137 116.134 568.299 116.312C568.462 116.495 568.684 116.652 568.966 116.785C569.251 116.921 569.623 116.989 570.084 116.989C570.701 116.989 571.209 116.839 571.61 116.541C572.011 116.243 572.212 115.776 572.212 115.139V113.588H572.113C572.026 113.727 571.904 113.9 571.745 114.105C571.589 114.307 571.363 114.488 571.069 114.647C570.777 114.803 570.382 114.881 569.885 114.881C569.269 114.881 568.715 114.735 568.225 114.443C567.738 114.152 567.351 113.727 567.066 113.17C566.785 112.614 566.644 111.937 566.644 111.142C566.644 110.36 566.781 109.679 567.056 109.099C567.332 108.515 567.714 108.065 568.205 107.746C568.695 107.425 569.262 107.264 569.905 107.264C570.402 107.264 570.797 107.347 571.088 107.513C571.383 107.675 571.609 107.861 571.765 108.07C571.924 108.275 572.046 108.444 572.132 108.577H572.252V107.364H573.385V115.219C573.385 115.875 573.236 116.409 572.938 116.82C572.643 117.234 572.245 117.537 571.745 117.729C571.247 117.925 570.694 118.023 570.084 118.023ZM570.044 113.827C570.515 113.827 570.913 113.719 571.238 113.504C571.562 113.288 571.809 112.978 571.978 112.574C572.147 112.17 572.232 111.686 572.232 111.122C572.232 110.572 572.149 110.086 571.983 109.665C571.818 109.245 571.572 108.915 571.247 108.676C570.923 108.437 570.522 108.318 570.044 108.318C569.547 108.318 569.133 108.444 568.801 108.696C568.473 108.948 568.226 109.286 568.061 109.71C567.898 110.134 567.817 110.605 567.817 111.122C567.817 111.652 567.9 112.121 568.066 112.529C568.235 112.933 568.483 113.252 568.811 113.484C569.143 113.712 569.554 113.827 570.044 113.827ZM579.295 115.159C578.559 115.159 577.924 114.997 577.391 114.672C576.86 114.344 576.451 113.886 576.163 113.3C575.878 112.71 575.735 112.024 575.735 111.241C575.735 110.459 575.878 109.77 576.163 109.173C576.451 108.573 576.852 108.106 577.366 107.771C577.883 107.433 578.486 107.264 579.175 107.264C579.573 107.264 579.966 107.33 580.354 107.463C580.741 107.596 581.094 107.811 581.413 108.109C581.731 108.404 581.984 108.795 582.173 109.283C582.362 109.77 582.457 110.37 582.457 111.082V111.58H576.57V110.565H581.263C581.263 110.134 581.177 109.75 581.005 109.412C580.836 109.074 580.594 108.807 580.279 108.612C579.968 108.416 579.6 108.318 579.175 108.318C578.708 108.318 578.304 108.434 577.962 108.666C577.624 108.895 577.364 109.193 577.182 109.561C576.999 109.929 576.908 110.323 576.908 110.744V111.42C576.908 111.997 577.008 112.486 577.207 112.887C577.409 113.285 577.689 113.588 578.047 113.797C578.405 114.002 578.821 114.105 579.295 114.105C579.603 114.105 579.881 114.062 580.13 113.976C580.382 113.886 580.599 113.754 580.781 113.578C580.964 113.399 581.104 113.177 581.204 112.912L582.337 113.23C582.218 113.615 582.017 113.953 581.736 114.244C581.454 114.533 581.106 114.758 580.692 114.92C580.277 115.08 579.812 115.159 579.295 115.159ZM585.975 110.406V115H584.801V107.364H585.935V108.557H586.034C586.213 108.169 586.485 107.857 586.85 107.622C587.214 107.384 587.685 107.264 588.262 107.264C588.779 107.264 589.231 107.37 589.619 107.582C590.007 107.791 590.308 108.109 590.524 108.537C590.739 108.961 590.847 109.498 590.847 110.148V115H589.674V110.227C589.674 109.627 589.518 109.16 589.206 108.825C588.895 108.487 588.467 108.318 587.924 108.318C587.549 108.318 587.214 108.399 586.919 108.562C586.628 108.724 586.397 108.961 586.228 109.273C586.059 109.584 585.975 109.962 585.975 110.406ZM596.653 115.159C595.937 115.159 595.321 114.99 594.804 114.652C594.287 114.314 593.889 113.848 593.611 113.255C593.332 112.662 593.193 111.984 593.193 111.222C593.193 110.446 593.335 109.762 593.62 109.168C593.909 108.572 594.31 108.106 594.824 107.771C595.341 107.433 595.944 107.264 596.633 107.264C597.17 107.264 597.654 107.364 598.085 107.562C598.516 107.761 598.869 108.04 599.144 108.398C599.419 108.756 599.59 109.173 599.656 109.651H598.483C598.393 109.303 598.194 108.994 597.886 108.726C597.581 108.454 597.17 108.318 596.653 108.318C596.196 108.318 595.795 108.437 595.45 108.676C595.109 108.911 594.842 109.245 594.65 109.675C594.461 110.103 594.366 110.605 594.366 111.182C594.366 111.772 594.459 112.286 594.645 112.723C594.834 113.161 595.099 113.5 595.44 113.742C595.785 113.984 596.189 114.105 596.653 114.105C596.958 114.105 597.235 114.052 597.483 113.946C597.732 113.84 597.942 113.688 598.115 113.489C598.287 113.29 598.41 113.051 598.483 112.773H599.656C599.59 113.223 599.426 113.629 599.164 113.991C598.905 114.349 598.562 114.634 598.135 114.846C597.71 115.055 597.217 115.159 596.653 115.159ZM605.133 115.159C604.397 115.159 603.762 114.997 603.229 114.672C602.698 114.344 602.289 113.886 602.001 113.3C601.716 112.71 601.573 112.024 601.573 111.241C601.573 110.459 601.716 109.77 602.001 109.173C602.289 108.573 602.69 108.106 603.204 107.771C603.721 107.433 604.324 107.264 605.014 107.264C605.411 107.264 605.804 107.33 606.192 107.463C606.58 107.596 606.933 107.811 607.251 108.109C607.569 108.404 607.823 108.795 608.011 109.283C608.2 109.77 608.295 110.37 608.295 111.082V111.58H602.408V110.565H607.102C607.102 110.134 607.015 109.75 606.843 109.412C606.674 109.074 606.432 108.807 606.117 108.612C605.806 108.416 605.438 108.318 605.014 108.318C604.546 108.318 604.142 108.434 603.801 108.666C603.462 108.895 603.202 109.193 603.02 109.561C602.838 109.929 602.747 110.323 602.747 110.744V111.42C602.747 111.997 602.846 112.486 603.045 112.887C603.247 113.285 603.527 113.588 603.885 113.797C604.243 114.002 604.659 114.105 605.133 114.105C605.441 114.105 605.72 114.062 605.968 113.976C606.22 113.886 606.437 113.754 606.619 113.578C606.802 113.399 606.943 113.177 607.042 112.912L608.176 113.23C608.056 113.615 607.856 113.953 607.574 114.244C607.292 114.533 606.944 114.758 606.53 114.92C606.116 115.08 605.65 115.159 605.133 115.159Z" fill="white"/>
<path d="M189 82C189 82 248 103.5 326 103.5C404 103.5 461 82 461 82" stroke="url(#paint5_linear_1739_1121)" stroke-width="2"/>
<path d="M189 248.5C189 248.5 248 227 326 227C404 227 461 248.5 461 248.5" stroke="url(#paint6_linear_1739_1121)" stroke-width="2"/>
<defs>
<linearGradient id="paint0_linear_1739_1121" x1="285.023" y1="165.01" x2="365" y2="165.01" gradientUnits="userSpaceOnUse">
<stop stop-color="#FFA68D"/>
<stop offset="1" stop-color="#FD3A84"/>
</linearGradient>
<linearGradient id="paint1_linear_1739_1121" x1="0.0480547" y1="82.0211" x2="164" y2="82.0211" gradientUnits="userSpaceOnUse">
<stop stop-color="#FFA68D"/>
<stop offset="1" stop-color="#FD3A84"/>
</linearGradient>
<linearGradient id="paint2_linear_1739_1121" x1="68.6719" y1="63.0005" x2="95.3303" y2="63.0005" gradientUnits="userSpaceOnUse">
<stop stop-color="#FFA68D"/>
<stop offset="1" stop-color="#FD3A84"/>
</linearGradient>
<linearGradient id="paint3_linear_1739_1121" x1="486.048" y1="82.0211" x2="650" y2="82.0211" gradientUnits="userSpaceOnUse">
<stop stop-color="#FFA68D"/>
<stop offset="1" stop-color="#FD3A84"/>
</linearGradient>
<linearGradient id="paint4_linear_1739_1121" x1="554.672" y1="63.0034" x2="581.331" y2="63.0034" gradientUnits="userSpaceOnUse">
<stop stop-color="#FFA68D"/>
<stop offset="1" stop-color="#FD3A84"/>
</linearGradient>
<linearGradient id="paint5_linear_1739_1121" x1="189.08" y1="92.7528" x2="461" y2="92.7528" gradientUnits="userSpaceOnUse">
<stop stop-color="#FFA68D"/>
<stop offset="1" stop-color="#FD3A84"/>
</linearGradient>
<linearGradient id="paint6_linear_1739_1121" x1="189.08" y1="237.747" x2="461" y2="237.747" gradientUnits="userSpaceOnUse">
<stop stop-color="#FFA68D"/>
<stop offset="1" stop-color="#FD3A84"/>
</linearGradient>
<clipPath id="clip0_1739_1121">
<rect width="32" height="32" fill="white" transform="translate(309 149)"/>
</clipPath>
</defs>
</svg>
