<svg width="23" height="59" viewBox="0 0 23 59" fill="none" xmlns="http://www.w3.org/2000/svg">
<path d="M11.0469 1.5C8.54688 1.5 6.54688 3.5 6.54688 6C6.54688 8.5 8.54688 10.5 11.0469 10.5C13.5469 10.5 15.5469 8.5 15.5469 6C15.5469 3.5 13.5469 1.5 11.0469 1.5Z" fill="white"/>
<path d="M9.98621 58.0607C10.572 58.6464 11.5217 58.6464 12.1075 58.0607L21.6535 48.5147C22.2393 47.9289 22.2393 46.9792 21.6535 46.3934C21.0677 45.8076 20.1179 45.8076 19.5322 46.3934L11.0469 54.8787L2.56159 46.3934C1.97581 45.8076 1.02606 45.8076 0.440273 46.3934C-0.145513 46.9792 -0.145513 47.9289 0.440273 48.5147L9.98621 58.0607ZM6.54688 6H8.04688C8.04688 4.32843 9.3753 3 11.0469 3V1.5V0C7.71845 0 5.04688 2.67157 5.04688 6H6.54688ZM11.0469 1.5V3C12.7184 3 14.0469 4.32843 14.0469 6H15.5469H17.0469C17.0469 2.67157 14.3753 0 11.0469 0V1.5ZM15.5469 6H14.0469C14.0469 7.67157 12.7184 9 11.0469 9V10.5V12C14.3753 12 17.0469 9.32843 17.0469 6H15.5469ZM11.0469 10.5V9C9.3753 9 8.04688 7.67157 8.04688 6H6.54688H5.04688C5.04688 9.32843 7.71845 12 11.0469 12V10.5ZM11.0469 10.5H9.54688V57H11.0469H12.5469V10.5H11.0469Z" fill="url(#paint0_linear_1386_669)"/>
<defs>
<linearGradient id="paint0_linear_1386_669" x1="6.54951" y1="29.2571" x2="15.5469" y2="29.2571" gradientUnits="userSpaceOnUse">
<stop stop-color="#FFA68D"/>
<stop offset="1" stop-color="#FD3A84"/>
</linearGradient>
</defs>
</svg>
