<svg width="229" height="23" viewBox="0 0 229 23" fill="none" xmlns="http://www.w3.org/2000/svg">
<path d="M6 6.54688C3.5 6.54688 1.5 8.54688 1.5 11.0469C1.5 13.5469 3.5 15.5469 6 15.5469C8.5 15.5469 10.5 13.5469 10.5 11.0469C10.5 8.54688 8.5 6.54688 6 6.54688Z" fill="white"/>
<path d="M228.561 12.1075C229.146 11.5217 229.146 10.572 228.561 9.98621L219.015 0.440273C218.429 -0.145513 217.479 -0.145513 216.893 0.440273C216.308 1.02606 216.308 1.97581 216.893 2.56159L225.379 11.0469L216.893 19.5322C216.308 20.1179 216.308 21.0677 216.893 21.6535C217.479 22.2393 218.429 22.2393 219.015 21.6535L228.561 12.1075ZM1.5 11.0469H3C3 9.3753 4.32843 8.04688 6 8.04688V6.54688V5.04688C2.67157 5.04688 0 7.71845 0 11.0469H1.5ZM6 6.54688V8.04688C7.67157 8.04688 9 9.3753 9 11.0469H10.5H12C12 7.71845 9.32843 5.04688 6 5.04688V6.54688ZM10.5 11.0469H9C9 12.7184 7.67157 14.0469 6 14.0469V15.5469V17.0469C9.32843 17.0469 12 14.3753 12 11.0469H10.5ZM6 15.5469V14.0469C4.32843 14.0469 3 12.7184 3 11.0469H1.5H0C0 14.3753 2.67157 17.0469 6 17.0469V15.5469ZM10.5 11.0469V12.5469H227.5V11.0469V9.54688H10.5V11.0469Z" fill="url(#paint0_linear_1386_1083)"/>
<defs>
<linearGradient id="paint0_linear_1386_1083" x1="1.56622" y1="11.048" x2="227.5" y2="11.048" gradientUnits="userSpaceOnUse">
<stop stop-color="#FFA68D"/>
<stop offset="1" stop-color="#FD3A84"/>
</linearGradient>
</defs>
</svg>
