<svg width="48" height="48" viewBox="0 0 48 48" fill="none" xmlns="http://www.w3.org/2000/svg">
<rect width="48" height="48" rx="4" fill="url(#paint0_linear_2078_438)" fill-opacity="0.15"/>
<path d="M23.9974 26.5332C25.4702 26.5332 26.6641 25.3393 26.6641 23.8665C26.6641 22.3938 25.4702 21.1999 23.9974 21.1999C22.5246 21.1999 21.3307 22.3938 21.3307 23.8665C21.3307 25.3393 22.5246 26.5332 23.9974 26.5332ZM23.9974 26.5332V28.6665M16.9307 12.5332C15.7307 15.8665 16.9307 19.4665 19.8641 21.4665M19.8641 21.4665C16.6641 19.9999 12.9307 20.7999 10.6641 23.4665M19.8641 21.4665L21.7307 22.5332M31.0641 12.5332C32.2641 15.8665 31.0641 19.4665 28.1307 21.4665M28.1307 21.4665C31.3307 19.8665 35.0641 20.6665 37.3307 23.4665M28.1307 21.4665L26.2641 22.5332M30.2641 35.7332C26.7974 35.1999 24.1307 32.2665 23.9974 28.6665M23.9974 28.6665C23.7307 32.1332 21.1974 35.0665 17.7307 35.5999M25.9974 15.1999C24.6641 14.9332 23.3307 14.9332 21.9974 15.1999M30.6641 29.8665C31.5974 28.9332 32.2641 27.7332 32.6641 26.5332M15.3307 26.5332C15.7307 27.7332 16.3974 28.9332 17.3307 29.8665" stroke="url(#paint1_linear_2078_438)" stroke-width="2" stroke-linecap="round" stroke-linejoin="round"/>
<defs>
<linearGradient id="paint0_linear_2078_438" x1="0.0140648" y1="24.0062" x2="48" y2="24.0062" gradientUnits="userSpaceOnUse">
<stop stop-color="#FFA68D"/>
<stop offset="1" stop-color="#FD3A84"/>
</linearGradient>
<linearGradient id="paint1_linear_2078_438" x1="10.6719" y1="24.1362" x2="37.3307" y2="24.1362" gradientUnits="userSpaceOnUse">
<stop stop-color="#FFA68D"/>
<stop offset="1" stop-color="#FD3A84"/>
</linearGradient>
</defs>
</svg>
