<svg width="29" height="29" viewBox="0 0 29 29" fill="none" xmlns="http://www.w3.org/2000/svg">
<path d="M14.3982 21.6001V6.00006M14.3982 21.6001C14.3989 22.2562 14.5341 22.9051 14.7955 23.5069C15.0568 24.1087 15.4388 24.6506 15.9177 25.099C16.3967 25.5474 16.9625 25.8928 17.5802 26.114C18.1979 26.3352 18.8543 26.4273 19.5091 26.3849C20.1638 26.3424 20.8028 26.1661 21.3868 25.867C21.9707 25.5678 22.4871 25.1521 22.9041 24.6456C23.3211 24.1391 23.6298 23.5524 23.8112 22.9219C23.9925 22.2914 24.0427 21.6303 23.9586 20.9797M14.3982 21.6001C14.3975 22.2562 14.2623 22.9051 14.001 23.5069C13.7396 24.1087 13.3577 24.6506 12.8787 25.099C12.3998 25.5474 11.834 25.8928 11.2163 26.114C10.5986 26.3352 9.94212 26.4273 9.2874 26.3849C8.63268 26.3424 7.99362 26.1661 7.40969 25.867C6.82576 25.5678 6.30936 25.1521 5.89237 24.6456C5.47538 24.1391 5.16667 23.5524 4.98529 22.9219C4.80392 22.2914 4.75373 21.6303 4.83783 20.9797M14.3982 6.00006C14.3982 5.44785 14.5252 4.90304 14.7694 4.40777C15.0137 3.9125 15.3685 3.48005 15.8066 3.14387C16.2447 2.8077 16.7543 2.57682 17.2959 2.46908C17.8375 2.36135 18.3966 2.37965 18.93 2.52257C19.4634 2.6655 19.9567 2.92921 20.3719 3.29332C20.7871 3.65742 21.1129 4.11215 21.3242 4.62233C21.5355 5.13251 21.6266 5.68447 21.5905 6.23549C21.5544 6.78652 21.392 7.32185 21.1158 7.80006M14.3982 6.00006C14.3983 5.44785 14.2712 4.90304 14.027 4.40777C13.7828 3.9125 13.4279 3.48005 12.9898 3.14387C12.5517 2.8077 12.0422 2.57682 11.5006 2.46908C10.959 2.36135 10.3999 2.37965 9.86647 2.52257C9.33307 2.6655 8.83971 2.92921 8.42454 3.29332C8.00937 3.65742 7.68353 4.11215 7.47222 4.62233C7.26092 5.13251 7.16981 5.68447 7.20595 6.23549C7.24208 6.78652 7.4045 7.32185 7.68063 7.80006M17.9982 15.6001C16.96 15.2966 16.048 14.6648 15.399 13.7995C14.75 12.9341 14.3989 11.8818 14.3982 10.8001C14.3976 11.8818 14.0464 12.9341 13.3974 13.7995C12.7484 14.6648 11.8365 15.2966 10.7982 15.6001M21.5946 6.15006C22.3 6.33142 22.9548 6.67092 23.5095 7.14283C24.0643 7.61475 24.5043 8.20671 24.7964 8.87388C25.0885 9.54105 25.2249 10.2659 25.1954 10.9936C25.1658 11.7213 24.971 12.4328 24.6258 13.0741M21.5982 21.6001C22.6548 21.6 23.6819 21.2513 24.5201 20.6081C25.3584 19.9649 25.961 19.063 26.2345 18.0424C26.5079 17.0218 26.437 15.9395 26.0327 14.9633C25.6284 13.9871 24.9132 13.1716 23.9982 12.6433M7.19823 21.6001C6.14162 21.6 5.11456 21.2513 4.27631 20.6081C3.43806 19.9649 2.83547 19.063 2.562 18.0424C2.28853 17.0218 2.35945 15.9395 2.76377 14.9633C3.16809 13.9871 3.88321 13.1716 4.79823 12.6433M7.20183 6.15006C6.49647 6.33142 5.84163 6.67092 5.2869 7.14283C4.73218 7.61475 4.29212 8.20671 4.00004 8.87388C3.70797 9.54105 3.57154 10.2659 3.60109 10.9936C3.63065 11.7213 3.82541 12.4328 4.17063 13.0741" stroke="url(#paint0_linear_1739_1082)" stroke-width="2.4" stroke-linecap="round" stroke-linejoin="round"/>
<defs>
<linearGradient id="paint0_linear_1739_1082" x1="2.40547" y1="14.4005" x2="26.398" y2="14.4005" gradientUnits="userSpaceOnUse">
<stop stop-color="#FFA68D"/>
<stop offset="1" stop-color="#FD3A84"/>
</linearGradient>
</defs>
</svg>
