<svg width="1144" height="290" viewBox="0 0 1144 290" fill="none" xmlns="http://www.w3.org/2000/svg">
<rect x="76" y="142" width="64" height="64" rx="32" fill="url(#paint0_linear_1386_963)"/>
<path d="M103.998 163.334H111.998M111.998 172.667C111.998 173.021 112.139 173.36 112.389 173.61C112.639 173.86 112.978 174.001 113.332 174.001H117.25C117.552 173.942 117.865 173.989 118.136 174.135C118.407 174.28 118.62 174.515 118.737 174.799C118.855 175.083 118.871 175.4 118.782 175.694C118.693 175.989 118.505 176.243 118.25 176.415L109.137 185.53C108.987 185.679 108.81 185.798 108.615 185.879C108.42 185.96 108.21 186.001 107.999 186.001C107.788 186.001 107.578 185.96 107.383 185.879C107.188 185.798 107.01 185.679 106.861 185.53L97.7449 176.414C97.4897 176.242 97.3018 175.987 97.213 175.693C97.1242 175.398 97.14 175.082 97.2577 174.798C97.3754 174.514 97.5878 174.279 97.8589 174.133C98.1299 173.988 98.443 173.94 98.7449 173.999H102.665C103.019 173.999 103.358 173.859 103.608 173.609C103.858 173.359 103.998 173.02 103.998 172.666V170.001C103.998 169.647 104.139 169.308 104.389 169.058C104.639 168.808 104.978 168.667 105.332 168.667H110.665C111.019 168.667 111.358 168.808 111.608 169.058C111.858 169.308 111.998 169.647 111.998 170.001V172.667Z" stroke="white" stroke-width="2" stroke-linecap="round" stroke-linejoin="round"/>
<path d="M1.46 177V163H6.2C7.50667 163 8.61333 163.24 9.52 163.72C10.4267 164.187 11.1067 164.853 11.56 165.72C12.0267 166.587 12.26 167.607 12.26 168.78C12.26 169.953 12.0267 170.973 11.56 171.84C11.1067 172.707 10.4267 173.38 9.52 173.86C8.61333 174.327 7.50667 174.56 6.2 174.56H3.46V177H1.46ZM3.46 172.98H6.2C7.01333 172.98 7.7 172.833 8.26 172.54C8.83333 172.247 9.26667 171.827 9.56 171.28C9.86667 170.733 10.02 170.093 10.02 169.36V168.2C10.02 167.467 9.86667 166.827 9.56 166.28C9.26667 165.733 8.83333 165.313 8.26 165.02C7.7 164.727 7.01333 164.58 6.2 164.58H3.46V172.98ZM16.9202 177.24C15.9602 177.24 15.1068 177.02 14.3602 176.58C13.6135 176.14 13.0268 175.527 12.6002 174.74C12.1868 173.953 11.9802 173.04 11.9802 172C11.9802 170.933 12.1868 170.007 12.6002 169.22C13.0268 168.42 13.6135 167.8 14.3602 167.36C15.1068 166.907 15.9735 166.68 16.9602 166.68C17.9468 166.68 18.7935 166.9 19.5002 167.34C20.2068 167.78 20.7535 168.367 21.1402 169.1C21.5268 169.82 21.7202 170.62 21.7202 171.5C21.7202 171.633 21.7135 171.78 21.7002 171.94C21.7002 172.087 21.6935 172.253 21.6802 172.44H13.4402V171.02H19.7202C19.6802 170.18 19.4002 169.527 18.8802 169.06C18.3602 168.58 17.7135 168.34 16.9402 168.34C16.3935 168.34 15.8935 168.467 15.4402 168.72C14.9868 168.96 14.6202 169.32 14.3402 169.8C14.0735 170.267 13.9402 170.86 13.9402 171.58V172.14C13.9402 172.887 14.0735 173.52 14.3402 174.04C14.6202 174.547 14.9868 174.933 15.4402 175.2C15.8935 175.453 16.3868 175.58 16.9202 175.58C17.5602 175.58 18.0868 175.44 18.5002 175.16C18.9135 174.88 19.2202 174.5 19.4202 174.02H21.4202C21.2468 174.633 20.9535 175.187 20.5402 175.68C20.1268 176.16 19.6135 176.54 19.0002 176.82C18.4002 177.1 17.7068 177.24 16.9202 177.24ZM28.2422 181.64C27.3222 181.64 26.5088 181.52 25.8022 181.28C25.0955 181.053 24.5488 180.7 24.1622 180.22C23.7755 179.74 23.5822 179.153 23.5822 178.46C23.5822 178.1 23.6622 177.733 23.8222 177.36C23.9822 177 24.2422 176.653 24.6022 176.32C24.9622 175.987 25.4488 175.687 26.0622 175.42L27.1822 176.32C26.5022 176.573 26.0422 176.873 25.8022 177.22C25.5755 177.58 25.4622 177.927 25.4622 178.26C25.4622 178.66 25.5822 178.993 25.8222 179.26C26.0622 179.527 26.3888 179.727 26.8022 179.86C27.2288 179.993 27.7088 180.06 28.2422 180.06C28.7622 180.06 29.2155 179.987 29.6022 179.84C29.9888 179.693 30.2888 179.487 30.5022 179.22C30.7155 178.953 30.8222 178.64 30.8222 178.28C30.8222 177.853 30.6622 177.493 30.3422 177.2C30.0222 176.92 29.4088 176.753 28.5022 176.7C27.7422 176.647 27.0955 176.573 26.5622 176.48C26.0422 176.387 25.5955 176.273 25.2222 176.14C24.8622 176.007 24.5555 175.86 24.3022 175.7C24.0622 175.54 23.8555 175.373 23.6822 175.2V174.74L25.6822 172.68L27.3022 173.24L25.1222 175.26L25.5422 174.36C25.6888 174.453 25.8288 174.547 25.9622 174.64C26.0955 174.72 26.2755 174.793 26.5022 174.86C26.7288 174.927 27.0355 174.987 27.4222 175.04C27.8088 175.093 28.3155 175.147 28.9422 175.2C29.8488 175.267 30.5755 175.427 31.1222 175.68C31.6822 175.933 32.0888 176.273 32.3422 176.7C32.5955 177.127 32.7222 177.633 32.7222 178.22C32.7222 178.793 32.5622 179.34 32.2422 179.86C31.9355 180.38 31.4488 180.807 30.7822 181.14C30.1288 181.473 29.2822 181.64 28.2422 181.64ZM28.2422 173.9C27.3888 173.9 26.6622 173.74 26.0622 173.42C25.4755 173.1 25.0222 172.667 24.7022 172.12C24.3955 171.573 24.2422 170.967 24.2422 170.3C24.2422 169.62 24.3955 169.013 24.7022 168.48C25.0222 167.933 25.4822 167.5 26.0822 167.18C26.6822 166.847 27.4022 166.68 28.2422 166.68C29.0822 166.68 29.7955 166.847 30.3822 167.18C30.9822 167.5 31.4355 167.933 31.7422 168.48C32.0622 169.013 32.2222 169.62 32.2222 170.3C32.2222 170.967 32.0622 171.573 31.7422 172.12C31.4355 172.667 30.9822 173.1 30.3822 173.42C29.7955 173.74 29.0822 173.9 28.2422 173.9ZM28.2422 172.3C28.8955 172.3 29.4155 172.133 29.8022 171.8C30.1888 171.453 30.3822 170.953 30.3822 170.3C30.3822 169.647 30.1888 169.153 29.8022 168.82C29.4155 168.473 28.8955 168.3 28.2422 168.3C27.5888 168.3 27.0622 168.473 26.6622 168.82C26.2622 169.153 26.0622 169.647 26.0622 170.3C26.0622 170.953 26.2622 171.453 26.6622 171.8C27.0622 172.133 27.5888 172.3 28.2422 172.3ZM29.8822 168.5L29.4022 166.92H33.5422V168.3L29.8822 168.5ZM38.7978 177.24C37.9445 177.24 37.1978 177.02 36.5578 176.58C35.9311 176.14 35.4445 175.527 35.0978 174.74C34.7511 173.94 34.5778 173.02 34.5778 171.98C34.5778 170.927 34.7578 170.007 35.1178 169.22C35.4911 168.42 36.0045 167.8 36.6578 167.36C37.3111 166.907 38.0711 166.68 38.9378 166.68C39.8178 166.68 40.5645 166.9 41.1778 167.34C41.7911 167.767 42.2511 168.327 42.5578 169.02C42.8778 169.713 43.0378 170.447 43.0378 171.22V171.8H41.0978V171.2C41.0978 170.333 40.8711 169.64 40.4178 169.12C39.9778 168.6 39.3645 168.34 38.5778 168.34C37.7911 168.34 37.1645 168.62 36.6978 169.18C36.2311 169.74 35.9978 170.567 35.9978 171.66V172.3C35.9978 173.393 36.2311 174.22 36.6978 174.78C37.1645 175.34 37.7911 175.62 38.5778 175.62C39.3645 175.62 39.9778 175.36 40.4178 174.84C40.8711 174.32 41.0978 173.627 41.0978 172.76V172.16H43.0378V172.74C43.0378 173.513 42.8778 174.247 42.5578 174.94C42.2511 175.633 41.7911 176.193 41.1778 176.62C40.5645 177.033 39.7911 177.24 38.8578 177.24H38.7978ZM35.1178 171.8V170.4H42.5578V171.8H35.1178ZM49.3625 177.24C48.5092 177.24 47.7625 177.1 47.1225 176.82C46.4825 176.54 45.9758 176.147 45.6025 175.64C45.2292 175.133 45.0025 174.54 44.9225 173.86H46.9625C47.0292 174.18 47.1558 174.473 47.3425 174.74C47.5425 175.007 47.8092 175.22 48.1425 175.38C48.4892 175.54 48.8958 175.62 49.3625 175.62C49.8025 175.62 50.1625 175.56 50.4425 175.44C50.7358 175.307 50.9492 175.133 51.0825 174.92C51.2158 174.693 51.2825 174.453 51.2825 174.2C51.2825 173.827 51.1892 173.547 51.0025 173.36C50.8292 173.16 50.5625 173.007 50.2025 172.9C49.8558 172.78 49.4358 172.673 48.9425 172.58C48.4758 172.5 48.0225 172.393 47.5825 172.26C47.1558 172.113 46.7692 171.933 46.4225 171.72C46.0892 171.507 45.8225 171.24 45.6225 170.92C45.4225 170.587 45.3225 170.18 45.3225 169.7C45.3225 169.127 45.4758 168.613 45.7825 168.16C46.0892 167.693 46.5225 167.333 47.0825 167.08C47.6558 166.813 48.3292 166.68 49.1025 166.68C50.2225 166.68 51.1225 166.947 51.8025 167.48C52.4825 168.013 52.8825 168.767 53.0025 169.74H51.0625C51.0092 169.287 50.8092 168.94 50.4625 168.7C50.1158 168.447 49.6558 168.32 49.0825 168.32C48.5092 168.32 48.0692 168.433 47.7625 168.66C47.4558 168.887 47.3025 169.187 47.3025 169.56C47.3025 169.8 47.3892 170.013 47.5625 170.2C47.7358 170.387 47.9892 170.547 48.3225 170.68C48.6692 170.8 49.0892 170.913 49.5825 171.02C50.2892 171.153 50.9225 171.32 51.4825 171.52C52.0425 171.72 52.4892 172.013 52.8225 172.4C53.1558 172.787 53.3225 173.34 53.3225 174.06C53.3358 174.687 53.1758 175.24 52.8425 175.72C52.5225 176.2 52.0625 176.573 51.4625 176.84C50.8758 177.107 50.1758 177.24 49.3625 177.24ZM59.8272 177C59.1872 177 58.6339 176.9 58.1672 176.7C57.7005 176.5 57.3405 176.167 57.0872 175.7C56.8339 175.233 56.7072 174.6 56.7072 173.8V168.62H54.9672V166.92H56.7072L56.9472 164.4H58.7072V166.92H61.5672V168.62H58.7072V173.82C58.7072 174.393 58.8272 174.787 59.0672 175C59.3072 175.2 59.7205 175.3 60.3072 175.3H61.4672V177H59.8272Z" fill="white"/>
<rect x="220" y="62" width="64" height="64" rx="32" fill="url(#paint1_linear_1386_963)"/>
<path d="M264 84.666C264 86.8752 258.627 88.666 252 88.666C245.373 88.666 240 86.8752 240 84.666M264 84.666C264 82.4569 258.627 80.666 252 80.666C245.373 80.666 240 82.4569 240 84.666M264 84.666V103.333C264 104.394 262.736 105.411 260.485 106.161C258.235 106.911 255.183 107.333 252 107.333C248.817 107.333 245.765 106.911 243.515 106.161C241.264 105.411 240 104.394 240 103.333V84.666M240 93.9993C240 95.0602 241.264 96.0776 243.515 96.8278C245.765 97.5779 248.817 97.9993 252 97.9993C255.183 97.9993 258.235 97.5779 260.485 96.8278C262.736 96.0776 264 95.0602 264 93.9993" stroke="white" stroke-width="2" stroke-linecap="round" stroke-linejoin="round"/>
<path d="M213.46 31V17H215.82L220.56 26.46L225.28 17H227.66V31H225.66V20.5L221.32 29.04H219.78L215.46 20.52V31H213.46ZM235.429 31.24C234.469 31.24 233.616 31.02 232.869 30.58C232.123 30.14 231.536 29.5267 231.109 28.74C230.696 27.9533 230.489 27.04 230.489 26C230.489 24.9333 230.696 24.0067 231.109 23.22C231.536 22.42 232.123 21.8 232.869 21.36C233.616 20.9067 234.483 20.68 235.469 20.68C236.456 20.68 237.303 20.9 238.009 21.34C238.716 21.78 239.263 22.3667 239.649 23.1C240.036 23.82 240.229 24.62 240.229 25.5C240.229 25.6333 240.223 25.78 240.209 25.94C240.209 26.0867 240.203 26.2533 240.189 26.44H231.949V25.02H238.229C238.189 24.18 237.909 23.5267 237.389 23.06C236.869 22.58 236.223 22.34 235.449 22.34C234.903 22.34 234.403 22.4667 233.949 22.72C233.496 22.96 233.129 23.32 232.849 23.8C232.583 24.2667 232.449 24.86 232.449 25.58V26.14C232.449 26.8867 232.583 27.52 232.849 28.04C233.129 28.5467 233.496 28.9333 233.949 29.2C234.403 29.4533 234.896 29.58 235.429 29.58C236.069 29.58 236.596 29.44 237.009 29.16C237.423 28.88 237.729 28.5 237.929 28.02H239.929C239.756 28.6333 239.463 29.1867 239.049 29.68C238.636 30.16 238.123 30.54 237.509 30.82C236.909 31.1 236.216 31.24 235.429 31.24ZM242.851 31V20.92H244.651L244.791 22.34C245.111 21.82 245.538 21.4133 246.071 21.12C246.605 20.8267 247.205 20.68 247.871 20.68C248.378 20.68 248.838 20.7533 249.251 20.9C249.665 21.0333 250.031 21.24 250.351 21.52C250.671 21.8 250.931 22.1467 251.131 22.56C251.491 21.9733 251.971 21.5133 252.571 21.18C253.185 20.8467 253.831 20.68 254.511 20.68C255.325 20.68 256.025 20.8467 256.611 21.18C257.198 21.5 257.645 21.9867 257.951 22.64C258.258 23.28 258.411 24.08 258.411 25.04V31H256.431V25.24C256.431 24.3067 256.238 23.6 255.851 23.12C255.478 22.64 254.925 22.4 254.191 22.4C253.698 22.4 253.258 22.5267 252.871 22.78C252.485 23.0333 252.178 23.4 251.951 23.88C251.738 24.36 251.631 24.9467 251.631 25.64V31H249.631V25.24C249.631 24.3067 249.438 23.6 249.051 23.12C248.678 22.64 248.125 22.4 247.391 22.4C246.925 22.4 246.498 22.5267 246.111 22.78C245.725 23.0333 245.418 23.4 245.191 23.88C244.965 24.36 244.851 24.9467 244.851 25.64V31H242.851ZM265.996 31.24C265.049 31.24 264.196 31.02 263.436 30.58C262.689 30.14 262.096 29.5267 261.656 28.74C261.229 27.94 261.016 27.02 261.016 25.98C261.016 24.9133 261.236 23.9867 261.676 23.2C262.116 22.4 262.716 21.78 263.476 21.34C264.236 20.9 265.089 20.68 266.036 20.68C266.996 20.68 267.849 20.9 268.596 21.34C269.343 21.78 269.929 22.3933 270.356 23.18C270.796 23.9667 271.016 24.8933 271.016 25.96C271.016 27.0267 270.796 27.9533 270.356 28.74C269.929 29.5267 269.336 30.14 268.576 30.58C267.816 31.02 266.956 31.24 265.996 31.24ZM265.996 29.52C266.543 29.52 267.036 29.3867 267.476 29.12C267.929 28.8533 268.289 28.46 268.556 27.94C268.836 27.4067 268.976 26.7467 268.976 25.96C268.976 25.1733 268.843 24.52 268.576 24C268.309 23.4667 267.949 23.0667 267.496 22.8C267.056 22.5333 266.569 22.4 266.036 22.4C265.503 22.4 265.009 22.5333 264.556 22.8C264.103 23.0667 263.736 23.4667 263.456 24C263.189 24.52 263.056 25.1733 263.056 25.96C263.056 26.7467 263.189 27.4067 263.456 27.94C263.736 28.46 264.096 28.8533 264.536 29.12C264.989 29.3867 265.476 29.52 265.996 29.52ZM273.769 31V20.92H275.569L275.749 22.82C275.975 22.3667 276.269 21.9867 276.629 21.68C276.989 21.36 277.409 21.1133 277.889 20.94C278.382 20.7667 278.942 20.68 279.569 20.68V22.8H278.849C278.435 22.8 278.042 22.8533 277.669 22.96C277.295 23.0533 276.962 23.22 276.669 23.46C276.389 23.7 276.169 24.0267 276.009 24.44C275.849 24.8533 275.769 25.3667 275.769 25.98V31H273.769ZM282.965 35.4L285.425 29.88H284.845L280.865 20.92H283.025L286.185 28.24L289.365 20.92H291.465L285.065 35.4H282.965Z" fill="white"/>
<rect x="655" y="186" width="64" height="64" rx="32" fill="url(#paint2_linear_1386_963)"/>
<path d="M683 227.333C683 229.542 681.209 231.333 679 231.333C676.791 231.333 675 229.542 675 227.333C675 225.124 676.791 223.333 679 223.333C681.209 223.333 683 225.124 683 227.333ZM683 227.333H694.333C695.571 227.333 696.758 226.841 697.633 225.966C698.508 225.091 699 223.904 699 222.666C699 221.428 698.508 220.241 697.633 219.366C696.758 218.491 695.571 217.999 694.333 217.999H679.667C678.429 217.999 677.242 217.508 676.367 216.633C675.492 215.757 675 214.57 675 213.333C675 212.095 675.492 210.908 676.367 210.033C677.242 209.158 678.429 208.666 679.667 208.666H691M691 208.666C691 210.875 692.791 212.666 695 212.666C697.209 212.666 699 210.875 699 208.666C699 206.457 697.209 204.666 695 204.666C692.791 204.666 691 206.457 691 208.666Z" stroke="white" stroke-width="2" stroke-linecap="round" stroke-linejoin="round"/>
<rect x="932" y="186" width="64" height="64" rx="32" fill="url(#paint3_linear_1386_963)"/>
<path d="M975.119 210.645C976.558 212.82 977.327 215.368 977.332 217.975C977.338 220.582 976.579 223.133 975.149 225.313C973.72 227.493 971.683 229.207 969.29 230.241C966.897 231.276 964.253 231.586 961.686 231.133M952.876 225.355C951.438 223.18 950.669 220.631 950.664 218.024C950.659 215.416 951.419 212.865 952.85 210.685C954.28 208.505 956.318 206.792 958.712 205.758C961.106 204.725 963.75 204.416 966.318 204.869M967.998 218C967.998 220.209 966.207 222 963.998 222C961.789 222 959.998 220.209 959.998 218C959.998 215.791 961.789 214 963.998 214C966.207 214 967.998 215.791 967.998 218ZM975.998 208.667C975.998 210.14 974.804 211.333 973.331 211.333C971.858 211.333 970.664 210.14 970.664 208.667C970.664 207.194 971.858 206 973.331 206C974.804 206 975.998 207.194 975.998 208.667ZM957.331 227.333C957.331 228.806 956.137 230 954.664 230C953.192 230 951.998 228.806 951.998 227.333C951.998 225.861 953.192 224.667 954.664 224.667C956.137 224.667 957.331 225.861 957.331 227.333Z" stroke="white" stroke-width="2" stroke-linecap="round" stroke-linejoin="round"/>
<path d="M907.76 285.24C906.413 285.24 905.227 284.94 904.2 284.34C903.187 283.727 902.387 282.88 901.8 281.8C901.227 280.707 900.94 279.44 900.94 278C900.94 276.573 901.227 275.32 901.8 274.24C902.387 273.147 903.187 272.293 904.2 271.68C905.227 271.067 906.413 270.76 907.76 270.76C909.133 270.76 910.333 271.067 911.36 271.68C912.387 272.293 913.18 273.147 913.74 274.24C914.313 275.32 914.6 276.573 914.6 278C914.6 279.44 914.313 280.707 913.74 281.8C913.18 282.88 912.387 283.727 911.36 284.34C910.333 284.94 909.133 285.24 907.76 285.24ZM907.78 283.46C908.74 283.46 909.58 283.24 910.3 282.8C911.02 282.36 911.573 281.733 911.96 280.92C912.36 280.107 912.56 279.133 912.56 278C912.56 276.867 912.36 275.893 911.96 275.08C911.573 274.267 911.02 273.647 910.3 273.22C909.58 272.78 908.74 272.56 907.78 272.56C906.82 272.56 905.98 272.78 905.26 273.22C904.54 273.647 903.98 274.267 903.58 275.08C903.18 275.893 902.98 276.867 902.98 278C902.98 279.133 903.18 280.107 903.58 280.92C903.98 281.733 904.54 282.36 905.26 282.8C905.98 283.24 906.82 283.46 907.78 283.46ZM917.307 285V274.92H919.107L919.287 276.82C919.514 276.367 919.807 275.987 920.167 275.68C920.527 275.36 920.947 275.113 921.427 274.94C921.92 274.767 922.48 274.68 923.107 274.68V276.8H922.387C921.974 276.8 921.58 276.853 921.207 276.96C920.834 277.053 920.5 277.22 920.207 277.46C919.927 277.7 919.707 278.027 919.547 278.44C919.387 278.853 919.307 279.367 919.307 279.98V285H917.307ZM929.711 285.24C928.737 285.24 927.871 285.02 927.111 284.58C926.351 284.127 925.751 283.507 925.311 282.72C924.884 281.933 924.671 281.02 924.671 279.98C924.671 278.927 924.884 278.007 925.311 277.22C925.751 276.42 926.351 275.8 927.111 275.36C927.871 274.907 928.737 274.68 929.711 274.68C930.937 274.68 931.964 275 932.791 275.64C933.617 276.28 934.144 277.147 934.371 278.24H932.291C932.157 277.653 931.851 277.2 931.371 276.88C930.904 276.56 930.344 276.4 929.691 276.4C929.157 276.4 928.664 276.54 928.211 276.82C927.757 277.087 927.391 277.487 927.111 278.02C926.844 278.54 926.711 279.187 926.711 279.96C926.711 280.533 926.791 281.047 926.951 281.5C927.111 281.94 927.324 282.313 927.591 282.62C927.871 282.927 928.191 283.16 928.551 283.32C928.911 283.467 929.291 283.54 929.691 283.54C930.131 283.54 930.524 283.473 930.871 283.34C931.231 283.193 931.531 282.98 931.771 282.7C932.024 282.42 932.197 282.087 932.291 281.7H934.371C934.144 282.767 933.617 283.627 932.791 284.28C931.964 284.92 930.937 285.24 929.711 285.24ZM937.111 285V270.6H939.111V276.56C939.444 275.973 939.904 275.513 940.491 275.18C941.091 274.847 941.751 274.68 942.471 274.68C943.271 274.68 943.957 274.847 944.531 275.18C945.104 275.5 945.544 275.987 945.851 276.64C946.157 277.28 946.311 278.087 946.311 279.06V285H944.331V279.26C944.331 278.327 944.131 277.62 943.731 277.14C943.331 276.647 942.737 276.4 941.951 276.4C941.417 276.4 940.937 276.527 940.511 276.78C940.084 277.033 939.744 277.407 939.491 277.9C939.237 278.38 939.111 278.967 939.111 279.66V285H937.111ZM953.829 285.24C952.869 285.24 952.015 285.02 951.269 284.58C950.522 284.14 949.935 283.527 949.509 282.74C949.095 281.953 948.889 281.04 948.889 280C948.889 278.933 949.095 278.007 949.509 277.22C949.935 276.42 950.522 275.8 951.269 275.36C952.015 274.907 952.882 274.68 953.869 274.68C954.855 274.68 955.702 274.9 956.409 275.34C957.115 275.78 957.662 276.367 958.049 277.1C958.435 277.82 958.629 278.62 958.629 279.5C958.629 279.633 958.622 279.78 958.609 279.94C958.609 280.087 958.602 280.253 958.589 280.44H950.349V279.02H956.629C956.589 278.18 956.309 277.527 955.789 277.06C955.269 276.58 954.622 276.34 953.849 276.34C953.302 276.34 952.802 276.467 952.349 276.72C951.895 276.96 951.529 277.32 951.249 277.8C950.982 278.267 950.849 278.86 950.849 279.58V280.14C950.849 280.887 950.982 281.52 951.249 282.04C951.529 282.547 951.895 282.933 952.349 283.2C952.802 283.453 953.295 283.58 953.829 283.58C954.469 283.58 954.995 283.44 955.409 283.16C955.822 282.88 956.129 282.5 956.329 282.02H958.329C958.155 282.633 957.862 283.187 957.449 283.68C957.035 284.16 956.522 284.54 955.909 284.82C955.309 285.1 954.615 285.24 953.829 285.24ZM965.151 285.24C964.297 285.24 963.551 285.1 962.911 284.82C962.271 284.54 961.764 284.147 961.391 283.64C961.017 283.133 960.791 282.54 960.711 281.86H962.751C962.817 282.18 962.944 282.473 963.131 282.74C963.331 283.007 963.597 283.22 963.931 283.38C964.277 283.54 964.684 283.62 965.151 283.62C965.591 283.62 965.951 283.56 966.231 283.44C966.524 283.307 966.737 283.133 966.871 282.92C967.004 282.693 967.071 282.453 967.071 282.2C967.071 281.827 966.977 281.547 966.791 281.36C966.617 281.16 966.351 281.007 965.991 280.9C965.644 280.78 965.224 280.673 964.731 280.58C964.264 280.5 963.811 280.393 963.371 280.26C962.944 280.113 962.557 279.933 962.211 279.72C961.877 279.507 961.611 279.24 961.411 278.92C961.211 278.587 961.111 278.18 961.111 277.7C961.111 277.127 961.264 276.613 961.571 276.16C961.877 275.693 962.311 275.333 962.871 275.08C963.444 274.813 964.117 274.68 964.891 274.68C966.011 274.68 966.911 274.947 967.591 275.48C968.271 276.013 968.671 276.767 968.791 277.74H966.851C966.797 277.287 966.597 276.94 966.251 276.7C965.904 276.447 965.444 276.32 964.871 276.32C964.297 276.32 963.857 276.433 963.551 276.66C963.244 276.887 963.091 277.187 963.091 277.56C963.091 277.8 963.177 278.013 963.351 278.2C963.524 278.387 963.777 278.547 964.111 278.68C964.457 278.8 964.877 278.913 965.371 279.02C966.077 279.153 966.711 279.32 967.271 279.52C967.831 279.72 968.277 280.013 968.611 280.4C968.944 280.787 969.111 281.34 969.111 282.06C969.124 282.687 968.964 283.24 968.631 283.72C968.311 284.2 967.851 284.573 967.251 284.84C966.664 285.107 965.964 285.24 965.151 285.24ZM975.615 285C974.975 285 974.422 284.9 973.955 284.7C973.489 284.5 973.129 284.167 972.875 283.7C972.622 283.233 972.495 282.6 972.495 281.8V276.62H970.755V274.92H972.495L972.735 272.4H974.495V274.92H977.355V276.62H974.495V281.82C974.495 282.393 974.615 282.787 974.855 283C975.095 283.2 975.509 283.3 976.095 283.3H977.255V285H975.615ZM979.961 285V274.92H981.761L981.941 276.82C982.167 276.367 982.461 275.987 982.821 275.68C983.181 275.36 983.601 275.113 984.081 274.94C984.574 274.767 985.134 274.68 985.761 274.68V276.8H985.041C984.627 276.8 984.234 276.853 983.861 276.96C983.487 277.053 983.154 277.22 982.861 277.46C982.581 277.7 982.361 278.027 982.201 278.44C982.041 278.853 981.961 279.367 981.961 279.98V285H979.961ZM991.337 285.24C990.511 285.24 989.824 285.1 989.277 284.82C988.731 284.54 988.324 284.167 988.057 283.7C987.791 283.22 987.657 282.707 987.657 282.16C987.657 281.493 987.831 280.927 988.177 280.46C988.524 279.98 989.017 279.613 989.657 279.36C990.297 279.107 991.064 278.98 991.957 278.98H994.577C994.577 278.393 994.491 277.907 994.317 277.52C994.144 277.133 993.884 276.847 993.537 276.66C993.204 276.46 992.777 276.36 992.257 276.36C991.657 276.36 991.144 276.507 990.717 276.8C990.291 277.08 990.024 277.5 989.917 278.06H987.917C987.997 277.353 988.237 276.753 988.637 276.26C989.051 275.753 989.577 275.367 990.217 275.1C990.857 274.82 991.537 274.68 992.257 274.68C993.204 274.68 993.997 274.847 994.637 275.18C995.277 275.513 995.757 275.987 996.077 276.6C996.411 277.2 996.577 277.92 996.577 278.76V285H994.837L994.677 283.3C994.531 283.567 994.357 283.82 994.157 284.06C993.957 284.3 993.717 284.507 993.437 284.68C993.171 284.853 992.857 284.987 992.497 285.08C992.151 285.187 991.764 285.24 991.337 285.24ZM991.717 283.62C992.144 283.62 992.531 283.533 992.877 283.36C993.224 283.187 993.517 282.953 993.757 282.66C994.011 282.353 994.197 282.013 994.317 281.64C994.451 281.253 994.524 280.86 994.537 280.46V280.4H992.157C991.584 280.4 991.117 280.473 990.757 280.62C990.411 280.753 990.157 280.94 989.997 281.18C989.837 281.42 989.757 281.7 989.757 282.02C989.757 282.353 989.831 282.64 989.977 282.88C990.137 283.107 990.364 283.287 990.657 283.42C990.951 283.553 991.304 283.62 991.717 283.62ZM1003.48 285C1002.84 285 1002.28 284.9 1001.82 284.7C1001.35 284.5 1000.99 284.167 1000.74 283.7C1000.48 283.233 1000.36 282.6 1000.36 281.8V276.62H998.615V274.92H1000.36L1000.6 272.4H1002.36V274.92H1005.22V276.62H1002.36V281.82C1002.36 282.393 1002.48 282.787 1002.72 283C1002.96 283.2 1003.37 283.3 1003.96 283.3H1005.12V285H1003.48ZM1012.15 285.24C1011.2 285.24 1010.35 285.02 1009.59 284.58C1008.84 284.14 1008.25 283.527 1007.81 282.74C1007.38 281.94 1007.17 281.02 1007.17 279.98C1007.17 278.913 1007.39 277.987 1007.83 277.2C1008.27 276.4 1008.87 275.78 1009.63 275.34C1010.39 274.9 1011.24 274.68 1012.19 274.68C1013.15 274.68 1014 274.9 1014.75 275.34C1015.49 275.78 1016.08 276.393 1016.51 277.18C1016.95 277.967 1017.17 278.893 1017.17 279.96C1017.17 281.027 1016.95 281.953 1016.51 282.74C1016.08 283.527 1015.49 284.14 1014.73 284.58C1013.97 285.02 1013.11 285.24 1012.15 285.24ZM1012.15 283.52C1012.69 283.52 1013.19 283.387 1013.63 283.12C1014.08 282.853 1014.44 282.46 1014.71 281.94C1014.99 281.407 1015.13 280.747 1015.13 279.96C1015.13 279.173 1014.99 278.52 1014.73 278C1014.46 277.467 1014.1 277.067 1013.65 276.8C1013.21 276.533 1012.72 276.4 1012.19 276.4C1011.65 276.4 1011.16 276.533 1010.71 276.8C1010.25 277.067 1009.89 277.467 1009.61 278C1009.34 278.52 1009.21 279.173 1009.21 279.96C1009.21 280.747 1009.34 281.407 1009.61 281.94C1009.89 282.46 1010.25 282.853 1010.69 283.12C1011.14 283.387 1011.63 283.52 1012.15 283.52ZM1019.92 285V274.92H1021.72L1021.9 276.82C1022.13 276.367 1022.42 275.987 1022.78 275.68C1023.14 275.36 1023.56 275.113 1024.04 274.94C1024.53 274.767 1025.09 274.68 1025.72 274.68V276.8H1025C1024.59 276.8 1024.19 276.853 1023.82 276.96C1023.45 277.053 1023.11 277.22 1022.82 277.46C1022.54 277.7 1022.32 278.027 1022.16 278.44C1022 278.853 1021.92 279.367 1021.92 279.98V285H1019.92Z" fill="white"/>
<path d="M346.46 285V271H351.2C352.307 271 353.213 271.187 353.92 271.56C354.627 271.933 355.147 272.433 355.48 273.06C355.827 273.673 356 274.373 356 275.16C356 275.907 355.827 276.6 355.48 277.24C355.147 277.867 354.62 278.373 353.9 278.76C353.18 279.133 352.26 279.32 351.14 279.32H348.46V285H346.46ZM353.82 285L350.8 278.78H353L356.14 285H353.82ZM348.46 277.8H351.06C352.047 277.8 352.773 277.56 353.24 277.08C353.707 276.587 353.94 275.96 353.94 275.2C353.94 274.427 353.713 273.813 353.26 273.36C352.807 272.907 352.073 272.68 351.06 272.68H348.46V277.8ZM362.843 285.24C361.883 285.24 361.03 285.02 360.283 284.58C359.537 284.14 358.95 283.527 358.523 282.74C358.11 281.953 357.903 281.04 357.903 280C357.903 278.933 358.11 278.007 358.523 277.22C358.95 276.42 359.537 275.8 360.283 275.36C361.03 274.907 361.897 274.68 362.883 274.68C363.87 274.68 364.717 274.9 365.423 275.34C366.13 275.78 366.677 276.367 367.063 277.1C367.45 277.82 367.643 278.62 367.643 279.5C367.643 279.633 367.637 279.78 367.623 279.94C367.623 280.087 367.617 280.253 367.603 280.44H359.363V279.02H365.643C365.603 278.18 365.323 277.527 364.803 277.06C364.283 276.58 363.637 276.34 362.863 276.34C362.317 276.34 361.817 276.467 361.363 276.72C360.91 276.96 360.543 277.32 360.263 277.8C359.997 278.267 359.863 278.86 359.863 279.58V280.14C359.863 280.887 359.997 281.52 360.263 282.04C360.543 282.547 360.91 282.933 361.363 283.2C361.817 283.453 362.31 283.58 362.843 283.58C363.483 283.58 364.01 283.44 364.423 283.16C364.837 282.88 365.143 282.5 365.343 282.02H367.343C367.17 282.633 366.877 283.187 366.463 283.68C366.05 284.16 365.537 284.54 364.923 284.82C364.323 285.1 363.63 285.24 362.843 285.24ZM370.805 285V273.56C370.805 272.867 370.919 272.3 371.145 271.86C371.385 271.42 371.732 271.1 372.185 270.9C372.639 270.7 373.185 270.6 373.825 270.6H375.005V272.3H374.145C373.665 272.3 373.319 272.4 373.105 272.6C372.905 272.787 372.805 273.12 372.805 273.6V285H370.805ZM369.325 276.62V274.92H375.225V276.62H369.325ZM377.265 285V270.6H379.265V285H377.265ZM386.944 285.24C385.984 285.24 385.131 285.02 384.384 284.58C383.638 284.14 383.051 283.527 382.624 282.74C382.211 281.953 382.004 281.04 382.004 280C382.004 278.933 382.211 278.007 382.624 277.22C383.051 276.42 383.638 275.8 384.384 275.36C385.131 274.907 385.998 274.68 386.984 274.68C387.971 274.68 388.818 274.9 389.524 275.34C390.231 275.78 390.778 276.367 391.164 277.1C391.551 277.82 391.744 278.62 391.744 279.5C391.744 279.633 391.738 279.78 391.724 279.94C391.724 280.087 391.718 280.253 391.704 280.44H383.464V279.02H389.744C389.704 278.18 389.424 277.527 388.904 277.06C388.384 276.58 387.738 276.34 386.964 276.34C386.418 276.34 385.918 276.467 385.464 276.72C385.011 276.96 384.644 277.32 384.364 277.8C384.098 278.267 383.964 278.86 383.964 279.58V280.14C383.964 280.887 384.098 281.52 384.364 282.04C384.644 282.547 385.011 282.933 385.464 283.2C385.918 283.453 386.411 283.58 386.944 283.58C387.584 283.58 388.111 283.44 388.524 283.16C388.938 282.88 389.244 282.5 389.444 282.02H391.444C391.271 282.633 390.978 283.187 390.564 283.68C390.151 284.16 389.638 284.54 389.024 284.82C388.424 285.1 387.731 285.24 386.944 285.24ZM399.026 285.24C398.053 285.24 397.186 285.02 396.426 284.58C395.666 284.127 395.066 283.507 394.626 282.72C394.2 281.933 393.986 281.02 393.986 279.98C393.986 278.927 394.2 278.007 394.626 277.22C395.066 276.42 395.666 275.8 396.426 275.36C397.186 274.907 398.053 274.68 399.026 274.68C400.253 274.68 401.28 275 402.106 275.64C402.933 276.28 403.46 277.147 403.686 278.24H401.606C401.473 277.653 401.166 277.2 400.686 276.88C400.22 276.56 399.66 276.4 399.006 276.4C398.473 276.4 397.98 276.54 397.526 276.82C397.073 277.087 396.706 277.487 396.426 278.02C396.16 278.54 396.026 279.187 396.026 279.96C396.026 280.533 396.106 281.047 396.266 281.5C396.426 281.94 396.64 282.313 396.906 282.62C397.186 282.927 397.506 283.16 397.866 283.32C398.226 283.467 398.606 283.54 399.006 283.54C399.446 283.54 399.84 283.473 400.186 283.34C400.546 283.193 400.846 282.98 401.086 282.7C401.34 282.42 401.513 282.087 401.606 281.7H403.686C403.46 282.767 402.933 283.627 402.106 284.28C401.28 284.92 400.253 285.24 399.026 285.24ZM410.372 285C409.732 285 409.178 284.9 408.712 284.7C408.245 284.5 407.885 284.167 407.632 283.7C407.378 283.233 407.252 282.6 407.252 281.8V276.62H405.512V274.92H407.252L407.492 272.4H409.252V274.92H412.112V276.62H409.252V281.82C409.252 282.393 409.372 282.787 409.612 283C409.852 283.2 410.265 283.3 410.852 283.3H412.012V285H410.372ZM414.857 285V274.92H416.857V285H414.857ZM415.877 273.02C415.49 273.02 415.17 272.9 414.917 272.66C414.677 272.42 414.557 272.113 414.557 271.74C414.557 271.38 414.677 271.087 414.917 270.86C415.17 270.62 415.49 270.5 415.877 270.5C416.25 270.5 416.564 270.62 416.817 270.86C417.07 271.087 417.197 271.38 417.197 271.74C417.197 272.113 417.07 272.42 416.817 272.66C416.564 272.9 416.25 273.02 415.877 273.02ZM424.717 285.24C423.77 285.24 422.917 285.02 422.157 284.58C421.41 284.14 420.817 283.527 420.377 282.74C419.95 281.94 419.737 281.02 419.737 279.98C419.737 278.913 419.957 277.987 420.397 277.2C420.837 276.4 421.437 275.78 422.197 275.34C422.957 274.9 423.81 274.68 424.757 274.68C425.717 274.68 426.57 274.9 427.317 275.34C428.064 275.78 428.65 276.393 429.077 277.18C429.517 277.967 429.737 278.893 429.737 279.96C429.737 281.027 429.517 281.953 429.077 282.74C428.65 283.527 428.057 284.14 427.297 284.58C426.537 285.02 425.677 285.24 424.717 285.24ZM424.717 283.52C425.264 283.52 425.757 283.387 426.197 283.12C426.65 282.853 427.01 282.46 427.277 281.94C427.557 281.407 427.697 280.747 427.697 279.96C427.697 279.173 427.564 278.52 427.297 278C427.03 277.467 426.67 277.067 426.217 276.8C425.777 276.533 425.29 276.4 424.757 276.4C424.224 276.4 423.73 276.533 423.277 276.8C422.824 277.067 422.457 277.467 422.177 278C421.91 278.52 421.777 279.173 421.777 279.96C421.777 280.747 421.91 281.407 422.177 281.94C422.457 282.46 422.817 282.853 423.257 283.12C423.71 283.387 424.197 283.52 424.717 283.52ZM432.49 285V274.92H434.29L434.41 276.64C434.73 276.04 435.183 275.567 435.77 275.22C436.356 274.86 437.03 274.68 437.79 274.68C438.59 274.68 439.276 274.84 439.85 275.16C440.423 275.48 440.87 275.967 441.19 276.62C441.51 277.26 441.67 278.067 441.67 279.04V285H439.67V279.24C439.67 278.307 439.463 277.6 439.05 277.12C438.636 276.64 438.036 276.4 437.25 276.4C436.73 276.4 436.263 276.527 435.85 276.78C435.436 277.02 435.103 277.38 434.85 277.86C434.61 278.34 434.49 278.927 434.49 279.62V285H432.49Z" fill="white"/>
<rect x="362" y="177" width="64" height="64" rx="32" fill="url(#paint4_linear_1386_963)"/>
<path d="M406 215.667C405.998 213.352 405.326 211.086 404.065 209.144C402.804 207.202 401.008 205.666 398.894 204.722C396.78 203.777 394.437 203.465 392.15 203.822C389.862 204.179 387.726 205.19 386 206.734L382 210.334M382 210.334V202.334M382 210.334L390 210.334M395.333 215.667C395.333 216.404 394.736 217.001 394 217.001C393.264 217.001 392.667 216.404 392.667 215.667C392.667 214.931 393.264 214.334 394 214.334C394.736 214.334 395.333 214.931 395.333 215.667Z" stroke="white" stroke-width="2" stroke-linecap="round" stroke-linejoin="round"/>
<rect x="506" y="62" width="64" height="64" rx="32" fill="url(#paint5_linear_1386_963)"/>
<path d="M535.69 105.999C535.924 106.405 536.26 106.741 536.666 106.975C537.071 107.209 537.531 107.333 537.999 107.333C538.467 107.333 538.927 107.209 539.332 106.975C539.738 106.741 540.074 106.405 540.308 105.999M526.348 98.434C526.174 98.6249 526.059 98.8623 526.017 99.1174C525.976 99.3724 526.009 99.6341 526.113 99.8705C526.218 100.107 526.388 100.308 526.605 100.449C526.821 100.591 527.074 100.666 527.332 100.666H548.666C548.924 100.666 549.177 100.591 549.394 100.45C549.61 100.309 549.781 100.108 549.886 99.872C549.99 99.6357 550.024 99.3741 549.982 99.1191C549.941 98.864 549.826 98.6265 549.652 98.4353C547.879 96.6073 545.999 94.6647 545.999 88.666C545.999 86.5443 545.156 84.5095 543.656 83.0092C542.156 81.5089 540.121 80.666 537.999 80.666C535.877 80.666 533.842 81.5089 532.342 83.0092C530.842 84.5095 529.999 86.5443 529.999 88.666C529.999 94.6647 528.118 96.6073 526.348 98.434Z" stroke="white" stroke-width="2" stroke-linecap="round" stroke-linejoin="round"/>
<path d="M506.46 46V32H515.3V33.64H508.46V38.12H514.7V39.72H508.46V44.36H515.3V46H506.46ZM521.046 46L517.266 35.92H519.366L522.226 44.08L525.106 35.92H527.166L523.406 46H521.046ZM533.439 46.24C532.479 46.24 531.625 46.02 530.879 45.58C530.132 45.14 529.545 44.5267 529.119 43.74C528.705 42.9533 528.499 42.04 528.499 41C528.499 39.9333 528.705 39.0067 529.119 38.22C529.545 37.42 530.132 36.8 530.879 36.36C531.625 35.9067 532.492 35.68 533.479 35.68C534.465 35.68 535.312 35.9 536.019 36.34C536.725 36.78 537.272 37.3667 537.659 38.1C538.045 38.82 538.239 39.62 538.239 40.5C538.239 40.6333 538.232 40.78 538.219 40.94C538.219 41.0867 538.212 41.2533 538.199 41.44H529.959V40.02H536.239C536.199 39.18 535.919 38.5267 535.399 38.06C534.879 37.58 534.232 37.34 533.459 37.34C532.912 37.34 532.412 37.4667 531.959 37.72C531.505 37.96 531.139 38.32 530.859 38.8C530.592 39.2667 530.459 39.86 530.459 40.58V41.14C530.459 41.8867 530.592 42.52 530.859 43.04C531.139 43.5467 531.505 43.9333 531.959 44.2C532.412 44.4533 532.905 44.58 533.439 44.58C534.079 44.58 534.605 44.44 535.019 44.16C535.432 43.88 535.739 43.5 535.939 43.02H537.939C537.765 43.6333 537.472 44.1867 537.059 44.68C536.645 45.16 536.132 45.54 535.519 45.82C534.919 46.1 534.225 46.24 533.439 46.24ZM540.861 46V35.92H542.661L542.781 37.64C543.101 37.04 543.554 36.5667 544.141 36.22C544.727 35.86 545.401 35.68 546.161 35.68C546.961 35.68 547.647 35.84 548.221 36.16C548.794 36.48 549.241 36.9667 549.561 37.62C549.881 38.26 550.041 39.0667 550.041 40.04V46H548.041V40.24C548.041 39.3067 547.834 38.6 547.421 38.12C547.007 37.64 546.407 37.4 545.621 37.4C545.101 37.4 544.634 37.5267 544.221 37.78C543.807 38.02 543.474 38.38 543.221 38.86C542.981 39.34 542.861 39.9267 542.861 40.62V46H540.861ZM557.159 46C556.519 46 555.966 45.9 555.499 45.7C555.032 45.5 554.672 45.1667 554.419 44.7C554.166 44.2333 554.039 43.6 554.039 42.8V37.62H552.299V35.92H554.039L554.279 33.4H556.039V35.92H558.899V37.62H556.039V42.82C556.039 43.3933 556.159 43.7867 556.399 44C556.639 44.2 557.052 44.3 557.639 44.3H558.799V46H557.159ZM565.405 46.24C564.551 46.24 563.805 46.1 563.165 45.82C562.525 45.54 562.018 45.1467 561.645 44.64C561.271 44.1333 561.045 43.54 560.965 42.86H563.005C563.071 43.18 563.198 43.4733 563.385 43.74C563.585 44.0067 563.851 44.22 564.185 44.38C564.531 44.54 564.938 44.62 565.405 44.62C565.845 44.62 566.205 44.56 566.485 44.44C566.778 44.3067 566.991 44.1333 567.125 43.92C567.258 43.6933 567.325 43.4533 567.325 43.2C567.325 42.8267 567.231 42.5467 567.045 42.36C566.871 42.16 566.605 42.0067 566.245 41.9C565.898 41.78 565.478 41.6733 564.985 41.58C564.518 41.5 564.065 41.3933 563.625 41.26C563.198 41.1133 562.811 40.9333 562.465 40.72C562.131 40.5067 561.865 40.24 561.665 39.92C561.465 39.5867 561.365 39.18 561.365 38.7C561.365 38.1267 561.518 37.6133 561.825 37.16C562.131 36.6933 562.565 36.3333 563.125 36.08C563.698 35.8133 564.371 35.68 565.145 35.68C566.265 35.68 567.165 35.9467 567.845 36.48C568.525 37.0133 568.925 37.7667 569.045 38.74H567.105C567.051 38.2867 566.851 37.94 566.505 37.7C566.158 37.4467 565.698 37.32 565.125 37.32C564.551 37.32 564.111 37.4333 563.805 37.66C563.498 37.8867 563.345 38.1867 563.345 38.56C563.345 38.8 563.431 39.0133 563.605 39.2C563.778 39.3867 564.031 39.5467 564.365 39.68C564.711 39.8 565.131 39.9133 565.625 40.02C566.331 40.1533 566.965 40.32 567.525 40.52C568.085 40.72 568.531 41.0133 568.865 41.4C569.198 41.7867 569.365 42.34 569.365 43.06C569.378 43.6867 569.218 44.24 568.885 44.72C568.565 45.2 568.105 45.5733 567.505 45.84C566.918 46.1067 566.218 46.24 565.405 46.24Z" fill="white"/>
<rect x="796" y="58" width="64" height="64" rx="32" fill="url(#paint6_linear_1386_963)"/>
<path d="M830.67 83.3327L834.67 87.3327M818.67 81.9993V87.3327M837.337 92.666V97.9993M825.337 76.666V79.3327M821.337 84.666H816.004M840.004 95.3327H834.67M826.67 77.9993H824.004M840.857 78.8527L839.15 77.146C839 76.9944 838.822 76.8741 838.625 76.792C838.428 76.7099 838.217 76.6676 838.004 76.6676C837.79 76.6676 837.579 76.7099 837.382 76.792C837.186 76.8741 837.007 76.9944 836.857 77.146L815.15 98.8527C814.999 99.0027 814.878 99.1813 814.796 99.3781C814.714 99.5749 814.672 99.7861 814.672 99.9993C814.672 100.213 814.714 100.424 814.796 100.621C814.878 100.817 814.999 100.996 815.15 101.146L816.857 102.853C817.006 103.006 817.184 103.128 817.381 103.211C817.578 103.294 817.79 103.337 818.004 103.337C818.217 103.337 818.429 103.294 818.626 103.211C818.823 103.128 819.001 103.006 819.15 102.853L840.857 81.146C841.01 80.9969 841.132 80.8186 841.215 80.6217C841.298 80.4247 841.341 80.2131 841.341 79.9993C841.341 79.7856 841.298 79.574 841.215 79.377C841.132 79.1801 841.01 79.0018 840.857 78.8527Z" stroke="white" stroke-width="2" stroke-linecap="round" stroke-linejoin="round"/>
<path d="M809.063 19V5H811.063V17.42H817.463V19H809.063ZM820.205 19V5H822.205V17.42H828.605V19H820.205ZM831.347 19V5H833.707L838.447 14.46L843.167 5H845.547V19H843.547V8.5L839.207 17.04H837.667L833.347 8.52V19H831.347ZM807.221 43L799.621 35.3C798.995 34.6867 798.548 34.1267 798.281 33.62C798.028 33.1133 797.901 32.5667 797.901 31.98C797.901 31.3667 798.048 30.82 798.341 30.34C798.648 29.8467 799.081 29.46 799.641 29.18C800.215 28.9 800.895 28.76 801.681 28.76C802.468 28.76 803.135 28.9067 803.681 29.2C804.241 29.48 804.668 29.8667 804.961 30.36C805.268 30.8533 805.415 31.4133 805.401 32.04H803.441C803.441 31.48 803.268 31.06 802.921 30.78C802.575 30.4867 802.161 30.34 801.681 30.34C801.108 30.34 800.655 30.4933 800.321 30.8C800.001 31.0933 799.841 31.48 799.841 31.96C799.841 32.3467 799.955 32.74 800.181 33.14C800.408 33.5267 800.748 33.96 801.201 34.44L809.681 43H807.221ZM800.861 43.24C799.901 43.24 799.055 43.0667 798.321 42.72C797.588 42.36 797.021 41.86 796.621 41.22C796.221 40.5667 796.021 39.8133 796.021 38.96C796.021 38.28 796.161 37.66 796.441 37.1C796.721 36.5267 797.135 36.0267 797.681 35.6C798.228 35.16 798.901 34.8067 799.701 34.54L800.461 34.28L801.441 35.56L800.621 35.84C799.728 36.1467 799.068 36.5533 798.641 37.06C798.215 37.5667 798.001 38.1667 798.001 38.86C798.001 39.3667 798.121 39.8267 798.361 40.24C798.615 40.6533 798.961 40.9733 799.401 41.2C799.841 41.4267 800.355 41.54 800.941 41.54C801.701 41.54 802.381 41.38 802.981 41.06C803.581 40.7267 804.175 40.1867 804.761 39.44C805.028 39.0933 805.301 38.7 805.581 38.26C805.861 37.82 806.155 37.32 806.461 36.76L807.021 35.74H809.101L808.261 37.28C807.915 37.96 807.561 38.58 807.201 39.14C806.855 39.6867 806.501 40.1733 806.141 40.6C805.381 41.5333 804.575 42.2067 803.721 42.62C802.881 43.0333 801.928 43.24 800.861 43.24ZM814.364 43V30.64H810.224V29H820.524V30.64H816.364V43H814.364ZM825.653 43.24C824.706 43.24 823.853 43.02 823.093 42.58C822.346 42.14 821.753 41.5267 821.313 40.74C820.886 39.94 820.673 39.02 820.673 37.98C820.673 36.9133 820.893 35.9867 821.333 35.2C821.773 34.4 822.373 33.78 823.133 33.34C823.893 32.9 824.746 32.68 825.693 32.68C826.653 32.68 827.506 32.9 828.253 33.34C828.999 33.78 829.586 34.3933 830.013 35.18C830.453 35.9667 830.673 36.8933 830.673 37.96C830.673 39.0267 830.453 39.9533 830.013 40.74C829.586 41.5267 828.993 42.14 828.233 42.58C827.473 43.02 826.613 43.24 825.653 43.24ZM825.653 41.52C826.199 41.52 826.693 41.3867 827.133 41.12C827.586 40.8533 827.946 40.46 828.213 39.94C828.493 39.4067 828.633 38.7467 828.633 37.96C828.633 37.1733 828.499 36.52 828.233 36C827.966 35.4667 827.606 35.0667 827.153 34.8C826.713 34.5333 826.226 34.4 825.693 34.4C825.159 34.4 824.666 34.5333 824.213 34.8C823.759 35.0667 823.393 35.4667 823.113 36C822.846 36.52 822.713 37.1733 822.713 37.96C822.713 38.7467 822.846 39.4067 823.113 39.94C823.393 40.46 823.753 40.8533 824.193 41.12C824.646 41.3867 825.133 41.52 825.653 41.52ZM838.025 43.24C837.079 43.24 836.225 43.02 835.465 42.58C834.719 42.14 834.125 41.5267 833.685 40.74C833.259 39.94 833.045 39.02 833.045 37.98C833.045 36.9133 833.265 35.9867 833.705 35.2C834.145 34.4 834.745 33.78 835.505 33.34C836.265 32.9 837.119 32.68 838.065 32.68C839.025 32.68 839.879 32.9 840.625 33.34C841.372 33.78 841.959 34.3933 842.385 35.18C842.825 35.9667 843.045 36.8933 843.045 37.96C843.045 39.0267 842.825 39.9533 842.385 40.74C841.959 41.5267 841.365 42.14 840.605 42.58C839.845 43.02 838.985 43.24 838.025 43.24ZM838.025 41.52C838.572 41.52 839.065 41.3867 839.505 41.12C839.959 40.8533 840.319 40.46 840.585 39.94C840.865 39.4067 841.005 38.7467 841.005 37.96C841.005 37.1733 840.872 36.52 840.605 36C840.339 35.4667 839.979 35.0667 839.525 34.8C839.085 34.5333 838.599 34.4 838.065 34.4C837.532 34.4 837.039 34.5333 836.585 34.8C836.132 35.0667 835.765 35.4667 835.485 36C835.219 36.52 835.085 37.1733 835.085 37.96C835.085 38.7467 835.219 39.4067 835.485 39.94C835.765 40.46 836.125 40.8533 836.565 41.12C837.019 41.3867 837.505 41.52 838.025 41.52ZM845.798 43V28.6H847.798V43H845.798ZM854.844 43.24C853.991 43.24 853.244 43.1 852.604 42.82C851.964 42.54 851.457 42.1467 851.084 41.64C850.711 41.1333 850.484 40.54 850.404 39.86H852.444C852.511 40.18 852.637 40.4733 852.824 40.74C853.024 41.0067 853.291 41.22 853.624 41.38C853.971 41.54 854.377 41.62 854.844 41.62C855.284 41.62 855.644 41.56 855.924 41.44C856.217 41.3067 856.431 41.1333 856.564 40.92C856.697 40.6933 856.764 40.4533 856.764 40.2C856.764 39.8267 856.671 39.5467 856.484 39.36C856.311 39.16 856.044 39.0067 855.684 38.9C855.337 38.78 854.917 38.6733 854.424 38.58C853.957 38.5 853.504 38.3933 853.064 38.26C852.637 38.1133 852.251 37.9333 851.904 37.72C851.571 37.5067 851.304 37.24 851.104 36.92C850.904 36.5867 850.804 36.18 850.804 35.7C850.804 35.1267 850.957 34.6133 851.264 34.16C851.571 33.6933 852.004 33.3333 852.564 33.08C853.137 32.8133 853.811 32.68 854.584 32.68C855.704 32.68 856.604 32.9467 857.284 33.48C857.964 34.0133 858.364 34.7667 858.484 35.74H856.544C856.491 35.2867 856.291 34.94 855.944 34.7C855.597 34.4467 855.137 34.32 854.564 34.32C853.991 34.32 853.551 34.4333 853.244 34.66C852.937 34.8867 852.784 35.1867 852.784 35.56C852.784 35.8 852.871 36.0133 853.044 36.2C853.217 36.3867 853.471 36.5467 853.804 36.68C854.151 36.8 854.571 36.9133 855.064 37.02C855.771 37.1533 856.404 37.32 856.964 37.52C857.524 37.72 857.971 38.0133 858.304 38.4C858.637 38.7867 858.804 39.34 858.804 40.06C858.817 40.6867 858.657 41.24 858.324 41.72C858.004 42.2 857.544 42.5733 856.944 42.84C856.357 43.1067 855.657 43.24 854.844 43.24Z" fill="white"/>
<rect x="1067" y="58" width="64" height="64" rx="32" fill="url(#paint7_linear_1386_963)"/>
<path d="M1099 103.334V90.0005M1099 90.0005L1087.39 83.3339M1099 90.0005L1110.61 83.3339M1093 79.6939L1105 86.5605M1097.67 102.974C1098.07 103.208 1098.53 103.331 1099 103.331C1099.47 103.331 1099.93 103.208 1100.33 102.974L1109.67 97.6405C1110.07 97.4067 1110.41 97.0705 1110.64 96.6656C1110.88 96.2608 1111 95.8015 1111 95.3339V84.6672C1111 84.1996 1110.88 83.7403 1110.64 83.3354C1110.41 82.9305 1110.07 82.5943 1109.67 82.3605L1100.33 77.0272C1099.93 76.7931 1099.47 76.6699 1099 76.6699C1098.53 76.6699 1098.07 76.7931 1097.67 77.0272L1088.33 82.3605C1087.93 82.5943 1087.59 82.9305 1087.36 83.3354C1087.12 83.7403 1087 84.1996 1087 84.6672V95.3339C1087 95.8015 1087.12 96.2608 1087.36 96.6656C1087.59 97.0705 1087.93 97.4067 1088.33 97.6405L1097.67 102.974Z" stroke="white" stroke-width="2" stroke-linecap="round" stroke-linejoin="round"/>
<path d="M1061.6 41.24C1060.23 41.24 1059.04 40.94 1058.04 40.34C1057.05 39.7267 1056.29 38.88 1055.74 37.8C1055.21 36.7067 1054.94 35.44 1054.94 34C1054.94 32.5733 1055.21 31.3133 1055.74 30.22C1056.29 29.1267 1057.05 28.28 1058.04 27.68C1059.04 27.0667 1060.23 26.76 1061.6 26.76C1063.24 26.76 1064.57 27.1533 1065.58 27.94C1066.61 28.7267 1067.26 29.8333 1067.54 31.26H1065.34C1065.14 30.4333 1064.73 29.7733 1064.1 29.28C1063.49 28.7867 1062.65 28.54 1061.6 28.54C1060.65 28.54 1059.83 28.76 1059.14 29.2C1058.45 29.64 1057.91 30.2667 1057.54 31.08C1057.17 31.8933 1056.98 32.8667 1056.98 34C1056.98 35.1333 1057.17 36.1133 1057.54 36.94C1057.91 37.7533 1058.45 38.38 1059.14 38.82C1059.83 39.2467 1060.65 39.46 1061.6 39.46C1062.65 39.46 1063.49 39.2267 1064.1 38.76C1064.73 38.28 1065.14 37.6333 1065.34 36.82H1067.54C1067.26 38.2067 1066.61 39.2933 1065.58 40.08C1064.57 40.8533 1063.24 41.24 1061.6 41.24ZM1073.57 41.24C1072.75 41.24 1072.06 41.1 1071.51 40.82C1070.97 40.54 1070.56 40.1667 1070.29 39.7C1070.03 39.22 1069.89 38.7067 1069.89 38.16C1069.89 37.4933 1070.07 36.9267 1070.41 36.46C1070.76 35.98 1071.25 35.6133 1071.89 35.36C1072.53 35.1067 1073.3 34.98 1074.19 34.98H1076.81C1076.81 34.3933 1076.73 33.9067 1076.55 33.52C1076.38 33.1333 1076.12 32.8467 1075.77 32.66C1075.44 32.46 1075.01 32.36 1074.49 32.36C1073.89 32.36 1073.38 32.5067 1072.95 32.8C1072.53 33.08 1072.26 33.5 1072.15 34.06H1070.15C1070.23 33.3533 1070.47 32.7533 1070.87 32.26C1071.29 31.7533 1071.81 31.3667 1072.45 31.1C1073.09 30.82 1073.77 30.68 1074.49 30.68C1075.44 30.68 1076.23 30.8467 1076.87 31.18C1077.51 31.5133 1077.99 31.9867 1078.31 32.6C1078.65 33.2 1078.81 33.92 1078.81 34.76V41H1077.07L1076.91 39.3C1076.77 39.5667 1076.59 39.82 1076.39 40.06C1076.19 40.3 1075.95 40.5067 1075.67 40.68C1075.41 40.8533 1075.09 40.9867 1074.73 41.08C1074.39 41.1867 1074 41.24 1073.57 41.24ZM1073.95 39.62C1074.38 39.62 1074.77 39.5333 1075.11 39.36C1075.46 39.1867 1075.75 38.9533 1075.99 38.66C1076.25 38.3533 1076.43 38.0133 1076.55 37.64C1076.69 37.2533 1076.76 36.86 1076.77 36.46V36.4H1074.39C1073.82 36.4 1073.35 36.4733 1072.99 36.62C1072.65 36.7533 1072.39 36.94 1072.23 37.18C1072.07 37.42 1071.99 37.7 1071.99 38.02C1071.99 38.3533 1072.07 38.64 1072.21 38.88C1072.37 39.1067 1072.6 39.2867 1072.89 39.42C1073.19 39.5533 1073.54 39.62 1073.95 39.62ZM1081.77 45.4V30.92H1083.57L1083.77 32.48C1083.98 32.1733 1084.25 31.8867 1084.57 31.62C1084.89 31.34 1085.27 31.1133 1085.71 30.94C1086.16 30.7667 1086.69 30.68 1087.29 30.68C1088.25 30.68 1089.09 30.9133 1089.81 31.38C1090.54 31.8467 1091.11 32.48 1091.51 33.28C1091.92 34.0667 1092.13 34.9667 1092.13 35.98C1092.13 36.9933 1091.92 37.9 1091.51 38.7C1091.09 39.4867 1090.52 40.1067 1089.79 40.56C1089.07 41.0133 1088.23 41.24 1087.27 41.24C1086.48 41.24 1085.79 41.0867 1085.19 40.78C1084.59 40.46 1084.11 40.02 1083.77 39.46V45.4H1081.77ZM1086.95 39.5C1087.56 39.5 1088.1 39.3533 1088.57 39.06C1089.05 38.7667 1089.42 38.3533 1089.69 37.82C1089.97 37.2867 1090.11 36.6667 1090.11 35.96C1090.11 35.2533 1089.97 34.64 1089.69 34.12C1089.42 33.5867 1089.05 33.1733 1088.57 32.88C1088.1 32.5733 1087.56 32.42 1086.95 32.42C1086.32 32.42 1085.77 32.5733 1085.29 32.88C1084.82 33.1733 1084.45 33.5867 1084.19 34.12C1083.92 34.64 1083.79 35.2533 1083.79 35.96C1083.79 36.6667 1083.92 37.2867 1084.19 37.82C1084.45 38.3533 1084.82 38.7667 1085.29 39.06C1085.77 39.3533 1086.32 39.5 1086.95 39.5ZM1098.76 41.24C1097.91 41.24 1097.16 41.1 1096.52 40.82C1095.88 40.54 1095.37 40.1467 1095 39.64C1094.63 39.1333 1094.4 38.54 1094.32 37.86H1096.36C1096.43 38.18 1096.55 38.4733 1096.74 38.74C1096.94 39.0067 1097.21 39.22 1097.54 39.38C1097.89 39.54 1098.29 39.62 1098.76 39.62C1099.2 39.62 1099.56 39.56 1099.84 39.44C1100.13 39.3067 1100.35 39.1333 1100.48 38.92C1100.61 38.6933 1100.68 38.4533 1100.68 38.2C1100.68 37.8267 1100.59 37.5467 1100.4 37.36C1100.23 37.16 1099.96 37.0067 1099.6 36.9C1099.25 36.78 1098.83 36.6733 1098.34 36.58C1097.87 36.5 1097.42 36.3933 1096.98 36.26C1096.55 36.1133 1096.17 35.9333 1095.82 35.72C1095.49 35.5067 1095.22 35.24 1095.02 34.92C1094.82 34.5867 1094.72 34.18 1094.72 33.7C1094.72 33.1267 1094.87 32.6133 1095.18 32.16C1095.49 31.6933 1095.92 31.3333 1096.48 31.08C1097.05 30.8133 1097.73 30.68 1098.5 30.68C1099.62 30.68 1100.52 30.9467 1101.2 31.48C1101.88 32.0133 1102.28 32.7667 1102.4 33.74H1100.46C1100.41 33.2867 1100.21 32.94 1099.86 32.7C1099.51 32.4467 1099.05 32.32 1098.48 32.32C1097.91 32.32 1097.47 32.4333 1097.16 32.66C1096.85 32.8867 1096.7 33.1867 1096.7 33.56C1096.7 33.8 1096.79 34.0133 1096.96 34.2C1097.13 34.3867 1097.39 34.5467 1097.72 34.68C1098.07 34.8 1098.49 34.9133 1098.98 35.02C1099.69 35.1533 1100.32 35.32 1100.88 35.52C1101.44 35.72 1101.89 36.0133 1102.22 36.4C1102.55 36.7867 1102.72 37.34 1102.72 38.06C1102.73 38.6867 1102.57 39.24 1102.24 39.72C1101.92 40.2 1101.46 40.5733 1100.86 40.84C1100.27 41.1067 1099.57 41.24 1098.76 41.24ZM1109.18 41.24C1108.39 41.24 1107.7 41.08 1107.12 40.76C1106.54 40.44 1106.1 39.96 1105.78 39.32C1105.47 38.68 1105.32 37.8733 1105.32 36.9V30.92H1107.32V36.68C1107.32 37.6267 1107.52 38.34 1107.94 38.82C1108.35 39.3 1108.94 39.54 1109.72 39.54C1110.24 39.54 1110.7 39.4133 1111.12 39.16C1111.54 38.9067 1111.88 38.54 1112.12 38.06C1112.36 37.58 1112.48 36.9933 1112.48 36.3V30.92H1114.48V41H1112.7L1112.56 39.28C1112.25 39.8933 1111.8 40.3733 1111.22 40.72C1110.63 41.0667 1109.95 41.24 1109.18 41.24ZM1117.61 41V26.6H1119.61V41H1117.61ZM1127.32 41.24C1126.36 41.24 1125.51 41.02 1124.76 40.58C1124.01 40.14 1123.43 39.5267 1123 38.74C1122.59 37.9533 1122.38 37.04 1122.38 36C1122.38 34.9333 1122.59 34.0067 1123 33.22C1123.43 32.42 1124.01 31.8 1124.76 31.36C1125.51 30.9067 1126.37 30.68 1127.36 30.68C1128.35 30.68 1129.19 30.9 1129.9 31.34C1130.61 31.78 1131.15 32.3667 1131.54 33.1C1131.93 33.82 1132.12 34.62 1132.12 35.5C1132.12 35.6333 1132.11 35.78 1132.1 35.94C1132.1 36.0867 1132.09 36.2533 1132.08 36.44H1123.84V35.02H1130.12C1130.08 34.18 1129.8 33.5267 1129.28 33.06C1128.76 32.58 1128.11 32.34 1127.34 32.34C1126.79 32.34 1126.29 32.4667 1125.84 32.72C1125.39 32.96 1125.02 33.32 1124.74 33.8C1124.47 34.2667 1124.34 34.86 1124.34 35.58V36.14C1124.34 36.8867 1124.47 37.52 1124.74 38.04C1125.02 38.5467 1125.39 38.9333 1125.84 39.2C1126.29 39.4533 1126.79 39.58 1127.32 39.58C1127.96 39.58 1128.49 39.44 1128.9 39.16C1129.31 38.88 1129.62 38.5 1129.82 38.02H1131.82C1131.65 38.6333 1131.35 39.1867 1130.94 39.68C1130.53 40.16 1130.01 40.54 1129.4 40.82C1128.8 41.1 1128.11 41.24 1127.32 41.24ZM1138.64 41.24C1137.79 41.24 1137.04 41.1 1136.4 40.82C1135.76 40.54 1135.26 40.1467 1134.88 39.64C1134.51 39.1333 1134.28 38.54 1134.2 37.86H1136.24C1136.31 38.18 1136.44 38.4733 1136.62 38.74C1136.82 39.0067 1137.09 39.22 1137.42 39.38C1137.77 39.54 1138.18 39.62 1138.64 39.62C1139.08 39.62 1139.44 39.56 1139.72 39.44C1140.02 39.3067 1140.23 39.1333 1140.36 38.92C1140.5 38.6933 1140.56 38.4533 1140.56 38.2C1140.56 37.8267 1140.47 37.5467 1140.28 37.36C1140.11 37.16 1139.84 37.0067 1139.48 36.9C1139.14 36.78 1138.72 36.6733 1138.22 36.58C1137.76 36.5 1137.3 36.3933 1136.86 36.26C1136.44 36.1133 1136.05 35.9333 1135.7 35.72C1135.37 35.5067 1135.1 35.24 1134.9 34.92C1134.7 34.5867 1134.6 34.18 1134.6 33.7C1134.6 33.1267 1134.76 32.6133 1135.06 32.16C1135.37 31.6933 1135.8 31.3333 1136.36 31.08C1136.94 30.8133 1137.61 30.68 1138.38 30.68C1139.5 30.68 1140.4 30.9467 1141.08 31.48C1141.76 32.0133 1142.16 32.7667 1142.28 33.74H1140.34C1140.29 33.2867 1140.09 32.94 1139.74 32.7C1139.4 32.4467 1138.94 32.32 1138.36 32.32C1137.79 32.32 1137.35 32.4333 1137.04 32.66C1136.74 32.8867 1136.58 33.1867 1136.58 33.56C1136.58 33.8 1136.67 34.0133 1136.84 34.2C1137.02 34.3867 1137.27 34.5467 1137.6 34.68C1137.95 34.8 1138.37 34.9133 1138.86 35.02C1139.57 35.1533 1140.2 35.32 1140.76 35.52C1141.32 35.72 1141.77 36.0133 1142.1 36.4C1142.44 36.7867 1142.6 37.34 1142.6 38.06C1142.62 38.6867 1142.46 39.24 1142.12 39.72C1141.8 40.2 1141.34 40.5733 1140.74 40.84C1140.16 41.1067 1139.46 41.24 1138.64 41.24Z" fill="white"/>
<path d="M156.457 170.098C153.981 170.098 152 170.965 152 172.049C152 173.133 153.981 174 156.457 174C158.933 174 160.914 173.133 160.914 172.049C160.914 170.965 158.933 170.098 156.457 170.098Z" fill="white"/>
<path d="M205.061 95.0607C205.646 94.4749 205.646 93.5251 205.061 92.9393L195.515 83.3934C194.929 82.8076 193.979 82.8076 193.393 83.3934C192.808 83.9792 192.808 84.9289 193.393 85.5147L201.879 94L193.393 102.485C192.808 103.071 192.808 104.021 193.393 104.607C193.979 105.192 194.929 105.192 195.515 104.607L205.061 95.0607ZM152 172.049H153.5C153.5 172.268 153.393 172.364 153.43 172.325C153.476 172.278 153.613 172.167 153.902 172.041C154.474 171.79 155.373 171.598 156.457 171.598V170.098V168.598C155.065 168.598 153.736 168.838 152.698 169.293C152.182 169.519 151.67 169.827 151.266 170.248C150.855 170.676 150.5 171.288 150.5 172.049H152ZM156.457 170.098V171.598C157.541 171.598 158.441 171.79 159.013 172.041C159.301 172.167 159.439 172.278 159.484 172.325C159.521 172.364 159.414 172.268 159.414 172.049H160.914H162.414C162.414 171.288 162.06 170.676 161.648 170.248C161.245 169.827 160.733 169.519 160.216 169.293C159.178 168.838 157.85 168.598 156.457 168.598V170.098ZM160.914 172.049H159.414C159.414 171.83 159.521 171.733 159.484 171.772C159.439 171.819 159.301 171.931 159.013 172.057C158.441 172.307 157.541 172.5 156.457 172.5V174V175.5C157.85 175.5 159.178 175.259 160.216 174.805C160.733 174.579 161.245 174.27 161.648 173.85C162.06 173.421 162.414 172.81 162.414 172.049H160.914ZM156.457 174V172.5C155.373 172.5 154.474 172.307 153.902 172.057C153.613 171.931 153.476 171.819 153.43 171.772C153.393 171.733 153.5 171.83 153.5 172.049H152H150.5C150.5 172.81 150.855 173.421 151.266 173.85C151.67 174.27 152.182 174.579 152.698 174.805C153.736 175.259 155.065 175.5 156.457 175.5V174ZM180.229 152.734H181.729V114H180.229H178.729V152.734H180.229ZM200.229 94V95.5H204V94V92.5H200.229V94ZM180.229 114H181.729C181.729 103.783 190.011 95.5 200.229 95.5V94V92.5C188.354 92.5 178.729 102.126 178.729 114H180.229ZM160.914 172.049V173.549C172.41 173.549 181.729 164.23 181.729 152.734H180.229H178.729C178.729 162.573 170.753 170.549 160.914 170.549V172.049Z" fill="url(#paint8_linear_1386_963)"/>
<path d="M299.543 90C297.019 90 295 90.8155 295 91.8348C295 92.8541 297.019 93.6696 299.543 93.6696C302.067 93.6696 304.086 92.8541 304.086 91.8348C304.086 90.8155 302.067 90 299.543 90Z" fill="white"/>
<path d="M349.061 207.061C349.646 206.475 349.646 205.525 349.061 204.939L339.515 195.393C338.929 194.808 337.979 194.808 337.393 195.393C336.808 195.979 336.808 196.929 337.393 197.515L345.879 206L337.393 214.485C336.808 215.071 336.808 216.021 337.393 216.607C337.979 217.192 338.929 217.192 339.515 216.607L349.061 207.061ZM295 91.8348H296.5C296.5 92.1138 296.355 92.2374 296.394 92.1996C296.439 92.1568 296.583 92.0486 296.887 91.926C297.486 91.6838 298.422 91.5 299.543 91.5V90V88.5C298.14 88.5 296.804 88.7239 295.763 89.1443C295.247 89.353 294.728 89.6398 294.316 90.0365C293.897 90.4383 293.5 91.0461 293.5 91.8348H295ZM299.543 90V91.5C300.664 91.5 301.599 91.6838 302.199 91.926C302.503 92.0486 302.647 92.1568 302.691 92.1996C302.731 92.2374 302.586 92.1138 302.586 91.8348H304.086H305.586C305.586 91.0461 305.188 90.4383 304.77 90.0365C304.357 89.6398 303.839 89.353 303.322 89.1443C302.282 88.7239 300.946 88.5 299.543 88.5V90ZM304.086 91.8348H302.586C302.586 91.5558 302.731 91.4322 302.691 91.47C302.647 91.5128 302.503 91.621 302.199 91.7436C301.599 91.9858 300.664 92.1696 299.543 92.1696V93.6696V95.1696C300.946 95.1696 302.282 94.9457 303.322 94.5253C303.839 94.3166 304.357 94.0298 304.77 93.6331C305.188 93.2313 305.586 92.6235 305.586 91.8348H304.086ZM299.543 93.6696V92.1696C298.422 92.1696 297.486 91.9858 296.887 91.7436C296.583 91.621 296.439 91.5128 296.394 91.47C296.355 91.4322 296.5 91.5558 296.5 91.8348H295H293.5C293.5 92.6235 293.897 93.2313 294.316 93.6331C294.728 94.0298 295.247 94.3166 295.763 94.5253C296.804 94.9457 298.14 95.1696 299.543 95.1696V93.6696ZM323.771 111.521H322.271V186H323.771H325.271V111.521H323.771ZM343.771 206V207.5H348V206V204.5H343.771V206ZM323.771 186H322.271C322.271 197.874 331.897 207.5 343.771 207.5V206V204.5C333.554 204.5 325.271 196.217 325.271 186H323.771ZM304.086 91.8348V93.3348C314.129 93.3348 322.271 101.477 322.271 111.521H323.771H325.271C325.271 99.82 315.786 90.3348 304.086 90.3348V91.8348Z" fill="url(#paint9_linear_1386_963)"/>
<path d="M444.457 208.719C441.981 208.719 440 209.892 440 211.359C440 212.826 441.981 214 444.457 214C446.933 214 448.914 212.826 448.914 211.359C448.914 209.892 446.933 208.719 444.457 208.719Z" fill="white"/>
<path d="M493.061 95.0607C493.646 94.4749 493.646 93.5251 493.061 92.9393L483.515 83.3934C482.929 82.8076 481.979 82.8076 481.393 83.3934C480.808 83.9792 480.808 84.9289 481.393 85.5147L489.879 94L481.393 102.485C480.808 103.071 480.808 104.021 481.393 104.607C481.979 105.192 482.929 105.192 483.515 104.607L493.061 95.0607ZM440 211.359H441.5C441.5 211.346 441.501 211.296 441.572 211.196C441.649 211.087 441.801 210.936 442.065 210.78C442.598 210.464 443.438 210.219 444.457 210.219V208.719V207.219C443.001 207.219 441.612 207.561 440.535 208.198C439.488 208.819 438.5 209.888 438.5 211.359H440ZM444.457 208.719V210.219C445.477 210.219 446.316 210.464 446.85 210.78C447.114 210.936 447.265 211.087 447.343 211.196C447.414 211.296 447.414 211.346 447.414 211.359H448.914H450.414C450.414 209.888 449.427 208.819 448.379 208.198C447.303 207.561 445.914 207.219 444.457 207.219V208.719ZM448.914 211.359H447.414C447.414 211.372 447.414 211.423 447.343 211.523C447.265 211.632 447.114 211.783 446.85 211.939C446.316 212.255 445.477 212.5 444.457 212.5V214V215.5C445.914 215.5 447.303 215.158 448.379 214.52C449.427 213.9 450.414 212.831 450.414 211.359H448.914ZM444.457 214V212.5C443.438 212.5 442.598 212.255 442.065 211.939C441.801 211.783 441.649 211.632 441.572 211.523C441.501 211.423 441.5 211.372 441.5 211.359H440H438.5C438.5 212.831 439.488 213.9 440.535 214.52C441.612 215.158 443.001 215.5 444.457 215.5V214ZM468.229 192.045H469.729V114H468.229H466.729V192.045H468.229ZM488.229 94V95.5H492V94V92.5H488.229V94ZM468.229 114H469.729C469.729 103.783 478.011 95.5 488.229 95.5V94V92.5C476.354 92.5 466.729 102.126 466.729 114H468.229ZM448.914 211.359V212.859C460.41 212.859 469.729 203.541 469.729 192.045H468.229H466.729C466.729 201.884 458.753 209.859 448.914 209.859V211.359Z" fill="url(#paint10_linear_1386_963)"/>
<path d="M591.457 94C588.981 94 587 94.8436 587 95.8981C587 96.9525 588.981 97.7961 591.457 97.7961C593.933 97.7961 595.914 96.9525 595.914 95.8981C595.914 94.8436 593.933 94 591.457 94Z" fill="white"/>
<path d="M640.061 215.061C640.646 214.475 640.646 213.525 640.061 212.939L630.515 203.393C629.929 202.808 628.979 202.808 628.393 203.393C627.808 203.979 627.808 204.929 628.393 205.515L636.879 214L628.393 222.485C627.808 223.071 627.808 224.021 628.393 224.607C628.979 225.192 629.929 225.192 630.515 224.607L640.061 215.061ZM587 95.8981H588.5C588.5 96.1393 588.38 96.2468 588.416 96.2103C588.459 96.1663 588.597 96.0575 588.888 95.9337C589.464 95.6883 590.369 95.5 591.457 95.5V94V92.5C590.069 92.5 588.746 92.7335 587.712 93.1735C587.198 93.3924 586.686 93.6922 586.281 94.103C585.868 94.5212 585.5 95.1296 585.5 95.8981H587ZM591.457 94V95.5C592.546 95.5 593.45 95.6883 594.027 95.9337C594.317 96.0575 594.455 96.1663 594.498 96.2103C594.534 96.2468 594.414 96.1393 594.414 95.8981H595.914H597.414C597.414 95.1296 597.046 94.5212 596.634 94.103C596.228 93.6922 595.716 93.3924 595.202 93.1735C594.169 92.7335 592.845 92.5 591.457 92.5V94ZM595.914 95.8981H594.414C594.414 95.6568 594.534 95.5493 594.498 95.5858C594.455 95.6298 594.317 95.7387 594.027 95.8625C593.45 96.1078 592.546 96.2961 591.457 96.2961V97.7961V99.2961C592.845 99.2961 594.169 99.0626 595.202 98.6226C595.716 98.4037 596.228 98.1039 596.634 97.6932C597.046 97.2749 597.414 96.6665 597.414 95.8981H595.914ZM591.457 97.7961V96.2961C590.369 96.2961 589.464 96.1078 588.888 95.8625C588.597 95.7387 588.459 95.6298 588.416 95.5858C588.38 95.5493 588.5 95.6568 588.5 95.8981H587H585.5C585.5 96.6665 585.868 97.2749 586.281 97.6932C586.686 98.1039 587.198 98.4037 587.712 98.6226C588.746 99.0626 590.069 99.2961 591.457 99.2961V97.7961ZM615.229 115.212H613.729V194H615.229H616.729V115.212H615.229ZM635.229 214V215.5H639V214V212.5H635.229V214ZM615.229 194H613.729C613.729 205.874 623.354 215.5 635.229 215.5V214V212.5C625.011 212.5 616.729 204.217 616.729 194H615.229ZM595.914 95.8981V97.3981C605.753 97.3981 613.729 105.374 613.729 115.212H615.229H616.729C616.729 103.717 607.41 94.3981 595.914 94.3981V95.8981Z" fill="url(#paint11_linear_1386_963)"/>
<path d="M740.457 215.756C737.981 215.756 736 217.144 736 218.878C736 220.612 737.981 222 740.457 222C742.933 222 744.914 220.612 744.914 218.878C744.914 217.144 742.933 215.756 740.457 215.756Z" fill="white"/>
<path d="M789.061 95.0607C789.646 94.4749 789.646 93.5251 789.061 92.9393L779.515 83.3934C778.929 82.8076 777.979 82.8076 777.393 83.3934C776.808 83.9792 776.808 84.9289 777.393 85.5147L785.879 94L777.393 102.485C776.808 103.071 776.808 104.021 777.393 104.607C777.979 105.192 778.929 105.192 779.515 104.607L789.061 95.0607ZM736 218.878H737.5C737.5 218.629 737.638 218.261 738.161 217.895C738.681 217.531 739.485 217.256 740.457 217.256V215.756V214.256C738.953 214.256 737.528 214.675 736.439 215.438C735.352 216.2 734.5 217.393 734.5 218.878H736ZM740.457 215.756V217.256C741.429 217.256 742.233 217.531 742.754 217.895C743.276 218.261 743.414 218.629 743.414 218.878H744.914H746.414C746.414 217.393 745.562 216.2 744.475 215.438C743.386 214.675 741.962 214.256 740.457 214.256V215.756ZM744.914 218.878H743.414C743.414 219.127 743.276 219.495 742.754 219.861C742.233 220.225 741.429 220.5 740.457 220.5V222V223.5C741.962 223.5 743.386 223.081 744.475 222.318C745.562 221.556 746.414 220.363 746.414 218.878H744.914ZM740.457 222V220.5C739.485 220.5 738.681 220.225 738.161 219.861C737.638 219.495 737.5 219.127 737.5 218.878H736H734.5C734.5 220.363 735.352 221.556 736.439 222.318C737.528 223.081 738.953 223.5 740.457 223.5V222ZM764.229 199.564H765.729V114H764.229H762.729V199.564H764.229ZM784.229 94V95.5H788V94V92.5H784.229V94ZM764.229 114H765.729C765.729 103.783 774.011 95.5 784.229 95.5V94V92.5C772.354 92.5 762.729 102.126 762.729 114H764.229ZM744.914 218.878V220.378C756.41 220.378 765.729 211.059 765.729 199.564H764.229H762.729C762.729 209.402 754.753 217.378 744.914 217.378V218.878Z" fill="url(#paint12_linear_1386_963)"/>
<path d="M872.543 97.2219C870.019 97.2219 868 95.617 868 93.6109C868 91.6049 870.019 90 872.543 90C875.067 90 877.086 91.6049 877.086 93.6109C877.086 95.617 875.067 97.2219 872.543 97.2219Z" fill="white"/>
<path d="M922.061 220.939C922.646 221.525 922.646 222.475 922.061 223.061L912.515 232.607C911.929 233.192 910.979 233.192 910.393 232.607C909.808 232.021 909.808 231.071 910.393 230.485L918.879 222L910.393 213.515C909.808 212.929 909.808 211.979 910.393 211.393C910.979 210.808 911.929 210.808 912.515 211.393L922.061 220.939ZM868 93.6109H869.5C869.5 94.4857 870.508 95.7219 872.543 95.7219V97.2219V98.7219C869.53 98.7219 866.5 96.7483 866.5 93.6109H868ZM872.543 97.2219V95.7219C874.578 95.7219 875.586 94.4857 875.586 93.6109H877.086H878.586C878.586 96.7483 875.556 98.7219 872.543 98.7219V97.2219ZM877.086 93.6109H875.586C875.586 92.7362 874.578 91.5 872.543 91.5V90V88.5C875.556 88.5 878.586 90.4736 878.586 93.6109H877.086ZM872.543 90V91.5C870.508 91.5 869.5 92.7362 869.5 93.6109H868H866.5C866.5 90.4736 869.53 88.5 872.543 88.5V90ZM896.771 113.297H898.271V202H896.771H895.271V113.297H896.771ZM916.771 222V220.5H921V222V223.5H916.771V222ZM896.771 202H898.271C898.271 212.217 906.554 220.5 916.771 220.5V222V223.5C904.897 223.5 895.271 213.874 895.271 202H896.771ZM877.086 93.6109V92.1109C888.786 92.1109 898.271 101.596 898.271 113.297H896.771H895.271C895.271 103.253 887.129 95.1109 877.086 95.1109V93.6109Z" fill="url(#paint13_linear_1386_963)"/>
<path d="M1010.54 223C1008.02 223 1006 221.815 1006 220.334C1006 218.853 1008.02 217.668 1010.54 217.668C1013.07 217.668 1015.09 218.853 1015.09 220.334C1015.09 221.815 1013.07 223 1010.54 223Z" fill="white"/>
<path d="M1060.06 88.9393C1060.65 89.5251 1060.65 90.4749 1060.06 91.0607L1050.51 100.607C1049.93 101.192 1048.98 101.192 1048.39 100.607C1047.81 100.021 1047.81 99.0711 1048.39 98.4853L1056.88 90L1048.39 81.5147C1047.81 80.9289 1047.81 79.9792 1048.39 79.3934C1048.98 78.8076 1049.93 78.8076 1050.51 79.3934L1060.06 88.9393ZM1006 220.334H1007.5C1007.5 220.347 1007.5 220.399 1007.57 220.502C1007.65 220.614 1007.81 220.769 1008.08 220.929C1008.63 221.251 1009.5 221.5 1010.54 221.5V223V224.5C1009.06 224.5 1007.66 224.156 1006.57 223.516C1005.51 222.894 1004.5 221.819 1004.5 220.334H1006ZM1010.54 223V221.5C1011.59 221.5 1012.45 221.251 1013 220.929C1013.27 220.769 1013.43 220.614 1013.51 220.502C1013.59 220.399 1013.59 220.347 1013.59 220.334H1015.09H1016.59C1016.59 221.819 1015.58 222.894 1014.52 223.516C1013.43 224.156 1012.02 224.5 1010.54 224.5V223ZM1015.09 220.334H1013.59C1013.59 220.321 1013.59 220.269 1013.51 220.166C1013.43 220.054 1013.27 219.899 1013 219.739C1012.45 219.417 1011.59 219.168 1010.54 219.168V217.668V216.168C1012.02 216.168 1013.43 216.512 1014.52 217.152C1015.58 217.774 1016.59 218.849 1016.59 220.334H1015.09ZM1010.54 217.668V219.168C1009.5 219.168 1008.63 219.417 1008.08 219.739C1007.81 219.899 1007.65 220.054 1007.57 220.166C1007.5 220.269 1007.5 220.321 1007.5 220.334H1006H1004.5C1004.5 218.849 1005.51 217.774 1006.57 217.152C1007.66 216.512 1009.06 216.168 1010.54 216.168V217.668ZM1034.77 200.648H1033.27V110H1034.77H1036.27V200.648H1034.77ZM1054.77 90V88.5H1059V90V91.5H1054.77V90ZM1034.77 110H1033.27C1033.27 98.1259 1042.9 88.5 1054.77 88.5V90V91.5C1044.55 91.5 1036.27 99.7827 1036.27 110H1034.77ZM1015.09 220.334V218.834C1025.13 218.834 1033.27 210.692 1033.27 200.648H1034.77H1036.27C1036.27 212.349 1026.79 221.834 1015.09 221.834V220.334Z" fill="url(#paint14_linear_1386_963)"/>
<path d="M651.46 285V271H656.2C657.307 271 658.213 271.187 658.92 271.56C659.627 271.933 660.147 272.433 660.48 273.06C660.827 273.673 661 274.373 661 275.16C661 275.907 660.827 276.6 660.48 277.24C660.147 277.867 659.62 278.373 658.9 278.76C658.18 279.133 657.26 279.32 656.14 279.32H653.46V285H651.46ZM658.82 285L655.8 278.78H658L661.14 285H658.82ZM653.46 277.8H656.06C657.047 277.8 657.773 277.56 658.24 277.08C658.707 276.587 658.94 275.96 658.94 275.2C658.94 274.427 658.713 273.813 658.26 273.36C657.807 272.907 657.073 272.68 656.06 272.68H653.46V277.8ZM667.883 285.24C666.937 285.24 666.083 285.02 665.323 284.58C664.577 284.14 663.983 283.527 663.543 282.74C663.117 281.94 662.903 281.02 662.903 279.98C662.903 278.913 663.123 277.987 663.563 277.2C664.003 276.4 664.603 275.78 665.363 275.34C666.123 274.9 666.977 274.68 667.923 274.68C668.883 274.68 669.737 274.9 670.483 275.34C671.23 275.78 671.817 276.393 672.243 277.18C672.683 277.967 672.903 278.893 672.903 279.96C672.903 281.027 672.683 281.953 672.243 282.74C671.817 283.527 671.223 284.14 670.463 284.58C669.703 285.02 668.843 285.24 667.883 285.24ZM667.883 283.52C668.43 283.52 668.923 283.387 669.363 283.12C669.817 282.853 670.177 282.46 670.443 281.94C670.723 281.407 670.863 280.747 670.863 279.96C670.863 279.173 670.73 278.52 670.463 278C670.197 277.467 669.837 277.067 669.383 276.8C668.943 276.533 668.457 276.4 667.923 276.4C667.39 276.4 666.897 276.533 666.443 276.8C665.99 277.067 665.623 277.467 665.343 278C665.077 278.52 664.943 279.173 664.943 279.96C664.943 280.747 665.077 281.407 665.343 281.94C665.623 282.46 665.983 282.853 666.423 283.12C666.877 283.387 667.363 283.52 667.883 283.52ZM679.356 285.24C678.569 285.24 677.883 285.08 677.296 284.76C676.723 284.44 676.276 283.96 675.956 283.32C675.649 282.68 675.496 281.873 675.496 280.9V274.92H677.496V280.68C677.496 281.627 677.703 282.34 678.116 282.82C678.529 283.3 679.123 283.54 679.896 283.54C680.416 283.54 680.883 283.413 681.296 283.16C681.723 282.907 682.056 282.54 682.296 282.06C682.536 281.58 682.656 280.993 682.656 280.3V274.92H684.656V285H682.876L682.736 283.28C682.429 283.893 681.983 284.373 681.396 284.72C680.809 285.067 680.129 285.24 679.356 285.24ZM691.954 285C691.314 285 690.761 284.9 690.294 284.7C689.828 284.5 689.468 284.167 689.214 283.7C688.961 283.233 688.834 282.6 688.834 281.8V276.62H687.094V274.92H688.834L689.074 272.4H690.834V274.92H693.694V276.62H690.834V281.82C690.834 282.393 690.954 282.787 691.194 283C691.434 283.2 691.848 283.3 692.434 283.3H693.594V285H691.954ZM696.44 285V274.92H698.44V285H696.44ZM697.46 273.02C697.073 273.02 696.753 272.9 696.5 272.66C696.26 272.42 696.14 272.113 696.14 271.74C696.14 271.38 696.26 271.087 696.5 270.86C696.753 270.62 697.073 270.5 697.46 270.5C697.833 270.5 698.147 270.62 698.4 270.86C698.653 271.087 698.78 271.38 698.78 271.74C698.78 272.113 698.653 272.42 698.4 272.66C698.147 272.9 697.833 273.02 697.46 273.02ZM701.7 285V274.92H703.5L703.62 276.64C703.94 276.04 704.393 275.567 704.98 275.22C705.567 274.86 706.24 274.68 707 274.68C707.8 274.68 708.487 274.84 709.06 275.16C709.633 275.48 710.08 275.967 710.4 276.62C710.72 277.26 710.88 278.067 710.88 279.04V285H708.88V279.24C708.88 278.307 708.673 277.6 708.26 277.12C707.847 276.64 707.247 276.4 706.46 276.4C705.94 276.4 705.473 276.527 705.06 276.78C704.647 277.02 704.313 277.38 704.06 277.86C703.82 278.34 703.7 278.927 703.7 279.62V285H701.7ZM717.938 289.64C717.018 289.64 716.205 289.52 715.498 289.28C714.791 289.053 714.245 288.7 713.858 288.22C713.471 287.74 713.278 287.153 713.278 286.46C713.278 286.1 713.358 285.733 713.518 285.36C713.678 285 713.938 284.653 714.298 284.32C714.658 283.987 715.145 283.687 715.758 283.42L716.878 284.32C716.198 284.573 715.738 284.873 715.498 285.22C715.271 285.58 715.158 285.927 715.158 286.26C715.158 286.66 715.278 286.993 715.518 287.26C715.758 287.527 716.085 287.727 716.498 287.86C716.925 287.993 717.405 288.06 717.938 288.06C718.458 288.06 718.911 287.987 719.298 287.84C719.685 287.693 719.985 287.487 720.198 287.22C720.411 286.953 720.518 286.64 720.518 286.28C720.518 285.853 720.358 285.493 720.038 285.2C719.718 284.92 719.105 284.753 718.198 284.7C717.438 284.647 716.791 284.573 716.258 284.48C715.738 284.387 715.291 284.273 714.918 284.14C714.558 284.007 714.251 283.86 713.998 283.7C713.758 283.54 713.551 283.373 713.378 283.2V282.74L715.378 280.68L716.998 281.24L714.818 283.26L715.238 282.36C715.385 282.453 715.525 282.547 715.658 282.64C715.791 282.72 715.971 282.793 716.198 282.86C716.425 282.927 716.731 282.987 717.118 283.04C717.505 283.093 718.011 283.147 718.638 283.2C719.545 283.267 720.271 283.427 720.818 283.68C721.378 283.933 721.785 284.273 722.038 284.7C722.291 285.127 722.418 285.633 722.418 286.22C722.418 286.793 722.258 287.34 721.938 287.86C721.631 288.38 721.145 288.807 720.478 289.14C719.825 289.473 718.978 289.64 717.938 289.64ZM717.938 281.9C717.085 281.9 716.358 281.74 715.758 281.42C715.171 281.1 714.718 280.667 714.398 280.12C714.091 279.573 713.938 278.967 713.938 278.3C713.938 277.62 714.091 277.013 714.398 276.48C714.718 275.933 715.178 275.5 715.778 275.18C716.378 274.847 717.098 274.68 717.938 274.68C718.778 274.68 719.491 274.847 720.078 275.18C720.678 275.5 721.131 275.933 721.438 276.48C721.758 277.013 721.918 277.62 721.918 278.3C721.918 278.967 721.758 279.573 721.438 280.12C721.131 280.667 720.678 281.1 720.078 281.42C719.491 281.74 718.778 281.9 717.938 281.9ZM717.938 280.3C718.591 280.3 719.111 280.133 719.498 279.8C719.885 279.453 720.078 278.953 720.078 278.3C720.078 277.647 719.885 277.153 719.498 276.82C719.111 276.473 718.591 276.3 717.938 276.3C717.285 276.3 716.758 276.473 716.358 276.82C715.958 277.153 715.758 277.647 715.758 278.3C715.758 278.953 715.958 279.453 716.358 279.8C716.758 280.133 717.285 280.3 717.938 280.3ZM719.578 276.5L719.098 274.92H723.238V276.3L719.578 276.5Z" fill="white"/>
<defs>
<linearGradient id="paint0_linear_1386_963" x1="76.0188" y1="174.008" x2="140" y2="174.008" gradientUnits="userSpaceOnUse">
<stop stop-color="#FFA68D"/>
<stop offset="1" stop-color="#FD3A84"/>
</linearGradient>
<linearGradient id="paint1_linear_1386_963" x1="220.019" y1="94.0082" x2="284" y2="94.0082" gradientUnits="userSpaceOnUse">
<stop stop-color="#FFA68D"/>
<stop offset="1" stop-color="#FD3A84"/>
</linearGradient>
<linearGradient id="paint2_linear_1386_963" x1="655.019" y1="218.008" x2="719" y2="218.008" gradientUnits="userSpaceOnUse">
<stop stop-color="#FFA68D"/>
<stop offset="1" stop-color="#FD3A84"/>
</linearGradient>
<linearGradient id="paint3_linear_1386_963" x1="932.019" y1="218.008" x2="996" y2="218.008" gradientUnits="userSpaceOnUse">
<stop stop-color="#FFA68D"/>
<stop offset="1" stop-color="#FD3A84"/>
</linearGradient>
<linearGradient id="paint4_linear_1386_963" x1="362.019" y1="209.008" x2="426" y2="209.008" gradientUnits="userSpaceOnUse">
<stop stop-color="#FFA68D"/>
<stop offset="1" stop-color="#FD3A84"/>
</linearGradient>
<linearGradient id="paint5_linear_1386_963" x1="506.019" y1="94.0082" x2="570" y2="94.0082" gradientUnits="userSpaceOnUse">
<stop stop-color="#FFA68D"/>
<stop offset="1" stop-color="#FD3A84"/>
</linearGradient>
<linearGradient id="paint6_linear_1386_963" x1="796.019" y1="90.0082" x2="860" y2="90.0082" gradientUnits="userSpaceOnUse">
<stop stop-color="#FFA68D"/>
<stop offset="1" stop-color="#FD3A84"/>
</linearGradient>
<linearGradient id="paint7_linear_1386_963" x1="1067.02" y1="90.0082" x2="1131" y2="90.0082" gradientUnits="userSpaceOnUse">
<stop stop-color="#FFA68D"/>
<stop offset="1" stop-color="#FD3A84"/>
</linearGradient>
<linearGradient id="paint8_linear_1386_963" x1="152.015" y1="134.01" x2="204" y2="134.01" gradientUnits="userSpaceOnUse">
<stop stop-color="#FFA68D"/>
<stop offset="1" stop-color="#FD3A84"/>
</linearGradient>
<linearGradient id="paint9_linear_1386_963" x1="295.016" y1="148.015" x2="348" y2="148.015" gradientUnits="userSpaceOnUse">
<stop stop-color="#FFA68D"/>
<stop offset="1" stop-color="#FD3A84"/>
</linearGradient>
<linearGradient id="paint10_linear_1386_963" x1="440.015" y1="154.015" x2="492" y2="154.015" gradientUnits="userSpaceOnUse">
<stop stop-color="#FFA68D"/>
<stop offset="1" stop-color="#FD3A84"/>
</linearGradient>
<linearGradient id="paint11_linear_1386_963" x1="587.015" y1="154.015" x2="639" y2="154.015" gradientUnits="userSpaceOnUse">
<stop stop-color="#FFA68D"/>
<stop offset="1" stop-color="#FD3A84"/>
</linearGradient>
<linearGradient id="paint12_linear_1386_963" x1="736.015" y1="158.016" x2="788" y2="158.016" gradientUnits="userSpaceOnUse">
<stop stop-color="#FFA68D"/>
<stop offset="1" stop-color="#FD3A84"/>
</linearGradient>
<linearGradient id="paint13_linear_1386_963" x1="868.016" y1="155.983" x2="921" y2="155.983" gradientUnits="userSpaceOnUse">
<stop stop-color="#FFA68D"/>
<stop offset="1" stop-color="#FD3A84"/>
</linearGradient>
<linearGradient id="paint14_linear_1386_963" x1="1006.02" y1="156.483" x2="1059" y2="156.483" gradientUnits="userSpaceOnUse">
<stop stop-color="#FFA68D"/>
<stop offset="1" stop-color="#FD3A84"/>
</linearGradient>
</defs>
</svg>
