<svg width="32" height="32" viewBox="0 0 32 32" fill="none" xmlns="http://www.w3.org/2000/svg">
<path d="M28 6.66602C28 8.87515 22.6274 10.666 16 10.666C9.37258 10.666 4 8.87515 4 6.66602M28 6.66602C28 4.45688 22.6274 2.66602 16 2.66602C9.37258 2.66602 4 4.45688 4 6.66602M28 6.66602V25.3327C28 26.3935 26.7357 27.411 24.4853 28.1611C22.2348 28.9113 19.1826 29.3327 16 29.3327C12.8174 29.3327 9.76516 28.9113 7.51472 28.1611C5.26428 27.411 4 26.3935 4 25.3327V6.66602M4 15.9993C4 17.0602 5.26428 18.0776 7.51472 18.8278C9.76516 19.5779 12.8174 19.9993 16 19.9993C19.1826 19.9993 22.2348 19.5779 24.4853 18.8278C26.7357 18.0776 28 17.0602 28 15.9993" stroke="url(#paint0_linear_836_871)" stroke-width="2" stroke-linecap="round" stroke-linejoin="round"/>
<defs>
<linearGradient id="paint0_linear_836_871" x1="4.00703" y1="16.0028" x2="28" y2="16.0028" gradientUnits="userSpaceOnUse">
<stop stop-color="#FFA68D"/>
<stop offset="1" stop-color="#FD3A84"/>
</linearGradient>
</defs>
</svg>
