<svg width="1463" height="294" viewBox="0 0 1463 294" fill="none" xmlns="http://www.w3.org/2000/svg">
<path d="M515.64 66.9268C512.159 66.6045 508.645 66.411 504.97 66.411C477.826 66.411 454.679 76.0823 435.369 95.2313C416.22 114.38 406.742 137.527 406.742 164.832V291.235H388.431V164.832C388.27 132.53 399.586 104.87 422.41 82.0784C445.234 59.4478 472.7 48.1002 504.841 48.1002C508.516 48.1002 512.159 48.2614 515.672 48.616V66.9268H515.64Z" fill="url(#paint0_linear_1132_1427)"/>
<path d="M666.893 176.471C666.893 203.776 676.371 226.922 695.52 246.071C714.83 265.22 737.976 274.891 765.12 274.891C768.795 274.891 772.277 274.73 775.791 274.376V292.686C772.309 293.009 768.634 293.202 764.959 293.202C732.818 293.202 705.352 281.887 682.528 259.224C659.704 236.4 648.388 208.772 648.55 176.471V22.7626H666.86V51.3895H775.758V69.7003H666.893V176.471Z" fill="url(#paint1_linear_1132_1427)"/>
<path d="M855.873 106.738C860.354 98.9044 865.544 91.5865 871.701 84.7522C892.849 60.9287 918.317 48.9364 948.136 48.9364C977.956 48.9364 1003.58 60.9287 1024.73 84.9133C1045.88 108.737 1056.71 137.686 1057.03 171.503V290.395H1040.21V171.503C1039.88 142.876 1030.73 118.376 1012.9 98.2274C995.074 78.079 973.443 67.9242 948.298 67.9242C923.152 67.9242 901.521 77.9178 883.533 98.0662C865.705 118.215 856.55 142.522 856.066 170.987V290.395H839.238V0H855.905V106.738H855.873Z" fill="url(#paint2_linear_1132_1427)"/>
<path d="M1463 290.396H1446.33V137.365C1446.01 117.539 1438.66 100.55 1424.35 86.5586C1409.87 72.4064 1392.72 65.4109 1372.57 65.4109C1352.43 65.4109 1335.28 72.4064 1320.8 86.5586C1306.49 100.55 1299.17 117.539 1298.81 137.365V290.396H1281.99V137.365C1281.66 117.539 1274.31 100.55 1260 86.5586C1245.69 72.4064 1228.38 65.4109 1208.23 65.4109C1188.08 65.4109 1170.93 72.4064 1156.62 86.5586C1142.14 100.55 1134.79 117.539 1134.63 137.365V290.396H1117.8V137.365C1118.12 112.897 1127.12 91.9101 1144.78 74.7598C1162.45 57.6094 1183.6 48.9376 1208.23 48.9376C1226.22 48.9376 1242.69 53.7732 1257.68 63.4122C1272.15 72.89 1283.15 85.3981 1290.5 101.033C1297.65 85.3659 1308.65 72.89 1323.32 63.4122C1338.31 53.741 1354.78 48.9376 1372.61 48.9376C1397.43 48.9376 1418.74 57.6094 1436.37 74.7598C1454.01 92.2324 1462.84 113.219 1463 137.881V290.396Z" fill="url(#paint3_linear_1132_1427)"/>
<path d="M122.728 275.088C123.179 275.088 123.631 275.056 124.082 275.056H122.115C122.309 275.088 122.502 275.088 122.728 275.088Z" fill="url(#paint4_linear_1132_1427)"/>
<path d="M209.64 82.9188C185.655 58.9341 156.674 46.9418 122.889 46.9418C89.1042 46.9418 60.1228 58.9341 36.1381 82.9188C12.1535 106.903 0.161187 135.885 0 169.67C0 203.487 11.9923 232.436 35.9769 256.421C59.9293 280.405 88.9108 292.397 122.728 292.397C156.545 292.397 245.456 291.495 245.456 291.495V169.67C245.617 135.885 233.624 106.903 209.64 82.9188ZM197.325 244.267C194.553 247.007 191.684 249.586 188.75 251.972L210.22 274.345L124.05 275.054C123.598 275.054 123.147 275.086 122.696 275.086C122.502 275.086 122.276 275.086 122.083 275.086H121.954C93.1339 274.893 68.569 264.609 48.0982 244.299C27.6275 223.635 17.3115 198.812 17.3115 169.67C17.3115 140.527 27.6275 115.704 48.1304 95.0723C68.7624 74.6015 93.5852 64.2533 122.728 64.2533C151.87 64.2533 176.693 74.5693 197.325 95.0723C217.796 115.704 228.144 140.527 228.144 169.67C228.112 198.812 217.796 223.635 197.325 244.267Z" fill="url(#paint5_linear_1132_1427)"/>
<path d="M121.953 275.087H122.082C122.05 275.087 122.017 275.055 121.953 275.087Z" fill="url(#paint6_linear_1132_1427)"/>
<path d="M586.074 78.5981H568.601V290.559H586.074V78.5981Z" fill="url(#paint7_linear_1132_1427)"/>
<path d="M586.074 51.5797H568.601V65.2484H586.074V51.5797Z" fill="url(#paint8_linear_1132_1427)"/>
<path d="M323.892 51.5797H306.419V65.2484H323.892V51.5797Z" fill="url(#paint9_linear_1132_1427)"/>
<path d="M323.892 78.5981H306.419V290.559H323.892V78.5981Z" fill="url(#paint10_linear_1132_1427)"/>
<path d="M117 157C117 168.046 108.046 177 97 177C85.9543 177 77 168.046 77 157C77 145.954 85.9543 137 97 137C108.046 137 117 145.954 117 157Z" fill="url(#paint11_linear_1132_1427)"/>
<path d="M165 157C165 168.046 156.046 177 145 177C133.954 177 125 168.046 125 157C125 145.954 133.954 137 145 137C156.046 137 165 145.954 165 157Z" fill="url(#paint12_linear_1132_1427)"/>
<path d="M213 157C213 168.046 204.046 177 193 177C181.954 177 173 168.046 173 157C173 145.954 181.954 137 193 137C204.046 137 213 145.954 213 157Z" fill="url(#paint13_linear_1132_1427)"/>
<defs>
<linearGradient id="paint0_linear_1132_1427" x1="694.031" y1="45.199" x2="692.583" y2="292.773" gradientUnits="userSpaceOnUse">
<stop stop-color="white"/>
<stop offset="1" stop-color="#999999"/>
</linearGradient>
<linearGradient id="paint1_linear_1132_1427" x1="694.031" y1="45.199" x2="692.583" y2="292.773" gradientUnits="userSpaceOnUse">
<stop stop-color="white"/>
<stop offset="1" stop-color="#999999"/>
</linearGradient>
<linearGradient id="paint2_linear_1132_1427" x1="694.031" y1="45.199" x2="692.583" y2="292.773" gradientUnits="userSpaceOnUse">
<stop stop-color="white"/>
<stop offset="1" stop-color="#999999"/>
</linearGradient>
<linearGradient id="paint3_linear_1132_1427" x1="694.031" y1="45.199" x2="692.583" y2="292.773" gradientUnits="userSpaceOnUse">
<stop stop-color="white"/>
<stop offset="1" stop-color="#999999"/>
</linearGradient>
<linearGradient id="paint4_linear_1132_1427" x1="694.031" y1="45.199" x2="692.583" y2="292.773" gradientUnits="userSpaceOnUse">
<stop stop-color="white"/>
<stop offset="1" stop-color="#999999"/>
</linearGradient>
<linearGradient id="paint5_linear_1132_1427" x1="694.031" y1="45.199" x2="692.583" y2="292.773" gradientUnits="userSpaceOnUse">
<stop stop-color="white"/>
<stop offset="1" stop-color="#999999"/>
</linearGradient>
<linearGradient id="paint6_linear_1132_1427" x1="694.031" y1="45.199" x2="692.583" y2="292.773" gradientUnits="userSpaceOnUse">
<stop stop-color="white"/>
<stop offset="1" stop-color="#999999"/>
</linearGradient>
<linearGradient id="paint7_linear_1132_1427" x1="694.031" y1="45.199" x2="692.583" y2="292.773" gradientUnits="userSpaceOnUse">
<stop stop-color="white"/>
<stop offset="1" stop-color="#999999"/>
</linearGradient>
<linearGradient id="paint8_linear_1132_1427" x1="694.031" y1="45.199" x2="692.583" y2="292.773" gradientUnits="userSpaceOnUse">
<stop stop-color="white"/>
<stop offset="1" stop-color="#999999"/>
</linearGradient>
<linearGradient id="paint9_linear_1132_1427" x1="694.031" y1="45.199" x2="692.583" y2="292.773" gradientUnits="userSpaceOnUse">
<stop stop-color="white"/>
<stop offset="1" stop-color="#999999"/>
</linearGradient>
<linearGradient id="paint10_linear_1132_1427" x1="694.031" y1="45.199" x2="692.583" y2="292.773" gradientUnits="userSpaceOnUse">
<stop stop-color="white"/>
<stop offset="1" stop-color="#999999"/>
</linearGradient>
<linearGradient id="paint11_linear_1132_1427" x1="97" y1="137" x2="97" y2="177" gradientUnits="userSpaceOnUse">
<stop stop-color="white"/>
<stop offset="1" stop-color="#999999"/>
</linearGradient>
<linearGradient id="paint12_linear_1132_1427" x1="145" y1="137" x2="145" y2="177" gradientUnits="userSpaceOnUse">
<stop stop-color="white"/>
<stop offset="1" stop-color="#999999"/>
</linearGradient>
<linearGradient id="paint13_linear_1132_1427" x1="193" y1="137" x2="193" y2="177" gradientUnits="userSpaceOnUse">
<stop stop-color="white"/>
<stop offset="1" stop-color="#999999"/>
</linearGradient>
</defs>
</svg>
