<svg width="23" height="176" viewBox="0 0 23 176" fill="none" xmlns="http://www.w3.org/2000/svg">
<path d="M11.0469 165C8.54688 165 6.54688 167 6.54688 169.5C6.54688 172 8.54688 174 11.0469 174C13.5469 174 15.5469 172 15.5469 169.5C15.5469 167 13.5469 165 11.0469 165Z" fill="white"/>
<path d="M12.1075 0.43934C11.5217 -0.146447 10.572 -0.146447 9.98621 0.43934L0.440273 9.98528C-0.145513 10.5711 -0.145513 11.5208 0.440273 12.1066C1.02606 12.6924 1.97581 12.6924 2.56159 12.1066L11.0469 3.62132L19.5322 12.1066C20.1179 12.6924 21.0677 12.6924 21.6535 12.1066C22.2393 11.5208 22.2393 10.5711 21.6535 9.98528L12.1075 0.43934ZM6.54688 169.5H8.04688C8.04688 167.828 9.3753 166.5 11.0469 166.5V165V163.5C7.71845 163.5 5.04688 166.172 5.04688 169.5H6.54688ZM11.0469 165V166.5C12.7184 166.5 14.0469 167.828 14.0469 169.5H15.5469H17.0469C17.0469 166.172 14.3753 163.5 11.0469 163.5V165ZM15.5469 169.5H14.0469C14.0469 171.172 12.7184 172.5 11.0469 172.5V174V175.5C14.3753 175.5 17.0469 172.828 17.0469 169.5H15.5469ZM11.0469 174V172.5C9.3753 172.5 8.04688 171.172 8.04688 169.5H6.54688H5.04688C5.04688 172.828 7.71845 175.5 11.0469 175.5V174ZM11.0469 165H12.5469V1.5H11.0469H9.54688V165H11.0469Z" fill="url(#paint0_linear_1386_962)"/>
<defs>
<linearGradient id="paint0_linear_1386_962" x1="6.54951" y1="87.7722" x2="15.5469" y2="87.7722" gradientUnits="userSpaceOnUse">
<stop stop-color="#FFA68D"/>
<stop offset="1" stop-color="#FD3A84"/>
</linearGradient>
</defs>
</svg>
