<svg width="32" height="32" viewBox="0 0 32 32" fill="none" xmlns="http://www.w3.org/2000/svg">
<path d="M7.9974 14.666H13.3307M10.6641 11.9993V17.3327M19.9974 15.9993H20.0107M23.9974 13.3327H24.0107M23.0907 6.66602H8.90406C7.58443 6.66632 6.31178 7.15585 5.33211 8.03997C4.35244 8.92408 3.73532 10.14 3.60006 11.4527C3.59206 11.522 3.58673 11.5873 3.5774 11.6553C3.4694 12.554 2.66406 19.274 2.66406 21.3327C2.66406 22.3935 3.08549 23.411 3.83564 24.1611C4.58578 24.9113 5.6032 25.3327 6.66406 25.3327C7.9974 25.3327 8.66406 24.666 9.33073 23.9993L11.2161 22.114C11.716 21.6139 12.3942 21.3328 13.1014 21.3327H18.8934C19.6006 21.3328 20.2787 21.6139 20.7787 22.114L22.6641 23.9993C23.3307 24.666 23.9974 25.3327 25.3307 25.3327C26.3916 25.3327 27.409 24.9113 28.1592 24.1611C28.9093 23.411 29.3307 22.3935 29.3307 21.3327C29.3307 19.2727 28.5254 12.554 28.4174 11.6553C28.4081 11.5887 28.4027 11.522 28.3947 11.454C28.2598 10.1411 27.6428 8.92485 26.6631 8.04046C25.6834 7.15607 24.4106 6.66636 23.0907 6.66602Z" stroke="url(#paint0_linear_2270_965)" stroke-width="2" stroke-linecap="round" stroke-linejoin="round"/>
<defs>
<linearGradient id="paint0_linear_2270_965" x1="2.67188" y1="16.0018" x2="29.3307" y2="16.0018" gradientUnits="userSpaceOnUse">
<stop stop-color="#FFA68D"/>
<stop offset="1" stop-color="#FD3A84"/>
</linearGradient>
</defs>
</svg>
