<svg width="48" height="48" viewBox="0 0 48 48" fill="none" xmlns="http://www.w3.org/2000/svg">
<rect width="48" height="48" rx="4" fill="url(#paint0_linear_2078_425)" fill-opacity="0.15"/>
<path d="M14.6641 29.3337V25.3337C14.6641 24.98 14.8045 24.6409 15.0546 24.3908C15.3046 24.1408 15.6438 24.0003 15.9974 24.0003H31.9974C32.351 24.0003 32.6902 24.1408 32.9402 24.3908C33.1903 24.6409 33.3307 24.98 33.3307 25.3337V29.3337M23.9974 24.0003V18.667M30.6641 29.3337H35.9974C36.7338 29.3337 37.3307 29.9306 37.3307 30.667V36.0003C37.3307 36.7367 36.7338 37.3337 35.9974 37.3337H30.6641C29.9277 37.3337 29.3307 36.7367 29.3307 36.0003V30.667C29.3307 29.9306 29.9277 29.3337 30.6641 29.3337ZM11.9974 29.3337H17.3307C18.0671 29.3337 18.6641 29.9306 18.6641 30.667V36.0003C18.6641 36.7367 18.0671 37.3337 17.3307 37.3337H11.9974C11.261 37.3337 10.6641 36.7367 10.6641 36.0003V30.667C10.6641 29.9306 11.261 29.3337 11.9974 29.3337ZM21.3307 10.667H26.6641C27.4004 10.667 27.9974 11.2639 27.9974 12.0003V17.3337C27.9974 18.07 27.4004 18.667 26.6641 18.667H21.3307C20.5943 18.667 19.9974 18.07 19.9974 17.3337V12.0003C19.9974 11.2639 20.5943 10.667 21.3307 10.667Z" stroke="url(#paint1_linear_2078_425)" stroke-width="2" stroke-linecap="round" stroke-linejoin="round"/>
<defs>
<linearGradient id="paint0_linear_2078_425" x1="0.0140648" y1="24.0062" x2="48" y2="24.0062" gradientUnits="userSpaceOnUse">
<stop stop-color="#FFA68D"/>
<stop offset="1" stop-color="#FD3A84"/>
</linearGradient>
<linearGradient id="paint1_linear_2078_425" x1="10.6719" y1="24.0038" x2="37.3307" y2="24.0038" gradientUnits="userSpaceOnUse">
<stop stop-color="#FFA68D"/>
<stop offset="1" stop-color="#FD3A84"/>
</linearGradient>
</defs>
</svg>
