<svg width="20" height="20" viewBox="0 0 20 20" fill="none" xmlns="http://www.w3.org/2000/svg">
<g clip-path="url(#clip0_374_152)">
<path d="M18.3307 9.99996C18.3307 11.6481 17.842 13.2593 16.9263 14.6297C16.0106 16.0001 14.7091 17.0682 13.1864 17.699C11.6637 18.3297 9.98816 18.4947 8.37165 18.1732C6.75514 17.8516 5.27028 17.058 4.10484 15.8925C2.93941 14.7271 2.14573 13.2422 1.82419 11.6257C1.50265 10.0092 1.66767 8.33365 2.2984 6.81093C2.92913 5.28821 3.99724 3.98672 5.36765 3.07105C6.73806 2.15537 8.34922 1.66663 9.9974 1.66663M18.3307 1.66663L9.9974 9.99996M18.3307 1.66663H13.3307M18.3307 1.66663V6.66663" stroke="url(#paint0_linear_374_152)" stroke-width="2" stroke-linecap="round" stroke-linejoin="round"/>
</g>
<defs>
<linearGradient id="paint0_linear_374_152" x1="3.2572" y1="12.8333" x2="16.2788" y2="12.0738" gradientUnits="userSpaceOnUse">
<stop stop-color="#C44558"/>
<stop offset="1" stop-color="#FF7F7F"/>
</linearGradient>
<clipPath id="clip0_374_152">
<rect width="20" height="20" fill="white"/>
</clipPath>
</defs>
</svg>
