<svg width="32" height="32" viewBox="0 0 32 32" fill="none" xmlns="http://www.w3.org/2000/svg">
<path d="M29.337 13.3332V21.3332M8.00364 16.6665V21.3332C8.00364 22.394 8.84649 23.4114 10.3468 24.1616C11.8471 24.9117 13.8819 25.3332 16.0036 25.3332C18.1254 25.3332 20.1602 24.9117 21.6605 24.1616C23.1608 23.4114 24.0036 22.394 24.0036 21.3332V16.6665M28.5636 14.5625C28.8023 14.4572 29.0049 14.2842 29.1462 14.0649C29.2875 13.8456 29.3614 13.5897 29.3587 13.3288C29.356 13.0679 29.2769 12.8136 29.131 12.5973C28.9852 12.381 28.7791 12.2122 28.5383 12.1118L17.1103 6.90649C16.7629 6.74802 16.3855 6.66602 16.0036 6.66602C15.6218 6.66602 15.2444 6.74802 14.897 6.90649L3.4703 12.1065C3.23293 12.2105 3.03099 12.3813 2.88919 12.5982C2.74739 12.8152 2.67188 13.0687 2.67188 13.3278C2.67188 13.587 2.74739 13.8405 2.88919 14.0574C3.03099 14.2743 3.23293 14.4452 3.4703 14.5492L14.897 19.7598C15.2444 19.9183 15.6218 20.0003 16.0036 20.0003C16.3855 20.0003 16.7629 19.9183 17.1103 19.7598L28.5636 14.5625Z" stroke="#C44558" stroke-width="2" stroke-linecap="round" stroke-linejoin="round"/>
</svg>
