<svg width="1036" height="97" viewBox="0 0 1036 97" fill="none" xmlns="http://www.w3.org/2000/svg">
<path d="M1030 1.5C1027.5 1.5 1025.5 3.5 1025.5 6C1025.5 8.5 1027.5 10.5 1030 10.5C1032.5 10.5 1034.5 8.5 1034.5 6C1034.5 3.5 1032.5 1.5 1030 1.5Z" fill="white"/>
<path d="M516.939 96.0607C517.525 96.6464 518.475 96.6464 519.061 96.0607L528.607 86.5147C529.192 85.9289 529.192 84.9792 528.607 84.3934C528.021 83.8076 527.071 83.8076 526.485 84.3934L518 92.8787L509.515 84.3934C508.929 83.8076 507.979 83.8076 507.393 84.3934C506.808 84.9792 506.808 85.9289 507.393 86.5147L516.939 96.0607ZM1025.5 6H1027C1027 4.32843 1028.33 3 1030 3V1.5V0C1026.67 0 1024 2.67157 1024 6H1025.5ZM1030 1.5V3C1031.67 3 1033 4.32843 1033 6H1034.5H1036C1036 2.67157 1033.33 0 1030 0V1.5ZM1034.5 6H1033C1033 7.67157 1031.67 9 1030 9V10.5V12C1033.33 12 1036 9.32843 1036 6H1034.5ZM1030 10.5V9C1028.33 9 1027 7.67157 1027 6H1025.5H1024C1024 9.32843 1026.67 12 1030 12V10.5ZM1030 10.5H1028.5V30.5H1030H1031.5V10.5H1030ZM1010 50.5V49H538V50.5V52H1010V50.5ZM518 70.5H516.5V95H518H519.5V70.5H518ZM538 50.5V49C526.126 49 516.5 58.6259 516.5 70.5H518H519.5C519.5 60.2827 527.783 52 538 52V50.5ZM1030 30.5H1028.5C1028.5 40.7173 1020.22 49 1010 49V50.5V52C1021.87 52 1031.5 42.3741 1031.5 30.5H1030Z" fill="url(#paint0_linear_174_366)"/>
<path d="M6 1.5C3.5 1.5 1.5 3.5 1.5 6C1.5 8.5 3.5 10.5 6 10.5C8.5 10.5 10.5 8.5 10.5 6C10.5 3.5 8.5 1.5 6 1.5Z" fill="white"/>
<path d="M6 10.5C8.5 10.5 10.5 8.5 10.5 6C10.5 3.5 8.5 1.5 6 1.5C3.5 1.5 1.5 3.5 1.5 6C1.5 8.5 3.5 10.5 6 10.5ZM6 10.5V30.5C6 41.5457 14.9543 50.5 26 50.5H498C509.046 50.5 518 59.4543 518 70.5V95" stroke="url(#paint1_linear_174_366)" stroke-width="3"/>
<defs>
<linearGradient id="paint0_linear_174_366" x1="518.151" y1="48.262" x2="1034.5" y2="48.262" gradientUnits="userSpaceOnUse">
<stop stop-color="#FFA68D"/>
<stop offset="1" stop-color="#FD3A84"/>
</linearGradient>
<linearGradient id="paint1_linear_174_366" x1="1.65134" y1="48.262" x2="518" y2="48.262" gradientUnits="userSpaceOnUse">
<stop stop-color="#FFA68D"/>
<stop offset="1" stop-color="#FD3A84"/>
</linearGradient>
</defs>
</svg>
