<svg width="1036" height="97" viewBox="0 0 1036 97" fill="none" xmlns="http://www.w3.org/2000/svg">
<path d="M518 1.5C515.5 1.5 513.5 3.5 513.5 6C513.5 8.5 515.5 10.5 518 10.5C520.5 10.5 522.5 8.5 522.5 6C522.5 3.5 520.5 1.5 518 1.5Z" fill="white"/>
<path d="M516.939 96.0607C517.525 96.6464 518.475 96.6464 519.061 96.0607L528.607 86.5147C529.192 85.9289 529.192 84.9792 528.607 84.3934C528.021 83.8076 527.071 83.8076 526.485 84.3934L518 92.8787L509.515 84.3934C508.929 83.8076 507.979 83.8076 507.393 84.3934C506.808 84.9792 506.808 85.9289 507.393 86.5147L516.939 96.0607ZM513.5 6H515C515 4.32843 516.328 3 518 3V1.5V0C514.672 0 512 2.67157 512 6H513.5ZM518 1.5V3C519.672 3 521 4.32843 521 6H522.5H524C524 2.67157 521.328 0 518 0V1.5ZM522.5 6H521C521 7.67157 519.672 9 518 9V10.5V12C521.328 12 524 9.32843 524 6H522.5ZM518 10.5V9C516.328 9 515 7.67157 515 6H513.5H512C512 9.32843 514.672 12 518 12V10.5ZM518 10.5H516.5V95H518H519.5V10.5H518Z" fill="url(#paint0_linear_1691_198)"/>
<path d="M774 1.5C771.5 1.5 769.5 3.5 769.5 6C769.5 8.5 771.5 10.5 774 10.5C776.5 10.5 778.5 8.5 778.5 6C778.5 3.5 776.5 1.5 774 1.5Z" fill="white"/>
<path d="M516.939 96.0607C517.525 96.6464 518.475 96.6464 519.061 96.0607L528.607 86.5147C529.192 85.9289 529.192 84.9792 528.607 84.3934C528.021 83.8076 527.071 83.8076 526.485 84.3934L518 92.8787L509.515 84.3934C508.929 83.8076 507.979 83.8076 507.393 84.3934C506.808 84.9792 506.808 85.9289 507.393 86.5147L516.939 96.0607ZM769.5 6H771C771 4.32843 772.328 3 774 3V1.5V0C770.672 0 768 2.67157 768 6H769.5ZM774 1.5V3C775.672 3 777 4.32843 777 6H778.5H780C780 2.67157 777.328 0 774 0V1.5ZM778.5 6H777C777 7.67157 775.672 9 774 9V10.5V12C777.328 12 780 9.32843 780 6H778.5ZM774 10.5V9C772.328 9 771 7.67157 771 6H769.5H768C768 9.32843 770.672 12 774 12V10.5ZM774 10.5H772.5V30.5H774H775.5V10.5H774ZM754 50.5V49H538V50.5V52H754V50.5ZM518 70.5H516.5V95H518H519.5V70.5H518ZM538 50.5V49C526.126 49 516.5 58.6259 516.5 70.5H518H519.5C519.5 60.2827 527.783 52 538 52V50.5ZM774 30.5H772.5C772.5 40.7173 764.217 49 754 49V50.5V52C765.874 52 775.5 42.3741 775.5 30.5H774Z" fill="url(#paint1_linear_1691_198)"/>
<path d="M262 1.5C259.5 1.5 257.5 3.5 257.5 6C257.5 8.5 259.5 10.5 262 10.5C264.5 10.5 266.5 8.5 266.5 6C266.5 3.5 264.5 1.5 262 1.5Z" fill="white"/>
<path d="M516.939 96.0607C517.525 96.6464 518.475 96.6464 519.061 96.0607L528.607 86.5147C529.192 85.9289 529.192 84.9792 528.607 84.3934C528.021 83.8076 527.071 83.8076 526.485 84.3934L518 92.8787L509.515 84.3934C508.929 83.8076 507.979 83.8076 507.393 84.3934C506.808 84.9792 506.808 85.9289 507.393 86.5147L516.939 96.0607ZM257.5 6H259C259 4.32843 260.328 3 262 3V1.5V0C258.672 0 256 2.67157 256 6H257.5ZM262 1.5V3C263.672 3 265 4.32843 265 6H266.5H268C268 2.67157 265.328 0 262 0V1.5ZM266.5 6H265C265 7.67157 263.672 9 262 9V10.5V12C265.328 12 268 9.32843 268 6H266.5ZM262 10.5V9C260.328 9 259 7.67157 259 6H257.5H256C256 9.32843 258.672 12 262 12V10.5ZM262 10.5H260.5V30.5H262H263.5V10.5H262ZM282 50.5V52H498V50.5V49H282V50.5ZM518 70.5H516.5V95H518H519.5V70.5H518ZM498 50.5V52C508.217 52 516.5 60.2827 516.5 70.5H518H519.5C519.5 58.6259 509.874 49 498 49V50.5ZM262 30.5H260.5C260.5 42.3741 270.126 52 282 52V50.5V49C271.783 49 263.5 40.7173 263.5 30.5H262Z" fill="url(#paint2_linear_1691_198)"/>
<path d="M1030 1.5C1027.5 1.5 1025.5 3.5 1025.5 6C1025.5 8.5 1027.5 10.5 1030 10.5C1032.5 10.5 1034.5 8.5 1034.5 6C1034.5 3.5 1032.5 1.5 1030 1.5Z" fill="white"/>
<path d="M516.939 96.0607C517.525 96.6464 518.475 96.6464 519.061 96.0607L528.607 86.5147C529.192 85.9289 529.192 84.9792 528.607 84.3934C528.021 83.8076 527.071 83.8076 526.485 84.3934L518 92.8787L509.515 84.3934C508.929 83.8076 507.979 83.8076 507.393 84.3934C506.808 84.9792 506.808 85.9289 507.393 86.5147L516.939 96.0607ZM1025.5 6H1027C1027 4.32843 1028.33 3 1030 3V1.5V0C1026.67 0 1024 2.67157 1024 6H1025.5ZM1030 1.5V3C1031.67 3 1033 4.32843 1033 6H1034.5H1036C1036 2.67157 1033.33 0 1030 0V1.5ZM1034.5 6H1033C1033 7.67157 1031.67 9 1030 9V10.5V12C1033.33 12 1036 9.32843 1036 6H1034.5ZM1030 10.5V9C1028.33 9 1027 7.67157 1027 6H1025.5H1024C1024 9.32843 1026.67 12 1030 12V10.5ZM1030 10.5H1028.5V30.5H1030H1031.5V10.5H1030ZM1010 50.5V49H538V50.5V52H1010V50.5ZM518 70.5H516.5V95H518H519.5V70.5H518ZM538 50.5V49C526.126 49 516.5 58.6259 516.5 70.5H518H519.5C519.5 60.2827 527.783 52 538 52V50.5ZM1030 30.5H1028.5C1028.5 40.7173 1020.22 49 1010 49V50.5V52C1021.87 52 1031.5 42.3741 1031.5 30.5H1030Z" fill="url(#paint3_linear_1691_198)"/>
<path d="M6 1.5C3.5 1.5 1.5 3.5 1.5 6C1.5 8.5 3.5 10.5 6 10.5C8.5 10.5 10.5 8.5 10.5 6C10.5 3.5 8.5 1.5 6 1.5Z" fill="white"/>
<path d="M516.939 96.0607C517.525 96.6464 518.475 96.6464 519.061 96.0607L528.607 86.5147C529.192 85.9289 529.192 84.9792 528.607 84.3934C528.021 83.8076 527.071 83.8076 526.485 84.3934L518 92.8787L509.515 84.3934C508.929 83.8076 507.979 83.8076 507.393 84.3934C506.808 84.9792 506.808 85.9289 507.393 86.5147L516.939 96.0607ZM1.5 6H3C3 4.32843 4.32843 3 6 3V1.5V0C2.67157 0 0 2.67157 0 6H1.5ZM6 1.5V3C7.67157 3 9 4.32843 9 6H10.5H12C12 2.67157 9.32843 0 6 0V1.5ZM10.5 6H9C9 7.67157 7.67157 9 6 9V10.5V12C9.32843 12 12 9.32843 12 6H10.5ZM6 10.5V9C4.32843 9 3 7.67157 3 6H1.5H0C0 9.32843 2.67157 12 6 12V10.5ZM6 10.5H4.5V30.5H6H7.5V10.5H6ZM26 50.5V52H498V50.5V49H26V50.5ZM518 70.5H516.5V95H518H519.5V70.5H518ZM498 50.5V52C508.217 52 516.5 60.2827 516.5 70.5H518H519.5C519.5 58.6259 509.874 49 498 49V50.5ZM6 30.5H4.5C4.5 42.3741 14.1259 52 26 52V50.5V49C15.7827 49 7.5 40.7173 7.5 30.5H6Z" fill="url(#paint4_linear_1691_198)"/>
<defs>
<linearGradient id="paint0_linear_1691_198" x1="513.503" y1="48.262" x2="522.5" y2="48.262" gradientUnits="userSpaceOnUse">
<stop stop-color="#FFA68D"/>
<stop offset="1" stop-color="#FD3A84"/>
</linearGradient>
<linearGradient id="paint1_linear_1691_198" x1="518.076" y1="48.262" x2="778.5" y2="48.262" gradientUnits="userSpaceOnUse">
<stop stop-color="#FFA68D"/>
<stop offset="1" stop-color="#FD3A84"/>
</linearGradient>
<linearGradient id="paint2_linear_1691_198" x1="257.576" y1="48.262" x2="518" y2="48.262" gradientUnits="userSpaceOnUse">
<stop stop-color="#FFA68D"/>
<stop offset="1" stop-color="#FD3A84"/>
</linearGradient>
<linearGradient id="paint3_linear_1691_198" x1="518.151" y1="48.262" x2="1034.5" y2="48.262" gradientUnits="userSpaceOnUse">
<stop stop-color="#FFA68D"/>
<stop offset="1" stop-color="#FD3A84"/>
</linearGradient>
<linearGradient id="paint4_linear_1691_198" x1="1.65134" y1="48.262" x2="518" y2="48.262" gradientUnits="userSpaceOnUse">
<stop stop-color="#FFA68D"/>
<stop offset="1" stop-color="#FD3A84"/>
</linearGradient>
</defs>
</svg>
