<svg width="32" height="32" viewBox="0 0 32 32" fill="none" xmlns="http://www.w3.org/2000/svg">
<path d="M4.29073 17.334H12.6641L13.3307 16.0007L15.9974 22.0007L18.6641 12.6674L20.6641 17.334H27.6907M2.66406 12.6674C2.66409 11.1836 3.11419 9.73482 3.95491 8.51226C4.79563 7.2897 5.98742 6.35092 7.37287 5.8199C8.75833 5.28889 10.2723 5.19063 11.7147 5.5381C13.1572 5.88556 14.4604 6.66241 15.4521 7.76604C15.5219 7.84072 15.6064 7.90026 15.7002 7.94097C15.794 7.98168 15.8951 8.00268 15.9974 8.00268C16.0997 8.00268 16.2008 7.98168 16.2946 7.94097C16.3884 7.90026 16.4729 7.84072 16.5427 7.76604C17.5313 6.65524 18.8348 5.87186 20.2796 5.52017C21.7244 5.16849 23.2421 5.26517 24.6306 5.79735C26.0191 6.32953 27.2126 7.27197 28.0522 8.49924C28.8919 9.72651 29.3378 11.1804 29.3307 12.6674C29.3307 15.7207 27.3307 18.0007 25.3307 20.0007L18.0081 27.0847C17.7596 27.37 17.4533 27.5993 17.1095 27.7571C16.7656 27.915 16.3921 27.9978 16.0138 28.0002C15.6354 28.0026 15.2609 27.9245 14.9151 27.771C14.5693 27.6175 14.2601 27.3922 14.0081 27.11L6.66406 20.0007C4.66406 18.0007 2.66406 15.734 2.66406 12.6674Z" stroke="url(#paint0_linear_2270_959)" stroke-width="2" stroke-linecap="round" stroke-linejoin="round"/>
<defs>
<linearGradient id="paint0_linear_2270_959" x1="2.67188" y1="16.6593" x2="29.3308" y2="16.6593" gradientUnits="userSpaceOnUse">
<stop stop-color="#FFA68D"/>
<stop offset="1" stop-color="#FD3A84"/>
</linearGradient>
</defs>
</svg>
