<svg width="29" height="29" viewBox="0 0 29 29" fill="none" xmlns="http://www.w3.org/2000/svg">
<path d="M2.39844 14.3989C2.39787 14.6284 2.46314 14.8533 2.5865 15.0468C2.70986 15.2404 2.88614 15.3945 3.09444 15.4909L13.4144 20.1829C13.7255 20.3237 14.063 20.3966 14.4044 20.3966C14.7459 20.3966 15.0834 20.3237 15.3944 20.1829L25.6904 15.5029C25.9028 15.4074 26.0829 15.2522 26.2086 15.0561C26.3343 14.8601 26.4003 14.6317 26.3984 14.3989M2.39844 20.3989C2.39787 20.6284 2.46314 20.8533 2.5865 21.0468C2.70986 21.2404 2.88614 21.3945 3.09444 21.4909L13.4144 26.1829C13.7255 26.3237 14.063 26.3966 14.4044 26.3966C14.7459 26.3966 15.0834 26.3237 15.3944 26.1829L25.6904 21.5029C25.9028 21.4074 26.0829 21.2522 26.2086 21.0561C26.3343 20.8601 26.4003 20.6317 26.3984 20.3989M15.3944 2.61487C15.0818 2.47224 14.7421 2.39844 14.3984 2.39844C14.0548 2.39844 13.7151 2.47224 13.4024 2.61487L3.11844 7.29487C2.9055 7.38876 2.72446 7.54254 2.59736 7.73749C2.47026 7.93244 2.40259 8.16014 2.40259 8.39287C2.40259 8.62559 2.47026 8.85329 2.59736 9.04824C2.72446 9.24319 2.9055 9.39697 3.11844 9.49087L13.4144 14.1829C13.7271 14.3255 14.0668 14.3993 14.4104 14.3993C14.7541 14.3993 15.0938 14.3255 15.4064 14.1829L25.7024 9.50287C25.9154 9.40897 26.0964 9.25519 26.2235 9.06024C26.3506 8.86529 26.4183 8.63759 26.4183 8.40487C26.4183 8.17214 26.3506 7.94444 26.2235 7.74949C26.0964 7.55454 25.9154 7.40076 25.7024 7.30687L15.3944 2.61487Z" stroke="url(#paint0_linear_2282_296)" stroke-width="2.4" stroke-linecap="round" stroke-linejoin="round"/>
<defs>
<linearGradient id="paint0_linear_2282_296" x1="2.40548" y1="14.4006" x2="26.4183" y2="14.4006" gradientUnits="userSpaceOnUse">
<stop stop-color="#FFA68D"/>
<stop offset="1" stop-color="#FD3A84"/>
</linearGradient>
</defs>
</svg>
