<svg width="20" height="20" viewBox="0 0 20 20" fill="none" xmlns="http://www.w3.org/2000/svg">
<path d="M5.59844 8.79961V5.59961C5.59844 4.53874 6.01986 3.52133 6.77001 2.77118C7.52016 2.02104 8.53757 1.59961 9.59844 1.59961C10.6593 1.59961 11.6767 2.02104 12.4269 2.77118C13.177 3.52133 13.5984 4.53874 13.5984 5.59961V8.79961M3.99844 8.79961H15.1984C16.0821 8.79961 16.7984 9.51595 16.7984 10.3996V15.9996C16.7984 16.8833 16.0821 17.5996 15.1984 17.5996H3.99844C3.11478 17.5996 2.39844 16.8833 2.39844 15.9996V10.3996C2.39844 9.51595 3.11478 8.79961 3.99844 8.79961Z" stroke="url(#paint0_linear_2220_1186)" stroke-width="1.2" stroke-linecap="round" stroke-linejoin="round"/>
<defs>
<linearGradient id="paint0_linear_2220_1186" x1="2.40266" y1="9.60167" x2="16.7984" y2="9.60167" gradientUnits="userSpaceOnUse">
<stop stop-color="#FFA68D"/>
<stop offset="1" stop-color="#FD3A84"/>
</linearGradient>
</defs>
</svg>
