<svg width="48" height="48" viewBox="0 0 48 48" fill="none" xmlns="http://www.w3.org/2000/svg">
<rect width="48" height="48" rx="4" fill="url(#paint0_linear_2078_451)" fill-opacity="0.15"/>
<path d="M17.3333 22.667V17.3337C17.3333 15.5655 18.0357 13.8699 19.286 12.6196C20.5362 11.3694 22.2319 10.667 24 10.667C25.7681 10.667 27.4638 11.3694 28.714 12.6196C29.9643 13.8699 30.6667 15.5655 30.6667 17.3337V22.667M14.6667 22.667H33.3333C34.8061 22.667 36 23.8609 36 25.3337V34.667C36 36.1397 34.8061 37.3337 33.3333 37.3337H14.6667C13.1939 37.3337 12 36.1397 12 34.667V25.3337C12 23.8609 13.1939 22.667 14.6667 22.667Z" stroke="url(#paint1_linear_2078_451)" stroke-width="2" stroke-linecap="round" stroke-linejoin="round"/>
<defs>
<linearGradient id="paint0_linear_2078_451" x1="0.0140648" y1="24.0062" x2="48" y2="24.0062" gradientUnits="userSpaceOnUse">
<stop stop-color="#FFA68D"/>
<stop offset="1" stop-color="#FD3A84"/>
</linearGradient>
<linearGradient id="paint1_linear_2078_451" x1="12.007" y1="24.0038" x2="36" y2="24.0038" gradientUnits="userSpaceOnUse">
<stop stop-color="#FFA68D"/>
<stop offset="1" stop-color="#FD3A84"/>
</linearGradient>
</defs>
</svg>
