<svg width="32" height="32" viewBox="0 0 32 32" fill="none" xmlns="http://www.w3.org/2000/svg">
<path d="M7.9974 25.3327V21.3327M13.3307 25.3327V21.3327M18.6641 25.3327V21.3327M23.9974 25.3327V21.3327M10.6641 14.666V11.9993M21.3307 14.666V11.9993M15.9974 14.666V11.9993M2.66406 19.9993H29.3307M2.66406 9.33268C2.66406 8.62544 2.94501 7.94716 3.44511 7.44706C3.94521 6.94697 4.62349 6.66602 5.33073 6.66602H26.6641C27.3713 6.66602 28.0496 6.94697 28.5497 7.44706C29.0498 7.94716 29.3307 8.62544 29.3307 9.33268V10.7993C28.7784 10.962 28.2936 11.2991 27.9488 11.7602C27.6039 12.2213 27.4176 12.7816 27.4176 13.3573C27.4176 13.9331 27.6039 14.4934 27.9488 14.9545C28.2936 15.4156 28.7784 15.7527 29.3307 15.9153V22.666C29.3307 23.3733 29.0498 24.0515 28.5497 24.5516C28.0496 25.0517 27.3713 25.3327 26.6641 25.3327H5.33073C4.62349 25.3327 3.94521 25.0517 3.44511 24.5516C2.94501 24.0515 2.66406 23.3733 2.66406 22.666V15.866C3.21637 15.7033 3.70119 15.3662 4.04604 14.9052C4.39089 14.4441 4.57724 13.8838 4.57724 13.308C4.57724 12.7322 4.39089 12.1719 4.04604 11.7109C3.70119 11.2498 3.21637 10.9127 2.66406 10.75V9.33268Z" stroke="url(#paint0_linear_836_886)" stroke-width="2" stroke-linecap="round" stroke-linejoin="round"/>
<defs>
<linearGradient id="paint0_linear_836_886" x1="2.67188" y1="16.0018" x2="29.3307" y2="16.0018" gradientUnits="userSpaceOnUse">
<stop stop-color="#FFA68D"/>
<stop offset="1" stop-color="#FD3A84"/>
</linearGradient>
</defs>
</svg>
