<svg width="32" height="32" viewBox="0 0 32 32" fill="none" xmlns="http://www.w3.org/2000/svg">
<path d="M10.6637 15.9999H10.677M15.997 15.9999H16.0103M21.3303 15.9999H21.3437M3.98632 21.7893C4.18237 22.2838 4.22602 22.8257 4.11165 23.3453L2.69165 27.7319C2.6459 27.9544 2.65773 28.1848 2.72602 28.4014C2.79431 28.6181 2.9168 28.8136 3.08187 28.9696C3.24695 29.1256 3.44913 29.2368 3.66925 29.2928C3.88937 29.3487 4.12013 29.3475 4.33965 29.2893L8.89032 27.9586C9.38061 27.8613 9.88836 27.9038 10.3557 28.0813C13.2028 29.4109 16.4281 29.6922 19.4625 28.8755C22.4969 28.0589 25.1453 26.1968 26.9406 23.6177C28.7358 21.0387 29.5625 17.9085 29.2747 14.7793C28.9869 11.6502 27.6032 8.72321 25.3677 6.51485C23.1322 4.30648 20.1886 2.95864 17.0562 2.70911C13.9237 2.45959 10.8038 3.32443 8.24691 5.15104C5.68998 6.97764 3.86036 9.64864 3.08084 12.6928C2.30132 15.7369 2.62201 18.9585 3.98632 21.7893Z" stroke="#C44558" stroke-width="2" stroke-linecap="round" stroke-linejoin="round"/>
</svg>
