<svg width="32" height="32" viewBox="0 0 32 32" fill="none" xmlns="http://www.w3.org/2000/svg">
<path d="M6.66406 6.66672C6.66392 6.19751 6.78759 5.73657 7.02257 5.33044C7.25756 4.92432 7.59554 4.58738 8.0024 4.35365C8.40925 4.11993 8.87057 3.99769 9.33978 3.99928C9.80899 4.00088 10.2695 4.12624 10.6747 4.36272L26.6707 13.6934C27.0744 13.9276 27.4096 14.2637 27.6426 14.6681C27.8757 15.0724 27.9986 15.5309 27.999 15.9976C27.9994 16.4643 27.8774 16.923 27.645 17.3277C27.4126 17.7325 27.078 18.0691 26.6747 18.3041L10.6747 27.6374C10.2695 27.8739 9.80899 27.9992 9.33978 28.0008C8.87057 28.0024 8.40925 27.8802 8.0024 27.6465C7.59554 27.4127 7.25756 27.0758 7.02257 26.6697C6.78759 26.2635 6.66392 25.8026 6.66406 25.3334V6.66672Z" stroke="url(#paint0_linear_1581_2605)" stroke-width="2" stroke-linecap="round" stroke-linejoin="round"/>
<defs>
<linearGradient id="paint0_linear_1581_2605" x1="6.67031" y1="16.0031" x2="27.999" y2="16.0031" gradientUnits="userSpaceOnUse">
<stop stop-color="#FFA68D"/>
<stop offset="1" stop-color="#FD3A84"/>
</linearGradient>
</defs>
</svg>
