<svg width="32" height="32" viewBox="0 0 32 32" fill="none" xmlns="http://www.w3.org/2000/svg">
<path d="M19.9986 27.9993V21.3327C19.9986 20.9791 19.8582 20.6399 19.6081 20.3899C19.3581 20.1398 19.0189 19.9993 18.6653 19.9993H13.332C12.9783 19.9993 12.6392 20.1398 12.3892 20.3899C12.1391 20.6399 11.9986 20.9791 11.9986 21.3327V27.9993M23.6973 13.746C23.4193 13.4799 23.0494 13.3314 22.6646 13.3314C22.2799 13.3314 21.9099 13.4799 21.632 13.746C21.012 14.3374 20.1881 14.6673 19.3313 14.6673C18.4745 14.6673 17.6506 14.3374 17.0306 13.746C16.7527 13.4803 16.3831 13.332 15.9986 13.332C15.6142 13.332 15.2445 13.4803 14.9666 13.746C14.3466 14.3378 13.5224 14.6679 12.6653 14.6679C11.8082 14.6679 10.984 14.3378 10.364 13.746C10.086 13.4799 9.71608 13.3314 9.3313 13.3314C8.94652 13.3314 8.57659 13.4799 8.29863 13.746C7.69976 14.3175 6.90966 14.6457 6.08214 14.6667C5.25461 14.6878 4.44885 14.4002 3.82171 13.8599C3.19456 13.3195 2.7909 12.5652 2.68928 11.7437C2.58767 10.9221 2.79537 10.0922 3.27197 9.41535L7.12397 3.83668C7.36838 3.47603 7.69743 3.18075 8.08234 2.97668C8.46725 2.7726 8.8963 2.66594 9.33197 2.66602H22.6653C23.0997 2.66585 23.5275 2.7718 23.9117 2.97467C24.2958 3.17753 24.6245 3.47116 24.8693 3.83002L28.7293 9.41935C29.206 10.0967 29.4134 10.9273 29.3112 11.7493C29.2089 12.5712 28.8043 13.3257 28.1762 13.8656C27.5481 14.4055 26.7414 14.6922 25.9134 14.6699C25.0854 14.6475 24.2954 14.3177 23.6973 13.7447M5.33197 14.5993V25.3327C5.33197 26.0399 5.61292 26.7182 6.11302 27.2183C6.61311 27.7184 7.29139 27.9993 7.99863 27.9993H23.9986C24.7059 27.9993 25.3842 27.7184 25.8843 27.2183C26.3843 26.7182 26.6653 26.0399 26.6653 25.3327V14.5993" stroke="url(#paint0_linear_2270_942)" stroke-width="2" stroke-linecap="round" stroke-linejoin="round"/>
<defs>
<linearGradient id="paint0_linear_2270_942" x1="2.67188" y1="15.3359" x2="29.3367" y2="15.3359" gradientUnits="userSpaceOnUse">
<stop stop-color="#FFA68D"/>
<stop offset="1" stop-color="#FD3A84"/>
</linearGradient>
</defs>
</svg>
