<svg width="32" height="32" viewBox="0 0 32 32" fill="none" xmlns="http://www.w3.org/2000/svg">
<path d="M15.998 12V17.3333M15.998 22.6666H16.0113M28.9713 24L18.3046 5.33331C18.072 4.92291 17.7348 4.58156 17.3272 4.34407C16.9196 4.10657 16.4563 3.98145 15.9846 3.98145C15.5129 3.98145 15.0496 4.10657 14.6421 4.34407C14.2345 4.58156 13.8972 4.92291 13.6646 5.33331L2.99795 24C2.76286 24.4071 2.63959 24.8692 2.64063 25.3393C2.64167 25.8095 2.76699 26.271 3.00388 26.6771C3.24077 27.0832 3.58082 27.4194 3.98955 27.6517C4.39828 27.8841 4.86116 28.0042 5.33129 28H26.6646C27.1325 27.9995 27.592 27.8759 27.997 27.6417C28.402 27.4074 28.7382 27.0708 28.972 26.6655C29.2057 26.2602 29.3287 25.8005 29.3286 25.3326C29.3284 24.8648 29.2052 24.4052 28.9713 24Z" stroke="url(#paint0_linear_1816_289)" stroke-width="2" stroke-linecap="round" stroke-linejoin="round"/>
<defs>
<linearGradient id="paint0_linear_1816_289" x1="2.64844" y1="15.9939" x2="29.3286" y2="15.9939" gradientUnits="userSpaceOnUse">
<stop stop-color="#FFA68D"/>
<stop offset="1" stop-color="#FD3A84"/>
</linearGradient>
</defs>
</svg>
