<svg width="26" height="26" viewBox="0 0 26 26" fill="none" xmlns="http://www.w3.org/2000/svg">
<rect width="26" height="26" fill="white"/>
<path d="M23.5421 19.4999L14.8754 4.33325C14.6865 3.99981 14.4124 3.72245 14.0813 3.52949C13.7501 3.33653 13.3737 3.23486 12.9904 3.23486C12.6072 3.23486 12.2308 3.33653 11.8996 3.52949C11.5684 3.72245 11.2944 3.99981 11.1054 4.33325L2.43877 19.4999C2.24776 19.8307 2.1476 20.2061 2.14844 20.5881C2.14929 20.9701 2.25111 21.3451 2.44358 21.6751C2.63606 22.005 2.91234 22.2782 3.24444 22.467C3.57653 22.6557 3.95262 22.7534 4.3346 22.7499H21.6679C22.0481 22.7495 22.4214 22.6491 22.7505 22.4588C23.0796 22.2685 23.3528 21.9949 23.5427 21.6656C23.7326 21.3363 23.8325 20.9628 23.8324 20.5827C23.8323 20.2026 23.7322 19.8291 23.5421 19.4999Z" fill="url(#paint0_linear_1811_350)"/>
<path d="M13.0013 9.74992V14.0833V9.74992Z" fill="url(#paint1_linear_1811_350)"/>
<path d="M13.0013 18.4166H13.0121H13.0013Z" fill="url(#paint2_linear_1811_350)"/>
<path d="M13.0013 9.74992V14.0833M13.0013 18.4166H13.0121M23.5421 19.4999L14.8754 4.33325C14.6865 3.99981 14.4124 3.72245 14.0813 3.52949C13.7501 3.33653 13.3737 3.23486 12.9904 3.23486C12.6072 3.23486 12.2308 3.33653 11.8996 3.52949C11.5684 3.72245 11.2944 3.99981 11.1054 4.33325L2.43877 19.4999C2.24776 19.8307 2.1476 20.2061 2.14844 20.5881C2.14929 20.9701 2.25111 21.3451 2.44358 21.6751C2.63606 22.005 2.91234 22.2782 3.24444 22.467C3.57653 22.6557 3.95262 22.7534 4.3346 22.7499H21.6679C22.0481 22.7495 22.4214 22.6491 22.7505 22.4588C23.0796 22.2685 23.3528 21.9949 23.5427 21.6656C23.7326 21.3363 23.8325 20.9628 23.8324 20.5827C23.8323 20.2026 23.7322 19.8291 23.5421 19.4999Z" stroke="white" stroke-width="2" stroke-linecap="round" stroke-linejoin="round"/>
<defs>
<linearGradient id="paint0_linear_1811_350" x1="2.15479" y1="12.9949" x2="23.8324" y2="12.9949" gradientUnits="userSpaceOnUse">
<stop stop-color="#FFA68D"/>
<stop offset="1" stop-color="#FD3A84"/>
</linearGradient>
<linearGradient id="paint1_linear_1811_350" x1="2.15479" y1="12.9949" x2="23.8324" y2="12.9949" gradientUnits="userSpaceOnUse">
<stop stop-color="#FFA68D"/>
<stop offset="1" stop-color="#FD3A84"/>
</linearGradient>
<linearGradient id="paint2_linear_1811_350" x1="2.15479" y1="12.9949" x2="23.8324" y2="12.9949" gradientUnits="userSpaceOnUse">
<stop stop-color="#FFA68D"/>
<stop offset="1" stop-color="#FD3A84"/>
</linearGradient>
</defs>
</svg>
