<svg width="32" height="32" viewBox="0 0 32 32" fill="none" xmlns="http://www.w3.org/2000/svg">
<path d="M25.3307 6.6665L29.3307 2.6665M2.66406 29.3332L6.66406 25.3332M9.9974 17.9998L13.3307 14.6665M13.9974 21.9998L17.3307 18.6665M8.3974 27.0665C8.69469 27.3648 9.04794 27.6015 9.43691 27.763C9.82587 27.9246 10.2429 28.0077 10.6641 28.0077C11.0852 28.0077 11.5022 27.9246 11.8912 27.763C12.2802 27.6015 12.6334 27.3648 12.9307 27.0665L15.9974 23.9998L7.9974 15.9998L4.93073 19.0665C4.6324 19.3638 4.3957 19.7171 4.23419 20.106C4.07268 20.495 3.98954 20.912 3.98954 21.3332C3.98954 21.7543 4.07268 22.1714 4.23419 22.5603C4.3957 22.9493 4.6324 23.3025 4.93073 23.5998L8.3974 27.0665ZM15.9974 7.99984L23.9974 15.9998L27.0641 12.9332C27.3624 12.6359 27.5991 12.2826 27.7606 11.8937C27.9221 11.5047 28.0053 11.0877 28.0053 10.6665C28.0053 10.2453 27.9221 9.82832 27.7606 9.43935C27.5991 9.05038 27.3624 8.69713 27.0641 8.39984L23.5974 4.93317C23.3001 4.63485 22.9468 4.39814 22.5579 4.23663C22.1689 4.07512 21.7519 3.99198 21.3307 3.99198C20.9096 3.99198 20.4925 4.07512 20.1036 4.23663C19.7146 4.39814 19.3614 4.63485 19.0641 4.93317L15.9974 7.99984Z" stroke="url(#paint0_linear_1739_1181)" stroke-width="2" stroke-linecap="round" stroke-linejoin="round"/>
<defs>
<linearGradient id="paint0_linear_1739_1181" x1="2.67188" y1="16.0033" x2="29.3307" y2="16.0033" gradientUnits="userSpaceOnUse">
<stop stop-color="#FFA68D"/>
<stop offset="1" stop-color="#FD3A84"/>
</linearGradient>
</defs>
</svg>
