<svg width="1440" height="291" viewBox="0 0 1440 291" fill="none" xmlns="http://www.w3.org/2000/svg">
<path d="M504.64 66.9268C501.159 66.6045 497.645 66.411 493.97 66.411C466.826 66.411 443.679 76.0823 424.369 95.2313C405.22 114.38 395.742 137.527 395.742 164.832V291.235H377.431V164.832C377.27 132.53 388.586 104.87 411.41 82.0784C434.234 59.4478 461.7 48.1002 493.841 48.1002C497.516 48.1002 501.159 48.2614 504.672 48.616V66.9268H504.64Z" fill="url(#paint0_linear_761_174)"/>
<path d="M655.893 176.471C655.893 203.776 665.371 226.922 684.52 246.071C703.83 265.22 726.976 274.891 754.12 274.891C757.795 274.891 761.277 274.73 764.791 274.376V292.686C761.309 293.009 757.634 293.202 753.959 293.202C721.818 293.202 694.352 281.887 671.528 259.224C648.704 236.4 637.388 208.772 637.55 176.471V22.7626H655.86V51.3895H764.758V69.7003H655.893V176.471Z" fill="url(#paint1_linear_761_174)"/>
<path d="M844.873 106.738C849.354 98.9044 854.544 91.5865 860.701 84.7522C881.849 60.9287 907.317 48.9364 937.136 48.9364C966.956 48.9364 992.585 60.9287 1013.73 84.9133C1034.88 108.737 1045.71 137.686 1046.03 171.503V290.395H1029.21V171.503C1028.88 142.876 1019.73 118.376 1001.9 98.2274C984.074 78.079 962.443 67.9242 937.298 67.9242C912.152 67.9242 890.521 77.9178 872.533 98.0662C854.705 118.215 845.55 142.522 845.066 170.987V290.395H828.238V0H844.905V106.738H844.873Z" fill="url(#paint2_linear_761_174)"/>
<path d="M1452 290.396H1435.33V137.365C1435.01 117.539 1427.66 100.55 1413.35 86.5586C1398.87 72.4064 1381.72 65.4109 1361.57 65.4109C1341.43 65.4109 1324.28 72.4064 1309.8 86.5586C1295.49 100.55 1288.17 117.539 1287.81 137.365V290.396H1270.99V137.365C1270.66 117.539 1263.31 100.55 1249 86.5586C1234.69 72.4064 1217.38 65.4109 1197.23 65.4109C1177.08 65.4109 1159.93 72.4064 1145.62 86.5586C1131.14 100.55 1123.79 117.539 1123.63 137.365V290.396H1106.8V137.365C1107.12 112.897 1116.12 91.91 1133.78 74.7598C1151.45 57.6095 1172.6 48.9376 1197.23 48.9376C1215.22 48.9376 1231.69 53.7732 1246.68 63.4122C1261.15 72.89 1272.15 85.3981 1279.5 101.033C1286.65 85.3659 1297.65 72.89 1312.32 63.4122C1327.31 53.741 1343.78 48.9376 1361.61 48.9376C1386.43 48.9376 1407.74 57.6095 1425.37 74.7598C1443.01 92.2324 1451.84 113.219 1452 137.881V290.396Z" fill="url(#paint3_linear_761_174)"/>
<path d="M111.728 275.088C112.179 275.088 112.631 275.056 113.082 275.056H111.115C111.309 275.088 111.502 275.088 111.728 275.088Z" fill="url(#paint4_linear_761_174)"/>
<path d="M198.64 82.9188C174.655 58.9341 145.674 46.9418 111.889 46.9418C78.1042 46.9418 49.1228 58.9341 25.1381 82.9188C1.1535 106.903 -10.8388 135.885 -11 169.67C-11 203.487 0.992312 232.436 24.9769 256.421C48.9293 280.405 77.9108 292.397 111.728 292.397C145.545 292.397 234.456 291.495 234.456 291.495V169.67C234.617 135.885 222.624 106.903 198.64 82.9188ZM186.325 244.267C183.553 247.007 180.684 249.586 177.75 251.972L199.22 274.345L113.05 275.054C112.598 275.054 112.147 275.086 111.696 275.086C111.502 275.086 111.276 275.086 111.083 275.086H110.954C82.1339 274.893 57.569 264.609 37.0982 244.299C16.6275 223.635 6.31149 198.812 6.31149 169.67C6.31149 140.527 16.6275 115.704 37.1304 95.0723C57.7624 74.6015 82.5852 64.2533 111.728 64.2533C140.87 64.2533 165.693 74.5693 186.325 95.0723C206.796 115.704 217.144 140.527 217.144 169.67C217.112 198.812 206.796 223.635 186.325 244.267Z" fill="url(#paint5_linear_761_174)"/>
<path d="M110.953 275.087H111.082C111.05 275.087 111.017 275.055 110.953 275.087Z" fill="url(#paint6_linear_761_174)"/>
<path d="M575.074 78.5981H557.601V290.559H575.074V78.5981Z" fill="url(#paint7_linear_761_174)"/>
<path d="M575.074 51.5797H557.601V65.2484H575.074V51.5797Z" fill="url(#paint8_linear_761_174)"/>
<path d="M312.892 51.5797H295.419V65.2484H312.892V51.5797Z" fill="url(#paint9_linear_761_174)"/>
<path d="M312.892 78.5981H295.419V290.559H312.892V78.5981Z" fill="url(#paint10_linear_761_174)"/>
<defs>
<linearGradient id="paint0_linear_761_174" x1="683.031" y1="45.199" x2="681.583" y2="292.773" gradientUnits="userSpaceOnUse">
<stop stop-color="white"/>
<stop offset="1" stop-color="#999999"/>
</linearGradient>
<linearGradient id="paint1_linear_761_174" x1="683.031" y1="45.199" x2="681.583" y2="292.773" gradientUnits="userSpaceOnUse">
<stop stop-color="white"/>
<stop offset="1" stop-color="#999999"/>
</linearGradient>
<linearGradient id="paint2_linear_761_174" x1="683.031" y1="45.199" x2="681.583" y2="292.773" gradientUnits="userSpaceOnUse">
<stop stop-color="white"/>
<stop offset="1" stop-color="#999999"/>
</linearGradient>
<linearGradient id="paint3_linear_761_174" x1="683.031" y1="45.199" x2="681.583" y2="292.773" gradientUnits="userSpaceOnUse">
<stop stop-color="white"/>
<stop offset="1" stop-color="#999999"/>
</linearGradient>
<linearGradient id="paint4_linear_761_174" x1="683.031" y1="45.199" x2="681.583" y2="292.773" gradientUnits="userSpaceOnUse">
<stop stop-color="white"/>
<stop offset="1" stop-color="#999999"/>
</linearGradient>
<linearGradient id="paint5_linear_761_174" x1="683.031" y1="45.199" x2="681.583" y2="292.773" gradientUnits="userSpaceOnUse">
<stop stop-color="white"/>
<stop offset="1" stop-color="#999999"/>
</linearGradient>
<linearGradient id="paint6_linear_761_174" x1="683.031" y1="45.199" x2="681.583" y2="292.773" gradientUnits="userSpaceOnUse">
<stop stop-color="white"/>
<stop offset="1" stop-color="#999999"/>
</linearGradient>
<linearGradient id="paint7_linear_761_174" x1="683.031" y1="45.199" x2="681.583" y2="292.773" gradientUnits="userSpaceOnUse">
<stop stop-color="white"/>
<stop offset="1" stop-color="#999999"/>
</linearGradient>
<linearGradient id="paint8_linear_761_174" x1="683.031" y1="45.199" x2="681.583" y2="292.773" gradientUnits="userSpaceOnUse">
<stop stop-color="white"/>
<stop offset="1" stop-color="#999999"/>
</linearGradient>
<linearGradient id="paint9_linear_761_174" x1="683.031" y1="45.199" x2="681.583" y2="292.773" gradientUnits="userSpaceOnUse">
<stop stop-color="white"/>
<stop offset="1" stop-color="#999999"/>
</linearGradient>
<linearGradient id="paint10_linear_761_174" x1="683.031" y1="45.199" x2="681.583" y2="292.773" gradientUnits="userSpaceOnUse">
<stop stop-color="white"/>
<stop offset="1" stop-color="#999999"/>
</linearGradient>
</defs>
</svg>
