<svg width="22" height="22" viewBox="0 0 22 22" fill="none" xmlns="http://www.w3.org/2000/svg">
<path d="M12.9988 6L15.9988 9M3.99882 5V9M17.9988 13V17M8.99882 1V3M5.99882 7H1.99882M19.9988 15H15.9988M9.99882 2H7.99882M20.6388 2.64L19.3588 1.36C19.2463 1.24632 19.1124 1.15607 18.9648 1.09448C18.8171 1.03289 18.6588 1.00118 18.4988 1.00118C18.3389 1.00118 18.1805 1.03289 18.0329 1.09448C17.8853 1.15607 17.7513 1.24632 17.6388 1.36L1.35882 17.64C1.24514 17.7525 1.15489 17.8865 1.0933 18.0341C1.03171 18.1817 1 18.3401 1 18.5C1 18.6599 1.03171 18.8183 1.0933 18.9659C1.15489 19.1135 1.24514 19.2475 1.35882 19.36L2.63882 20.64C2.75065 20.7549 2.88436 20.8462 3.03207 20.9086C3.17978 20.971 3.33849 21.0031 3.49882 21.0031C3.65916 21.0031 3.81787 20.971 3.96558 20.9086C4.11329 20.8462 4.247 20.7549 4.35882 20.64L20.6388 4.36C20.7537 4.24818 20.8451 4.11447 20.9074 3.96676C20.9698 3.81905 21.0019 3.66034 21.0019 3.5C21.0019 3.33966 20.9698 3.18095 20.9074 3.03324C20.8451 2.88553 20.7537 2.75182 20.6388 2.64Z" stroke="url(#paint0_linear_1811_265)" stroke-width="2" stroke-linecap="round" stroke-linejoin="round"/>
<defs>
<linearGradient id="paint0_linear_1811_265" x1="1.00586" y1="11.0041" x2="21.0019" y2="11.0041" gradientUnits="userSpaceOnUse">
<stop stop-color="#FFA68D"/>
<stop offset="1" stop-color="#FD3A84"/>
</linearGradient>
</defs>
</svg>
