<svg width="32" height="32" viewBox="0 0 32 32" fill="none" xmlns="http://www.w3.org/2000/svg">
<path d="M19.598 8.39988C19.3537 8.64912 19.2169 8.98421 19.2169 9.33321C19.2169 9.68221 19.3537 10.0173 19.598 10.2665L21.7314 12.3999C21.9806 12.6442 22.3157 12.781 22.6647 12.781C23.0137 12.781 23.3488 12.6442 23.598 12.3999L27.7394 8.25988C28.166 7.83054 28.89 7.96654 29.05 8.55054C29.4529 10.0157 29.4301 11.5653 28.9844 13.018C28.5387 14.4707 27.6884 15.7664 26.5332 16.7535C25.378 17.7406 23.9655 18.3783 22.461 18.592C20.9566 18.8056 19.4224 18.5864 18.038 17.9599L7.49135 28.5065C6.96092 29.0368 6.24157 29.3346 5.49155 29.3345C4.74153 29.3344 4.02227 29.0363 3.49202 28.5059C2.96176 27.9754 2.66394 27.2561 2.66406 26.5061C2.66419 25.756 2.96225 25.0368 3.49269 24.5065L14.0394 13.9599C13.4129 12.5755 13.1936 11.0413 13.4073 9.53687C13.6209 8.03243 14.2586 6.61994 15.2457 5.4647C16.2328 4.30945 17.5285 3.45922 18.9812 3.01351C20.4339 2.5678 21.9835 2.54503 23.4487 2.94788C24.0327 3.10788 24.1687 3.83054 23.7407 4.25988L19.598 8.39988Z" stroke="url(#paint0_linear_1816_275)" stroke-width="2" stroke-linecap="round" stroke-linejoin="round"/>
<defs>
<linearGradient id="paint0_linear_1816_275" x1="2.67188" y1="16.0015" x2="29.3363" y2="16.0015" gradientUnits="userSpaceOnUse">
<stop stop-color="#FFA68D"/>
<stop offset="1" stop-color="#FD3A84"/>
</linearGradient>
</defs>
</svg>
