<svg width="32" height="32" viewBox="0 0 32 32" fill="none" xmlns="http://www.w3.org/2000/svg">
<path d="M5.33007 18.6675C5.07775 18.6684 4.83038 18.5976 4.61667 18.4635C4.40297 18.3294 4.23171 18.1373 4.1228 17.9097C4.01389 17.6821 3.97179 17.4283 4.0014 17.1777C4.03101 16.9272 4.13111 16.6901 4.29007 16.4942L17.4901 2.8942C17.5891 2.77991 17.724 2.70268 17.8727 2.67518C18.0214 2.64768 18.175 2.67155 18.3084 2.74287C18.4417 2.8142 18.5468 2.92873 18.6065 3.06768C18.6662 3.20663 18.6768 3.36173 18.6367 3.50754L16.0767 11.5342C16.0012 11.7362 15.9759 11.9536 16.0029 12.1675C16.0298 12.3815 16.1083 12.5858 16.2315 12.7628C16.3548 12.9398 16.5191 13.0842 16.7104 13.1837C16.9018 13.2833 17.1144 13.3349 17.3301 13.3342H26.6634C26.9157 13.3333 27.1631 13.4041 27.3768 13.5382C27.5905 13.6724 27.7618 13.8644 27.8707 14.092C27.9796 14.3196 28.0217 14.5734 27.9921 14.824C27.9625 15.0746 27.8624 15.3116 27.7034 15.5075L14.5034 29.1075C14.4044 29.2218 14.2695 29.2991 14.1208 29.3266C13.9721 29.3541 13.8184 29.3302 13.6851 29.2589C13.5518 29.1875 13.4466 29.073 13.387 28.9341C13.3273 28.7951 13.3166 28.64 13.3567 28.4942L15.9167 20.4675C15.9922 20.2655 16.0176 20.0482 15.9906 19.8342C15.9637 19.6202 15.8852 19.416 15.7619 19.239C15.6387 19.062 15.4744 18.9175 15.283 18.818C15.0917 18.7185 14.8791 18.6668 14.6634 18.6675H5.33007Z" stroke="url(#paint0_linear_650_216)" stroke-width="2" stroke-linecap="round" stroke-linejoin="round"/>
<defs>
<linearGradient id="paint0_linear_650_216" x1="3.99922" y1="16.0043" x2="28.0013" y2="16.0043" gradientUnits="userSpaceOnUse">
<stop stop-color="#FFA68D"/>
<stop offset="1" stop-color="#FD3A84"/>
</linearGradient>
</defs>
</svg>
