<svg width="32" height="32" viewBox="0 0 32 32" fill="none" xmlns="http://www.w3.org/2000/svg">
<path d="M14.4697 19.6951L13.959 20.9257M14.4697 12.3031L13.959 11.0724M17.531 19.6951L18.0404 20.9271M18.0417 11.0724L17.531 12.3031M19.6964 14.4684L20.927 13.9577M19.6964 17.5297L20.927 18.0404M23.4644 8.66572C23.7712 8.13437 23.9516 7.53956 23.9918 6.92731C24.032 6.31506 23.9307 5.70178 23.6959 5.13491C23.4611 4.56804 23.0991 4.06279 22.6378 3.65823C22.1765 3.25367 21.6283 2.96065 21.0357 2.80185C20.443 2.64304 19.8218 2.6227 19.22 2.74241C18.6182 2.86212 18.052 3.11866 17.5653 3.49218C17.0785 3.86571 16.6842 4.34621 16.4128 4.89651C16.1415 5.44681 16.0003 6.05215 16.0004 6.66572C16.0012 5.77745 15.7063 4.91417 15.1622 4.21203C14.6181 3.50989 13.8558 3.00883 12.9954 2.78786C12.1351 2.56688 11.2257 2.63858 10.4106 2.99163C9.59545 3.34468 8.92106 3.959 8.49371 4.73772C8.14193 5.37803 7.97224 6.10246 8.00304 6.83239M8.00304 6.83239C7.21924 7.03401 6.49161 7.41137 5.87526 7.93587C5.2589 8.46038 4.77001 9.11828 4.4456 9.85974C4.12119 10.6012 3.96977 11.4067 4.00283 12.2154C4.03588 13.024 4.25254 13.8146 4.63638 14.5271M8.00304 6.83239C8.03023 7.47759 8.21322 8.10662 8.53638 8.66572M23.9977 6.83239C24.7815 7.03401 25.5091 7.41137 26.1255 7.93587C26.7419 8.46038 27.2307 9.11828 27.5552 9.85974C27.8796 10.6012 28.031 11.4067 27.9979 12.2154C27.9649 13.024 27.7482 13.8146 27.3644 14.5271M26.007 13.7244C27.1526 14.1897 28.101 15.0385 28.6898 16.1258C29.2787 17.213 29.4715 18.4711 29.2352 19.6848C28.999 20.8984 28.3484 21.9923 27.3947 22.7793C26.441 23.5663 25.2435 23.9975 24.007 23.9991M5.37638 23.3097C5.21587 24.5333 5.48467 25.7748 6.13698 26.8224C6.78929 27.87 7.78472 28.659 8.95361 29.0549C10.1225 29.4508 11.3925 29.429 12.5472 28.9933C13.7018 28.5577 14.6697 27.7351 15.2857 26.6657C15.5257 26.2511 16.475 26.2511 16.715 26.6657C17.3311 27.7349 18.2988 28.5573 19.4533 28.9929C20.6077 29.4285 21.8775 29.4504 23.0463 29.0547C24.2151 28.659 25.2105 27.8703 25.8629 26.823C26.5154 25.7757 26.7845 24.5345 26.6244 23.3111M6.00038 13.7204C4.85223 14.184 3.90119 15.0327 3.31036 16.1209C2.71954 17.2091 2.52576 18.4689 2.76225 19.6844C2.99875 20.8998 3.65079 21.9951 4.60653 22.7823C5.56227 23.5696 6.76215 23.9997 8.00038 23.9991M12.3044 14.4684L11.0737 13.9577M12.3044 17.5297L11.0737 18.0404M20.0004 15.9991C20.0004 18.2082 18.2095 19.9991 16.0004 19.9991C13.7912 19.9991 12.0004 18.2082 12.0004 15.9991C12.0004 13.7899 13.7912 11.9991 16.0004 11.9991C18.2095 11.9991 20.0004 13.7899 20.0004 15.9991Z" stroke="url(#paint0_linear_1386_778)" stroke-width="2" stroke-linecap="round" stroke-linejoin="round"/>
<defs>
<linearGradient id="paint0_linear_1386_778" x1="2.67188" y1="16.0029" x2="29.3335" y2="16.0029" gradientUnits="userSpaceOnUse">
<stop stop-color="#FFA68D"/>
<stop offset="1" stop-color="#FD3A84"/>
</linearGradient>
</defs>
</svg>
