<svg width="64" height="64" viewBox="0 0 64 64" fill="none" xmlns="http://www.w3.org/2000/svg">
<path d="M26.6693 32H37.3359M26.6693 21.3333H37.3359M37.3359 56V48C37.3359 46.5855 36.774 45.229 35.7738 44.2288C34.7736 43.2286 33.4171 42.6667 32.0026 42.6667C30.5881 42.6667 29.2316 43.2286 28.2314 44.2288C27.2312 45.229 26.6693 46.5855 26.6693 48V56M16.0026 26.6667H10.6693C9.25478 26.6667 7.89823 27.2286 6.89803 28.2288C5.89784 29.229 5.33594 30.5855 5.33594 32V50.6667C5.33594 52.0812 5.89784 53.4377 6.89803 54.4379C7.89823 55.4381 9.25478 56 10.6693 56H53.3359C54.7504 56 56.107 55.4381 57.1072 54.4379C58.1074 53.4377 58.6693 52.0812 58.6693 50.6667V24C58.6693 22.5855 58.1074 21.229 57.1072 20.2288C56.107 19.2286 54.7504 18.6667 53.3359 18.6667H48.0026M16.0026 56V13.3333C16.0026 11.9188 16.5645 10.5623 17.5647 9.5621C18.5649 8.5619 19.9214 8 21.3359 8H42.6693C44.0838 8 45.4403 8.5619 46.4405 9.5621C47.4407 10.5623 48.0026 11.9188 48.0026 13.3333V56" stroke="url(#paint0_linear_1386_1078)" stroke-width="4" stroke-linecap="round" stroke-linejoin="round"/>
<defs>
<linearGradient id="paint0_linear_1386_1078" x1="5.35157" y1="32.0062" x2="58.6693" y2="32.0062" gradientUnits="userSpaceOnUse">
<stop stop-color="#FFA68D"/>
<stop offset="1" stop-color="#FD3A84"/>
</linearGradient>
</defs>
</svg>
