<svg width="32" height="32" viewBox="0 0 32 32" fill="none" xmlns="http://www.w3.org/2000/svg">
<path d="M18.6601 5.33398C19.1411 5.33398 19.6132 5.4641 20.0263 5.71057C20.4395 5.95703 20.7782 6.31066 21.0067 6.73398L21.6547 7.93398C21.8832 8.35731 22.222 8.71094 22.6351 8.9574C23.0482 9.20387 23.5203 9.33399 24.0014 9.33398H26.6641C27.3713 9.33398 28.0496 9.61494 28.5497 10.115C29.0498 10.6151 29.3307 11.2934 29.3307 12.0007V24.0007C29.3307 24.7079 29.0498 25.3862 28.5497 25.8863C28.0496 26.3864 27.3713 26.6673 26.6641 26.6673H5.33073C4.62349 26.6673 3.94521 26.3864 3.44511 25.8863C2.94501 25.3862 2.66406 24.7079 2.66406 24.0007V12.0007C2.66406 11.2934 2.94501 10.6151 3.44511 10.115C3.94521 9.61494 4.62349 9.33398 5.33073 9.33398H7.9934C8.47396 9.33401 8.94559 9.20417 9.35844 8.95821C9.77128 8.71224 10.11 8.35928 10.3387 7.93665L10.9907 6.73132C11.2195 6.30869 11.5582 5.95573 11.971 5.70976C12.3839 5.46379 12.8555 5.33396 13.3361 5.33398H18.6601Z" stroke="url(#paint0_linear_1386_830)" stroke-width="3" stroke-linecap="round" stroke-linejoin="round"/>
<path d="M15.9974 21.334C18.2065 21.334 19.9974 19.5431 19.9974 17.334C19.9974 15.1248 18.2065 13.334 15.9974 13.334C13.7883 13.334 11.9974 15.1248 11.9974 17.334C11.9974 19.5431 13.7883 21.334 15.9974 21.334Z" stroke="url(#paint1_linear_1386_830)" stroke-width="3" stroke-linecap="round" stroke-linejoin="round"/>
<defs>
<linearGradient id="paint0_linear_1386_830" x1="2.67188" y1="16.0034" x2="29.3307" y2="16.0034" gradientUnits="userSpaceOnUse">
<stop stop-color="#FFA68D"/>
<stop offset="1" stop-color="#FD3A84"/>
</linearGradient>
<linearGradient id="paint1_linear_1386_830" x1="2.67188" y1="16.0034" x2="29.3307" y2="16.0034" gradientUnits="userSpaceOnUse">
<stop stop-color="#FFA68D"/>
<stop offset="1" stop-color="#FD3A84"/>
</linearGradient>
</defs>
</svg>
