<svg width="32" height="32" viewBox="0 0 32 32" fill="none" xmlns="http://www.w3.org/2000/svg">
<path d="M2.7474 16.4645C2.63628 16.1651 2.63628 15.8358 2.7474 15.5365C3.82967 12.9123 5.66676 10.6685 8.02576 9.08968C10.3848 7.51082 13.1595 6.66797 15.9981 6.66797C18.8367 6.66797 21.6114 7.51082 23.9704 9.08968C26.3294 10.6685 28.1665 12.9123 29.2487 15.5365C29.3599 15.8358 29.3599 16.1651 29.2487 16.4645C28.1665 19.0887 26.3294 21.3324 23.9704 22.9113C21.6114 24.4901 18.8367 25.333 15.9981 25.333C13.1595 25.333 10.3848 24.4901 8.02576 22.9113C5.66676 21.3324 3.82967 19.0887 2.7474 16.4645Z" stroke="url(#paint0_linear_1386_843)" stroke-width="2" stroke-linecap="round" stroke-linejoin="round"/>
<path d="M15.9981 20.0005C18.2072 20.0005 19.9981 18.2096 19.9981 16.0005C19.9981 13.7913 18.2072 12.0005 15.9981 12.0005C13.7889 12.0005 11.9981 13.7913 11.9981 16.0005C11.9981 18.2096 13.7889 20.0005 15.9981 20.0005Z" stroke="url(#paint1_linear_1386_843)" stroke-width="2" stroke-linecap="round" stroke-linejoin="round"/>
<defs>
<linearGradient id="paint0_linear_1386_843" x1="2.67188" y1="16.0029" x2="29.3321" y2="16.0029" gradientUnits="userSpaceOnUse">
<stop stop-color="#FFA68D"/>
<stop offset="1" stop-color="#FD3A84"/>
</linearGradient>
<linearGradient id="paint1_linear_1386_843" x1="2.67188" y1="16.0029" x2="29.3321" y2="16.0029" gradientUnits="userSpaceOnUse">
<stop stop-color="#FFA68D"/>
<stop offset="1" stop-color="#FD3A84"/>
</linearGradient>
</defs>
</svg>
