<svg width="64" height="64" viewBox="0 0 64 64" fill="none" xmlns="http://www.w3.org/2000/svg">
<path d="M48.0026 56C48.0026 50.342 45.755 44.9158 41.7542 40.9151C37.7534 36.9143 32.3272 34.6667 26.6693 34.6667M26.6693 34.6667C21.0113 34.6667 15.5851 36.9143 11.5843 40.9151C7.58355 44.9158 5.33594 50.342 5.33594 56M26.6693 34.6667C34.0331 34.6667 40.0026 28.6971 40.0026 21.3333C40.0026 13.9695 34.0331 8 26.6693 8C19.3055 8 13.3359 13.9695 13.3359 21.3333C13.3359 28.6971 19.3055 34.6667 26.6693 34.6667ZM58.6693 53.3333C58.6693 44.3467 53.3359 36 48.0026 32C49.7557 30.6847 51.1576 28.9576 52.0841 26.9714C53.0107 24.9852 53.4333 22.8012 53.3146 20.6128C53.196 18.4244 52.5397 16.2989 51.4039 14.4245C50.268 12.5502 48.6876 10.9847 46.8026 9.86667" stroke="url(#paint0_linear_1386_1066)" stroke-width="4" stroke-linecap="round" stroke-linejoin="round"/>
<defs>
<linearGradient id="paint0_linear_1386_1066" x1="5.35157" y1="32.0062" x2="58.6693" y2="32.0062" gradientUnits="userSpaceOnUse">
<stop stop-color="#FFA68D"/>
<stop offset="1" stop-color="#FD3A84"/>
</linearGradient>
</defs>
</svg>
