<svg width="64" height="64" viewBox="0 0 64 64" fill="none" xmlns="http://www.w3.org/2000/svg">
<path d="M31.9987 56V18.6667M31.9987 56C31.9987 53.8783 31.1558 51.8434 29.6556 50.3431C28.1553 48.8429 26.1204 48 23.9987 48H7.9987C7.29145 48 6.61318 47.7191 6.11308 47.219C5.61298 46.7189 5.33203 46.0406 5.33203 45.3333V10.6667C5.33203 9.95942 5.61298 9.28115 6.11308 8.78105C6.61318 8.28095 7.29145 8 7.9987 8H21.332C24.161 8 26.8741 9.12381 28.8745 11.1242C30.8749 13.1246 31.9987 15.8377 31.9987 18.6667M31.9987 56C31.9987 53.8783 32.8415 51.8434 34.3418 50.3431C35.8421 48.8429 37.877 48 39.9987 48H55.9987C56.7059 48 57.3842 47.7191 57.8843 47.219C58.3844 46.7189 58.6654 46.0406 58.6654 45.3333V41.8667M31.9987 18.6667C31.9987 15.8377 33.1225 13.1246 35.1229 11.1242C37.1233 9.12381 39.8364 8 42.6654 8H55.9987C56.7059 8 57.3842 8.28095 57.8843 8.78105C58.3844 9.28115 58.6654 9.95942 58.6654 10.6667V16M42.6654 32L47.9987 37.3333L58.6654 26.6667" stroke="url(#paint0_linear_1386_625)" stroke-width="4" stroke-linecap="round" stroke-linejoin="round"/>
<defs>
<linearGradient id="paint0_linear_1386_625" x1="5.34766" y1="32.0062" x2="58.6654" y2="32.0062" gradientUnits="userSpaceOnUse">
<stop stop-color="#FFA68D"/>
<stop offset="1" stop-color="#FD3A84"/>
</linearGradient>
</defs>
</svg>
