<svg width="64" height="64" viewBox="0 0 64 64" fill="none" xmlns="http://www.w3.org/2000/svg">
<path d="M31.9987 18.6667V56M31.9987 18.6667C31.9987 15.8377 30.8749 13.1246 28.8745 11.1242C26.8741 9.12381 24.161 8 21.332 8H7.9987C7.29145 8 6.61318 8.28095 6.11308 8.78105C5.61298 9.28115 5.33203 9.95942 5.33203 10.6667V45.3333C5.33203 46.0406 5.61298 46.7189 6.11308 47.219C6.61318 47.7191 7.29145 48 7.9987 48H23.9987C26.1204 48 28.1553 48.8429 29.6556 50.3431C31.1558 51.8434 31.9987 53.8783 31.9987 56M31.9987 18.6667C31.9987 15.8377 33.1225 13.1246 35.1229 11.1242C37.1233 9.12381 39.8364 8 42.6654 8H55.9987C56.7059 8 57.3842 8.28095 57.8843 8.78105C58.3844 9.28115 58.6654 9.95942 58.6654 10.6667V45.3333C58.6654 46.0406 58.3844 46.7189 57.8843 47.219C57.3842 47.7191 56.7059 48 55.9987 48H39.9987C37.877 48 35.8421 48.8429 34.3418 50.3431C32.8415 51.8434 31.9987 53.8783 31.9987 56M42.6654 32H47.9987M42.6654 21.3333H47.9987M15.9987 32H21.332M15.9987 21.3333H21.332" stroke="url(#paint0_linear_1386_615)" stroke-width="4" stroke-linecap="round" stroke-linejoin="round"/>
<defs>
<linearGradient id="paint0_linear_1386_615" x1="5.34766" y1="32.0062" x2="58.6654" y2="32.0062" gradientUnits="userSpaceOnUse">
<stop stop-color="#FFA68D"/>
<stop offset="1" stop-color="#FD3A84"/>
</linearGradient>
</defs>
</svg>
