<svg width="64" height="64" viewBox="0 0 64 64" fill="none" xmlns="http://www.w3.org/2000/svg">
<path d="M8 8V50.6667C8 52.0812 8.5619 53.4377 9.5621 54.4379C10.5623 55.4381 11.9188 56 13.3333 56H56M18.6667 29.8853C18.6667 29.5324 18.8067 29.1939 19.056 28.944L24.3893 23.6107C24.5132 23.4865 24.6603 23.388 24.8223 23.3208C24.9843 23.2536 25.158 23.219 25.3333 23.219C25.5087 23.219 25.6824 23.2536 25.8444 23.3208C26.0063 23.388 26.1535 23.4865 26.2773 23.6107L35.056 32.3893C35.1799 32.5135 35.327 32.612 35.489 32.6792C35.651 32.7465 35.8246 32.781 36 32.781C36.1754 32.781 36.349 32.7465 36.511 32.6792C36.673 32.612 36.8201 32.5135 36.944 32.3893L48.3893 20.944C48.5757 20.7572 48.8132 20.6299 49.0719 20.5782C49.3306 20.5264 49.5988 20.5526 49.8427 20.6534C50.0865 20.7542 50.2949 20.925 50.4416 21.1443C50.5883 21.3636 50.6666 21.6215 50.6667 21.8853V42.6667C50.6667 43.3739 50.3857 44.0522 49.8856 44.5523C49.3855 45.0524 48.7072 45.3333 48 45.3333H21.3333C20.6261 45.3333 19.9478 45.0524 19.4477 44.5523C18.9476 44.0522 18.6667 43.3739 18.6667 42.6667V29.8853Z" stroke="url(#paint0_linear_1386_656)" stroke-width="4" stroke-linecap="round" stroke-linejoin="round"/>
<defs>
<linearGradient id="paint0_linear_1386_656" x1="8.01406" y1="32.0062" x2="56" y2="32.0062" gradientUnits="userSpaceOnUse">
<stop stop-color="#FFA68D"/>
<stop offset="1" stop-color="#FD3A84"/>
</linearGradient>
</defs>
</svg>
