<svg width="64" height="64" viewBox="0 0 64 64" fill="none" xmlns="http://www.w3.org/2000/svg">
<path d="M58.6661 26.6663V42.6663M15.9995 33.333V42.6663C15.9995 44.788 17.6852 46.8229 20.6858 48.3232C23.6863 49.8235 27.756 50.6663 31.9995 50.6663C36.2429 50.6663 40.3126 49.8235 43.3132 48.3232C46.3138 46.8229 47.9995 44.788 47.9995 42.6663V33.333M57.1195 29.125C57.5968 28.9144 58.002 28.5684 58.2846 28.1298C58.5673 27.6912 58.7151 27.1794 58.7097 26.6576C58.7043 26.1359 58.5459 25.6272 58.2543 25.1945C57.9626 24.7619 57.5504 24.4243 57.0688 24.2236L34.2128 13.813C33.518 13.496 32.7632 13.332 31.9995 13.332C31.2358 13.332 30.481 13.496 29.7861 13.813L6.9328 24.213C6.45804 24.4209 6.05417 24.7627 5.77057 25.1965C5.48697 25.6303 5.33594 26.1374 5.33594 26.6557C5.33594 27.1739 5.48697 27.681 5.77057 28.1148C6.05417 28.5486 6.45804 28.8904 6.9328 29.0983L29.7861 39.5196C30.481 39.8366 31.2358 40.0006 31.9995 40.0006C32.7632 40.0006 33.518 39.8366 34.2128 39.5196L57.1195 29.125Z" stroke="url(#paint0_linear_1386_608)" stroke-width="4" stroke-linecap="round" stroke-linejoin="round"/>
<defs>
<linearGradient id="paint0_linear_1386_608" x1="5.35158" y1="32.004" x2="58.7098" y2="32.004" gradientUnits="userSpaceOnUse">
<stop stop-color="#FFA68D"/>
<stop offset="1" stop-color="#FD3A84"/>
</linearGradient>
</defs>
</svg>
