<svg width="64" height="64" viewBox="0 0 64 64" fill="none" xmlns="http://www.w3.org/2000/svg">
<path d="M24 8H10.6667C9.19391 8 8 9.19391 8 10.6667V29.3333C8 30.8061 9.19391 32 10.6667 32H24C25.4728 32 26.6667 30.8061 26.6667 29.3333V10.6667C26.6667 9.19391 25.4728 8 24 8Z" stroke="url(#paint0_linear_1386_632)" stroke-width="4" stroke-linecap="round" stroke-linejoin="round"/>
<path d="M53.3333 8H40C38.5272 8 37.3333 9.19391 37.3333 10.6667V18.6667C37.3333 20.1394 38.5272 21.3333 40 21.3333H53.3333C54.8061 21.3333 56 20.1394 56 18.6667V10.6667C56 9.19391 54.8061 8 53.3333 8Z" stroke="url(#paint1_linear_1386_632)" stroke-width="4" stroke-linecap="round" stroke-linejoin="round"/>
<path d="M53.3333 32H40C38.5272 32 37.3333 33.1939 37.3333 34.6667V53.3333C37.3333 54.8061 38.5272 56 40 56H53.3333C54.8061 56 56 54.8061 56 53.3333V34.6667C56 33.1939 54.8061 32 53.3333 32Z" stroke="url(#paint2_linear_1386_632)" stroke-width="4" stroke-linecap="round" stroke-linejoin="round"/>
<path d="M24 42.6667H10.6667C9.19391 42.6667 8 43.8606 8 45.3333V53.3333C8 54.8061 9.19391 56 10.6667 56H24C25.4728 56 26.6667 54.8061 26.6667 53.3333V45.3333C26.6667 43.8606 25.4728 42.6667 24 42.6667Z" stroke="url(#paint3_linear_1386_632)" stroke-width="4" stroke-linecap="round" stroke-linejoin="round"/>
<defs>
<linearGradient id="paint0_linear_1386_632" x1="8.01406" y1="32.0062" x2="56" y2="32.0062" gradientUnits="userSpaceOnUse">
<stop stop-color="#FFA68D"/>
<stop offset="1" stop-color="#FD3A84"/>
</linearGradient>
<linearGradient id="paint1_linear_1386_632" x1="8.01406" y1="32.0062" x2="56" y2="32.0062" gradientUnits="userSpaceOnUse">
<stop stop-color="#FFA68D"/>
<stop offset="1" stop-color="#FD3A84"/>
</linearGradient>
<linearGradient id="paint2_linear_1386_632" x1="8.01406" y1="32.0062" x2="56" y2="32.0062" gradientUnits="userSpaceOnUse">
<stop stop-color="#FFA68D"/>
<stop offset="1" stop-color="#FD3A84"/>
</linearGradient>
<linearGradient id="paint3_linear_1386_632" x1="8.01406" y1="32.0062" x2="56" y2="32.0062" gradientUnits="userSpaceOnUse">
<stop stop-color="#FFA68D"/>
<stop offset="1" stop-color="#FD3A84"/>
</linearGradient>
</defs>
</svg>
