<svg width="32" height="32" viewBox="0 0 32 32" fill="none" xmlns="http://www.w3.org/2000/svg">
<path d="M5.33203 25.9993V5.99935C5.33203 5.11529 5.68322 4.26745 6.30834 3.64233C6.93346 3.01721 7.78131 2.66602 8.66536 2.66602H25.332C25.6857 2.66602 26.0248 2.80649 26.2748 3.05654C26.5249 3.30659 26.6654 3.64573 26.6654 3.99935V27.9993C26.6654 28.353 26.5249 28.6921 26.2748 28.9422C26.0248 29.1922 25.6857 29.3327 25.332 29.3327H8.66536C7.78131 29.3327 6.93346 28.9815 6.30834 28.3564C5.68322 27.7312 5.33203 26.8834 5.33203 25.9993ZM5.33203 25.9993C5.33203 25.1153 5.68322 24.2674 6.30834 23.6423C6.93346 23.0172 7.78131 22.666 8.66536 22.666H26.6654M11.9987 12.666L14.6654 15.3327L19.9987 9.99935" stroke="url(#paint0_linear_1377_449)" stroke-width="2" stroke-linecap="round" stroke-linejoin="round"/>
<defs>
<linearGradient id="paint0_linear_1377_449" x1="5.33828" y1="16.0028" x2="26.6654" y2="16.0028" gradientUnits="userSpaceOnUse">
<stop stop-color="#FFA68D"/>
<stop offset="1" stop-color="#FD3A84"/>
</linearGradient>
</defs>
</svg>
