<svg width="32" height="32" viewBox="0 0 32 32" fill="none" xmlns="http://www.w3.org/2000/svg">
<path d="M18.6693 2.66651H8.0026C7.29536 2.66651 6.61708 2.94746 6.11699 3.44756C5.61689 3.94765 5.33594 4.62593 5.33594 5.33317V26.6665C5.33594 27.3738 5.61689 28.052 6.11699 28.5521C6.61708 29.0522 7.29536 29.3332 8.0026 29.3332H24.0026C24.7098 29.3332 25.3881 29.0522 25.8882 28.5521C26.3883 28.052 26.6693 27.3738 26.6693 26.6665V10.6665M18.6693 2.66651C19.0913 2.66582 19.5094 2.74864 19.8993 2.9102C20.2892 3.07176 20.6434 3.30885 20.9413 3.60784L25.7253 8.39184C26.0251 8.68985 26.2628 9.0443 26.4249 9.43472C26.5869 9.82515 26.67 10.2438 26.6693 10.6665M18.6693 2.66651V9.33317C18.6693 9.6868 18.8097 10.0259 19.0598 10.276C19.3098 10.526 19.649 10.6665 20.0026 10.6665L26.6693 10.6665M13.3359 11.9998H10.6693M21.3359 17.3332H10.6693M21.3359 22.6665H10.6693" stroke="url(#paint0_linear_1552_852)" stroke-width="2" stroke-linecap="round" stroke-linejoin="round"/>
<defs>
<linearGradient id="paint0_linear_1552_852" x1="5.34219" y1="16.0033" x2="26.6693" y2="16.0033" gradientUnits="userSpaceOnUse">
<stop stop-color="#FFA68D"/>
<stop offset="1" stop-color="#FD3A84"/>
</linearGradient>
</defs>
</svg>
