<svg width="32" height="32" viewBox="0 0 32 32" fill="none" xmlns="http://www.w3.org/2000/svg">
<path d="M29.3331 13.3332V21.3332M7.99973 16.6665V21.3332C7.99973 22.394 8.84259 23.4114 10.3429 24.1616C11.8432 24.9117 13.878 25.3332 15.9997 25.3332C18.1215 25.3332 20.1563 24.9117 21.6566 24.1616C23.1569 23.4114 23.9997 22.394 23.9997 21.3332V16.6665M28.5597 14.5625C28.7984 14.4572 29.001 14.2842 29.1423 14.0649C29.2836 13.8456 29.3575 13.5897 29.3548 13.3288C29.3521 13.0679 29.273 12.8136 29.1271 12.5973C28.9813 12.381 28.7752 12.2122 28.5344 12.1118L17.1064 6.90649C16.759 6.74802 16.3816 6.66602 15.9997 6.66602C15.6179 6.66602 15.2405 6.74802 14.8931 6.90649L3.4664 12.1065C3.22902 12.2105 3.02709 12.3813 2.88529 12.5982C2.74349 12.8152 2.66797 13.0687 2.66797 13.3278C2.66797 13.587 2.74349 13.8405 2.88529 14.0574C3.02709 14.2743 3.22902 14.4452 3.4664 14.5492L14.8931 19.7598C15.2405 19.9183 15.6179 20.0003 15.9997 20.0003C16.3816 20.0003 16.759 19.9183 17.1064 19.7598L28.5597 14.5625Z" stroke="url(#paint0_linear_2748_191)" stroke-width="2" stroke-linecap="round" stroke-linejoin="round"/>
<defs>
<linearGradient id="paint0_linear_2748_191" x1="2.67579" y1="16.002" x2="29.3549" y2="16.002" gradientUnits="userSpaceOnUse">
<stop stop-color="#FFA68D"/>
<stop offset="1" stop-color="#FD3A84"/>
</linearGradient>
</defs>
</svg>
