<svg width="32" height="32" viewBox="0 0 32 32" fill="none" xmlns="http://www.w3.org/2000/svg">
<path d="M17.3331 9.33307L11.5997 3.59974C10.9976 3.00048 10.1826 2.66406 9.33307 2.66406C8.48353 2.66406 7.66857 3.00048 7.0664 3.59974L3.59974 7.0664C3.00048 7.66857 2.66406 8.48353 2.66406 9.33307C2.66406 10.1826 3.00048 10.9976 3.59974 11.5997L9.33307 17.3331M10.6664 7.99974L13.3331 5.33307M23.9997 21.3331L26.6664 18.6664M22.6664 14.6664L28.3997 20.3997C29.6531 21.6531 29.6531 23.6797 28.3997 24.9331L24.9331 28.3997C23.6797 29.6531 21.6531 29.6531 20.3997 28.3997L14.6664 22.6664M19.9997 6.6664L25.3331 11.9997M28.2317 9.0824C28.9367 8.37763 29.3328 7.42169 29.3329 6.42487C29.333 5.42806 28.9372 4.47201 28.2324 3.76707C27.5276 3.06212 26.5717 2.66602 25.5749 2.66589C24.5781 2.66577 23.622 3.06163 22.9171 3.7664L5.1224 21.5651C4.81283 21.8737 4.58389 22.2538 4.45574 22.6717L2.6944 28.4744C2.65994 28.5897 2.65734 28.7122 2.68687 28.8289C2.7164 28.9455 2.77696 29.052 2.86213 29.1371C2.9473 29.2221 3.0539 29.2825 3.17061 29.3118C3.28733 29.3412 3.40981 29.3384 3.52507 29.3037L9.32907 27.5437C9.74663 27.4167 10.1266 27.1892 10.4357 26.8811L28.2317 9.0824Z" stroke="url(#paint0_linear_1377_455)" stroke-width="2" stroke-linecap="round" stroke-linejoin="round"/>
<defs>
<linearGradient id="paint0_linear_1377_455" x1="2.67188" y1="16.0053" x2="29.3397" y2="16.0053" gradientUnits="userSpaceOnUse">
<stop stop-color="#FFA68D"/>
<stop offset="1" stop-color="#FD3A84"/>
</linearGradient>
</defs>
</svg>
