<svg width="32" height="32" viewBox="0 0 32 32" fill="none" xmlns="http://www.w3.org/2000/svg">
<path d="M12.8951 5.51422C12.9685 4.74134 13.3275 4.02361 13.9019 3.50126C14.4762 2.9789 15.2247 2.68945 16.0011 2.68945C16.7774 2.68945 17.5259 2.9789 18.1003 3.50126C18.6746 4.02361 19.0336 4.74134 19.1071 5.51422C19.1512 6.01349 19.315 6.49478 19.5846 6.91734C19.8541 7.3399 20.2216 7.6913 20.6557 7.94179C21.0898 8.19228 21.5779 8.33449 22.0787 8.35638C22.5794 8.37827 23.0781 8.2792 23.5324 8.06755C24.2379 7.74725 25.0373 7.70091 25.7751 7.93753C26.5128 8.17415 27.1362 8.67682 27.5238 9.34769C27.9113 10.0186 28.0355 10.8096 27.8719 11.567C27.7084 12.3243 27.2689 12.9937 26.6391 13.4449C26.2289 13.7327 25.8941 14.115 25.663 14.5596C25.4318 15.0041 25.3111 15.4978 25.3111 15.9989C25.3111 16.4999 25.4318 16.9936 25.663 17.4382C25.8941 17.8827 26.2289 18.2651 26.6391 18.5529C27.2689 19.0041 27.7084 19.6735 27.8719 20.4308C28.0355 21.1881 27.9113 21.9792 27.5238 22.6501C27.1362 23.321 26.5128 23.8236 25.7751 24.0602C25.0373 24.2969 24.2379 24.2505 23.5324 23.9302C23.0781 23.7186 22.5794 23.6195 22.0787 23.6414C21.5779 23.6633 21.0898 23.8055 20.6557 24.056C20.2216 24.3065 19.8541 24.6579 19.5846 25.0804C19.315 25.503 19.1512 25.9843 19.1071 26.4835C19.0336 27.2564 18.6746 27.9742 18.1003 28.4965C17.5259 29.0189 16.7774 29.3083 16.0011 29.3083C15.2247 29.3083 14.4762 29.0189 13.9019 28.4965C13.3275 27.9742 12.9685 27.2564 12.8951 26.4835C12.851 25.9841 12.6872 25.5026 12.4176 25.0799C12.1479 24.6572 11.7804 24.3057 11.346 24.0552C10.9117 23.8047 10.4234 23.6625 9.92251 23.6408C9.42159 23.619 8.92281 23.7183 8.46841 23.9302C7.76293 24.2505 6.96351 24.2969 6.22574 24.0602C5.48797 23.8236 4.86464 23.321 4.47705 22.6501C4.08946 21.9792 3.96536 21.1881 4.12889 20.4308C4.29241 19.6735 4.73187 19.0041 5.36174 18.5529C5.7719 18.2651 6.10671 17.8827 6.33786 17.4382C6.569 16.9936 6.68968 16.4999 6.68968 15.9989C6.68968 15.4978 6.569 15.0041 6.33786 14.5596C6.10671 14.115 5.7719 13.7327 5.36174 13.4449C4.73276 12.9935 4.29407 12.3243 4.13094 11.5675C3.96781 10.8107 4.09188 10.0203 4.47905 9.34983C4.86622 8.6794 5.48882 8.17685 6.22586 7.93987C6.9629 7.70289 7.76172 7.7484 8.46707 8.06755C8.92142 8.2792 9.42006 8.37827 9.92081 8.35638C10.4216 8.33449 10.9096 8.19228 11.3438 7.94179C11.7779 7.6913 12.1453 7.3399 12.4149 6.91734C12.6845 6.49478 12.8483 6.01349 12.8924 5.51422M20.0004 15.9996C20.0004 18.2087 18.2095 19.9996 16.0004 19.9996C13.7913 19.9996 12.0004 18.2087 12.0004 15.9996C12.0004 13.7904 13.7913 11.9996 16.0004 11.9996C18.2095 11.9996 20.0004 13.7904 20.0004 15.9996Z" stroke="url(#paint0_linear_1132_1155)" stroke-width="2" stroke-linecap="round" stroke-linejoin="round"/>
<defs>
<linearGradient id="paint0_linear_1132_1155" x1="4.06559" y1="16.0023" x2="27.9422" y2="16.0023" gradientUnits="userSpaceOnUse">
<stop stop-color="#FFA68D"/>
<stop offset="1" stop-color="#FD3A84"/>
</linearGradient>
</defs>
</svg>
