<svg width="24" height="24" viewBox="0 0 24 24" fill="none" xmlns="http://www.w3.org/2000/svg">
<g clip-path="url(#clip0_1714_621)">
<path d="M19.9991 14.2849L21.4991 15.1299C21.653 15.2171 21.781 15.3436 21.8701 15.4964C21.9592 15.6493 22.0061 15.823 22.0061 15.9999C22.0061 16.1768 21.9592 16.3505 21.8701 16.5034C21.781 16.6562 21.653 16.7827 21.4991 16.8699L12.9991 21.7399C12.6951 21.9154 12.3502 22.0078 11.9991 22.0078C11.6481 22.0078 11.3032 21.9154 10.9991 21.7399L2.49914 16.8699C2.34524 16.7827 2.21723 16.6562 2.12817 16.5034C2.03911 16.3505 1.99219 16.1768 1.99219 15.9999C1.99219 15.823 2.03911 15.6493 2.12817 15.4964C2.21723 15.3436 2.34524 15.2171 2.49914 15.1299L3.99914 14.2849M12.9991 13.7399C12.6951 13.9154 12.3502 14.0078 11.9991 14.0078C11.6481 14.0078 11.3032 13.9154 10.9991 13.7399L2.49914 8.86989C2.34524 8.78267 2.21723 8.65619 2.12817 8.50335C2.03911 8.35051 1.99219 8.17679 1.99219 7.99989C1.99219 7.823 2.03911 7.64927 2.12817 7.49643C2.21723 7.34359 2.34524 7.21711 2.49914 7.12989L10.9991 2.25989C11.3032 2.08436 11.6481 1.99194 11.9991 1.99194C12.3502 1.99194 12.6951 2.08436 12.9991 2.25989L21.4991 7.12989C21.653 7.21711 21.781 7.34359 21.8701 7.49643C21.9592 7.64927 22.0061 7.823 22.0061 7.99989C22.0061 8.17679 21.9592 8.35051 21.8701 8.50335C21.781 8.65619 21.653 8.78267 21.4991 8.86989L12.9991 13.7399Z" stroke="url(#paint0_linear_1714_621)" stroke-width="2" stroke-linecap="round" stroke-linejoin="round"/>
</g>
<defs>
<linearGradient id="paint0_linear_1714_621" x1="1.99805" y1="12.0025" x2="22.0061" y2="12.0025" gradientUnits="userSpaceOnUse">
<stop stop-color="#FFA68D"/>
<stop offset="1" stop-color="#FD3A84"/>
</linearGradient>
<clipPath id="clip0_1714_621">
<rect width="24" height="24" fill="white"/>
</clipPath>
</defs>
</svg>
